{"glyphs":{"0":{"ha":663,"x_min":51,"x_max":618,"o":"m 318 1288 q 364 1293 343 1293 q 410 1281 385 1293 q 428 1274 419 1276 q 444 1264 438 1271 q 510 1191 486 1228 q 549 1114 535 1154 q 571 1030 563 1074 q 592 935 579 986 q 597 916 594 922 q 603 902 600 910 q 608 884 606 894 q 614 854 611 874 q 617 815 617 840 q 617 763 618 790 q 616 710 617 735 q 614 671 615 685 q 596 543 608 601 q 563 415 583 485 q 520 326 546 364 q 464 249 494 289 q 437 224 453 232 q 404 211 421 215 q 372 205 388 207 q 342 200 356 203 q 337 199 340 200 q 332 197 333 197 q 316 201 328 197 q 291 212 304 206 q 265 224 278 218 q 247 232 253 229 l 196 269 q 171 292 182 282 q 151 315 160 303 q 135 341 142 326 q 122 376 128 356 l 61 631 q 56 736 51 689 q 57 818 60 783 q 56 886 54 849 q 61 961 57 924 q 73 1034 65 999 q 90 1096 81 1069 q 104 1132 100 1122 q 110 1145 108 1142 q 115 1152 113 1149 q 124 1169 117 1156 q 135 1190 129 1183 q 145 1202 140 1197 q 157 1211 150 1207 q 174 1224 164 1215 q 206 1250 193 1240 q 234 1266 219 1260 q 268 1277 249 1272 q 318 1288 288 1282 m 339 246 q 365 256 357 251 q 379 268 374 260 q 391 292 385 276 q 413 340 397 308 q 426 368 419 356 q 439 396 432 381 q 463 447 454 432 q 475 478 471 463 q 482 519 479 494 q 490 599 485 544 q 489 776 500 692 q 467 947 478 861 q 462 974 464 967 q 458 990 460 982 q 453 1010 456 997 q 450 1051 451 1022 q 447 1067 449 1060 q 442 1082 444 1075 q 431 1116 435 1100 q 421 1144 428 1132 l 388 1189 q 369 1217 378 1203 q 343 1238 360 1231 q 282 1238 307 1251 q 240 1192 257 1224 q 215 1119 224 1161 q 201 1035 206 1078 q 195 956 196 993 q 194 896 194 918 l 189 664 q 189 649 189 654 q 192 631 189 644 q 196 606 196 614 q 196 592 196 597 q 197 581 196 586 q 201 568 197 576 q 209 542 208 550 q 209 528 210 533 q 208 519 208 524 q 213 507 208 515 q 216 506 215 504 q 219 494 217 507 q 225 468 221 490 q 235 419 229 446 q 247 369 240 393 q 257 338 253 344 q 265 327 260 333 q 275 314 269 321 q 279 308 275 308 q 292 286 286 296 q 310 267 299 276 q 324 256 317 260 q 339 246 331 253 z "},"1":{"ha":449,"x_min":103,"x_max":390,"o":"m 179 1100 q 163 1088 174 1097 q 140 1072 151 1079 q 119 1060 129 1064 q 107 1067 110 1057 q 103 1092 103 1082 q 108 1111 104 1103 q 120 1128 113 1119 q 136 1149 128 1138 l 211 1261 q 223 1281 221 1275 q 232 1301 225 1288 q 266 1295 246 1300 q 293 1286 286 1290 q 291 1210 294 1251 q 285 1140 288 1168 q 284 1067 281 1100 q 285 1001 288 1033 q 280 961 282 986 q 279 924 278 936 q 283 895 281 908 q 288 865 286 882 q 290 785 289 829 q 288 706 290 742 l 299 569 q 299 551 300 558 q 297 537 297 543 q 295 524 296 531 q 297 507 294 517 q 304 458 303 488 q 307 397 306 428 q 312 339 308 367 q 324 296 315 311 q 355 247 339 272 q 390 204 371 222 q 366 196 382 197 q 332 195 350 194 q 297 198 314 196 q 269 200 279 200 q 236 197 254 199 q 200 192 218 194 q 166 190 182 190 q 140 193 150 189 q 141 202 142 200 q 142 205 140 204 q 146 206 143 206 q 156 213 149 207 q 165 218 163 218 q 172 226 167 218 q 177 238 176 233 q 177 246 178 242 q 176 256 176 250 q 178 272 175 263 q 181 284 179 276 q 184 301 182 292 q 188 317 186 310 q 192 326 190 324 q 199 338 196 336 q 203 341 203 340 q 203 347 204 342 q 201 368 203 351 q 196 465 197 419 q 194 556 194 511 q 191 644 193 600 q 181 738 189 689 q 175 816 176 768 q 175 916 174 864 q 178 1017 176 968 q 179 1100 179 1067 z "},"2":{"ha":654,"x_min":63,"x_max":569,"o":"m 63 1142 q 75 1155 67 1147 q 94 1171 83 1163 q 114 1186 104 1179 q 128 1197 124 1193 q 181 1245 156 1224 q 235 1277 207 1267 q 298 1285 264 1288 q 375 1263 332 1283 q 414 1239 397 1251 q 428 1224 426 1229 q 440 1206 431 1219 q 475 1156 457 1181 q 499 1083 493 1131 q 500 1036 500 1068 q 498 969 500 1004 q 492 904 496 935 q 483 861 489 874 q 475 830 475 842 q 471 800 475 818 l 454 740 q 442 697 450 728 q 426 628 435 667 q 406 546 417 589 q 386 465 396 503 q 369 399 376 426 q 357 365 361 372 q 349 356 351 357 q 347 354 347 354 q 347 352 346 354 q 349 339 347 350 q 344 303 349 325 q 332 256 339 281 q 317 211 325 232 q 306 178 310 190 q 340 177 331 179 q 353 174 349 175 q 364 172 357 172 q 392 174 371 171 q 434 185 417 178 q 463 203 451 192 q 483 229 474 214 q 500 264 492 244 q 510 290 506 276 q 525 311 515 304 q 529 315 529 314 q 528 317 529 317 q 530 317 528 317 q 540 317 532 317 q 553 288 550 304 q 558 256 557 272 q 558 226 558 240 q 561 203 558 211 l 561 199 q 567 191 564 192 q 567 171 569 190 q 565 140 564 150 q 566 122 565 129 q 565 107 567 115 q 558 85 564 99 q 535 92 544 86 q 510 94 525 97 q 499 92 499 93 q 486 89 500 90 l 344 90 q 291 92 306 90 q 272 97 276 94 q 264 101 267 99 q 246 104 261 103 q 219 103 235 106 q 190 100 204 101 q 161 101 175 99 q 139 114 147 103 q 151 122 147 119 q 156 126 154 124 q 160 133 158 129 q 164 147 161 138 l 294 524 q 306 569 301 547 q 317 615 310 592 q 344 701 328 656 q 368 790 361 746 q 375 842 371 817 q 382 891 379 867 q 387 941 385 915 q 389 997 389 967 q 385 1043 389 1014 q 378 1101 382 1072 q 367 1156 374 1131 q 356 1193 361 1182 q 320 1220 340 1217 q 279 1217 300 1224 q 240 1199 258 1211 q 208 1176 221 1186 q 181 1145 186 1160 q 167 1104 176 1131 q 155 1069 157 1079 q 154 1051 153 1058 q 156 1035 156 1044 q 154 1004 157 1026 q 124 1022 132 1001 q 107 1071 115 1042 q 94 1103 101 1090 q 75 1129 88 1115 q 69 1135 72 1132 q 63 1142 65 1138 z "},"3":{"ha":606,"x_min":63,"x_max":542,"o":"m 75 1253 l 101 1286 q 117 1301 110 1294 q 131 1317 124 1308 q 135 1323 136 1324 q 139 1328 135 1322 q 145 1335 143 1332 q 165 1343 147 1339 q 198 1342 172 1344 q 256 1330 224 1339 q 319 1304 288 1321 q 369 1261 351 1288 q 388 1222 381 1246 q 399 1170 396 1197 q 401 1116 403 1143 q 393 1067 400 1089 q 380 1040 389 1056 q 360 1009 371 1025 q 338 979 349 993 q 321 957 328 965 q 309 943 313 946 q 299 925 306 940 q 330 907 313 914 q 363 890 347 900 q 391 871 382 879 q 417 849 400 863 q 460 803 444 825 q 485 760 475 782 q 500 715 494 739 q 515 661 506 690 q 520 642 519 649 q 521 629 521 635 q 522 616 521 624 q 531 592 524 608 q 540 555 538 576 q 542 510 542 533 q 540 465 542 488 q 538 428 538 443 q 526 345 535 383 q 503 271 518 307 q 460 204 486 229 q 402 166 435 179 q 331 149 369 153 q 250 147 293 144 q 135 151 171 150 q 88 160 100 151 q 76 188 75 168 q 71 251 76 208 q 65 299 67 279 q 63 347 63 319 q 103 333 86 349 q 133 298 121 318 q 156 259 146 278 q 175 235 167 240 q 233 239 201 232 q 282 261 264 246 q 300 286 290 267 q 319 328 310 306 q 335 372 328 351 q 344 404 342 393 q 350 419 347 414 q 355 430 353 425 q 358 440 357 435 q 361 456 360 446 q 368 635 378 547 q 321 801 358 722 q 279 862 300 846 q 238 881 258 878 q 196 883 217 883 q 153 894 175 882 q 158 903 157 901 q 160 904 160 904 q 163 905 161 904 q 168 910 164 906 q 192 935 176 919 q 222 967 207 950 q 248 1001 236 985 q 263 1028 260 1017 q 269 1078 268 1049 q 268 1138 271 1108 q 259 1196 265 1168 q 244 1240 253 1224 q 169 1224 189 1249 q 146 1144 149 1200 q 111 1152 121 1142 q 99 1186 101 1163 q 94 1210 96 1203 q 91 1224 93 1218 q 85 1235 89 1229 q 75 1253 81 1240 z "},"4":{"ha":622,"x_min":15,"x_max":553,"o":"m 15 731 l 60 890 q 88 967 74 929 q 108 1050 103 1006 q 124 1137 113 1093 q 147 1223 136 1181 q 167 1306 158 1265 q 176 1385 176 1347 q 197 1383 192 1386 q 208 1369 201 1379 q 237 1317 225 1350 q 251 1257 249 1285 q 261 1189 257 1208 q 266 1161 265 1169 q 262 1146 267 1153 q 246 1114 257 1139 q 234 1088 238 1097 q 228 1069 231 1078 q 221 1051 225 1061 q 208 1026 217 1042 q 190 980 200 1011 q 171 913 181 949 q 153 844 161 878 q 138 789 144 810 q 193 794 167 792 q 249 800 219 796 q 270 803 257 801 q 297 809 283 806 q 322 815 311 813 q 340 822 333 818 q 342 858 342 831 q 340 922 342 885 q 338 1002 339 960 q 337 1082 338 1044 q 337 1149 336 1119 q 340 1189 338 1178 q 374 1177 354 1189 q 411 1149 393 1165 q 442 1117 429 1132 q 458 1096 456 1101 q 443 1087 449 1090 q 435 1079 438 1083 q 431 1067 432 1075 q 429 1044 429 1060 l 433 846 q 464 852 456 850 q 476 856 472 854 q 482 861 479 858 q 496 868 485 864 q 518 879 513 875 q 524 888 524 883 q 525 897 525 892 q 532 915 525 903 q 544 908 544 908 q 549 893 544 908 q 552 870 551 885 q 553 840 553 856 q 551 811 553 825 q 547 790 549 797 q 533 765 542 769 q 504 758 524 761 q 462 754 476 754 q 440 748 447 754 q 433 724 433 742 q 435 667 433 706 q 437 628 436 651 q 440 582 438 604 q 445 537 444 549 q 445 521 446 525 q 443 514 444 517 q 442 496 442 511 q 444 473 442 482 q 449 450 447 464 q 449 427 450 436 q 450 404 447 418 q 458 313 456 357 q 467 224 460 269 q 483 186 471 200 q 510 161 496 172 q 537 140 525 150 q 551 113 549 129 l 525 107 q 457 110 501 103 q 350 118 413 118 q 325 117 343 118 q 291 119 307 117 q 268 128 275 121 q 275 151 261 136 q 285 158 278 154 q 299 164 293 161 q 324 176 314 171 q 349 193 335 182 q 354 247 353 211 q 356 324 356 283 q 354 403 356 364 q 350 464 353 442 l 339 600 q 333 631 335 613 q 333 670 332 650 q 335 710 333 690 q 336 746 336 729 q 249 740 293 743 q 163 738 204 736 q 123 735 142 738 q 87 728 104 732 q 51 724 69 725 q 15 731 33 724 z "},"5":{"ha":543,"x_min":60,"x_max":488,"o":"m 76 1268 q 162 1267 115 1263 q 253 1276 208 1271 q 334 1285 297 1282 q 390 1282 371 1288 q 393 1265 392 1276 q 395 1239 394 1253 q 397 1212 396 1225 q 399 1192 399 1199 q 401 1159 401 1172 q 389 1131 400 1146 q 384 1122 385 1124 q 383 1119 383 1119 q 382 1119 383 1119 q 374 1115 381 1119 q 353 1136 361 1121 q 340 1169 346 1151 q 326 1200 333 1186 q 306 1218 318 1214 q 280 1217 300 1219 q 237 1210 260 1214 q 196 1203 214 1207 q 176 1197 178 1199 q 172 1158 172 1192 q 175 1082 172 1124 q 181 1001 178 1040 q 186 947 183 963 q 187 938 186 943 q 188 929 188 932 q 189 925 188 926 l 190 915 q 192 911 192 917 q 237 918 214 914 q 283 915 260 922 q 301 910 289 914 q 327 903 314 907 q 351 897 340 900 q 368 890 363 893 q 428 839 406 872 q 464 766 451 806 q 481 683 476 726 q 486 604 485 640 q 485 514 488 557 q 474 431 483 471 q 444 355 464 392 q 390 283 425 318 q 337 235 367 258 q 267 204 307 213 q 201 201 236 199 q 136 215 167 203 q 85 250 106 228 q 64 307 65 272 q 62 353 64 331 q 64 399 60 375 l 94 401 q 111 376 101 393 q 133 342 121 360 q 160 307 146 324 q 191 283 175 290 q 224 281 207 276 q 260 311 242 286 q 271 326 267 319 q 278 338 275 332 q 283 351 281 344 q 288 371 285 358 q 294 385 292 382 q 298 392 296 389 q 303 402 300 396 q 314 425 307 408 q 321 441 319 436 q 325 457 322 446 q 333 476 329 469 q 340 492 336 483 q 347 514 343 500 q 354 554 350 528 q 364 632 361 597 q 363 697 367 667 q 349 753 360 726 q 317 811 338 781 q 296 830 306 826 q 268 847 286 833 q 213 864 240 868 q 164 847 186 860 q 126 821 142 835 q 104 808 110 807 q 83 851 83 819 q 83 899 83 886 q 83 917 83 911 q 81 932 82 924 q 76 969 79 940 q 76 998 75 982 q 76 1025 76 1014 q 83 1092 78 1058 q 88 1158 88 1125 q 82 1226 88 1204 q 76 1268 76 1249 z "},"6":{"ha":576,"x_min":50,"x_max":493,"o":"m 197 835 q 251 831 231 835 q 288 821 272 828 q 318 803 304 814 q 353 778 332 792 q 378 752 368 767 q 401 722 389 738 q 425 694 414 707 q 447 665 436 682 q 476 591 467 633 q 490 502 486 549 q 492 408 493 456 q 486 315 490 360 q 469 227 482 271 q 433 157 457 183 q 410 135 425 149 q 377 110 396 122 q 339 91 358 99 q 301 85 319 83 q 263 88 275 86 q 232 100 251 89 q 190 128 204 115 q 165 156 175 142 q 144 188 154 171 q 115 226 133 204 q 114 227 114 226 q 113 228 114 228 q 100 256 107 236 q 87 300 93 276 q 76 346 81 324 q 69 381 71 368 l 61 414 q 62 433 60 425 q 63 456 64 442 q 55 517 60 488 q 54 599 50 547 l 76 769 q 94 847 89 821 q 103 894 99 874 q 117 939 108 914 q 146 1014 126 964 q 173 1076 161 1054 q 192 1118 185 1097 l 278 1283 q 292 1307 285 1297 q 309 1327 300 1317 q 327 1351 318 1338 q 344 1388 336 1365 q 346 1395 347 1394 q 351 1399 344 1396 q 372 1402 367 1410 q 381 1389 376 1394 q 389 1378 388 1381 q 392 1376 390 1376 q 396 1376 393 1376 q 408 1371 399 1376 q 405 1350 407 1365 q 401 1331 403 1335 q 392 1316 399 1322 q 376 1301 385 1310 q 360 1280 368 1293 q 344 1246 351 1267 q 327 1190 332 1204 q 319 1167 322 1175 q 312 1151 317 1160 q 294 1111 307 1142 q 291 1101 290 1100 q 286 1093 292 1103 l 235 986 q 212 914 219 953 q 197 835 204 875 m 369 138 q 378 155 374 150 q 385 166 382 160 q 392 184 389 172 q 400 221 396 196 q 403 417 417 318 q 351 603 390 517 q 335 635 343 622 q 318 658 326 647 q 301 679 310 668 q 281 707 292 690 q 247 751 265 733 q 188 788 229 769 q 181 769 185 782 q 174 741 178 756 q 169 713 171 726 q 165 692 167 699 q 165 681 164 681 q 163 669 165 681 q 160 665 161 668 q 158 660 160 663 q 150 615 151 640 q 150 564 149 590 q 155 512 151 538 q 161 464 158 486 q 178 396 164 436 q 212 313 193 356 q 251 234 231 271 q 286 179 271 197 q 316 147 301 157 q 369 138 331 138 z "},"7":{"ha":589,"x_min":63,"x_max":556,"o":"m 63 1322 q 128 1319 93 1318 q 158 1323 149 1321 q 186 1328 167 1325 q 242 1333 211 1332 q 307 1333 274 1333 q 374 1331 340 1332 q 438 1331 408 1329 q 499 1334 471 1331 q 556 1324 528 1338 q 527 1275 543 1307 q 495 1206 511 1243 q 466 1135 479 1169 q 447 1078 453 1100 q 433 1021 442 1056 q 417 944 425 986 q 399 856 408 901 q 383 769 390 811 q 369 692 375 728 q 361 636 364 657 q 357 596 358 613 q 351 557 356 579 q 347 518 349 538 q 343 476 346 499 q 337 420 342 453 q 328 355 332 388 q 322 292 324 322 q 324 243 319 263 q 330 205 328 226 q 339 171 332 183 l 324 161 q 315 157 314 157 q 308 156 317 157 q 290 159 297 156 q 272 165 283 163 q 252 169 258 169 q 242 169 246 168 q 236 177 239 171 q 225 200 233 183 q 217 219 219 211 q 214 235 215 226 q 212 253 213 243 q 210 279 211 264 q 206 349 206 325 q 208 387 206 372 q 212 414 210 401 q 214 449 214 426 q 212 508 213 486 q 212 547 211 529 q 216 587 213 565 q 228 649 219 608 l 271 835 q 270 860 272 851 q 267 878 268 869 q 268 895 267 886 q 276 921 269 904 l 278 925 l 278 936 l 297 1006 q 305 1022 301 1017 q 313 1038 308 1026 q 329 1085 319 1057 q 349 1144 339 1114 q 365 1203 358 1175 q 375 1251 372 1232 q 359 1247 371 1249 q 333 1244 347 1246 q 306 1242 319 1243 q 282 1239 292 1240 q 256 1233 267 1236 q 235 1228 246 1229 q 217 1228 232 1228 q 184 1224 203 1228 q 147 1211 165 1221 q 119 1182 129 1201 q 115 1170 114 1171 q 114 1163 117 1169 l 89 1111 q 69 1122 74 1114 q 63 1146 65 1129 l 63 1322 z "},"8":{"ha":633,"x_min":47,"x_max":563,"o":"m 314 826 q 326 803 321 813 q 340 778 332 794 q 358 755 346 765 q 386 725 369 744 q 425 669 403 706 q 474 567 447 632 q 496 519 485 539 q 518 474 507 500 q 539 411 529 450 q 555 330 549 372 q 562 247 561 288 q 554 181 563 207 q 544 161 550 168 q 531 135 538 154 q 511 83 519 101 q 493 53 503 64 q 472 32 483 42 q 447 7 461 22 q 389 -27 422 -19 q 319 -31 356 -35 q 250 -14 283 -26 q 192 11 217 -1 q 163 28 174 21 q 144 42 153 35 q 128 60 136 49 q 110 90 121 71 q 93 110 99 107 q 83 116 88 114 q 76 124 79 118 q 71 154 74 131 q 52 326 57 240 q 71 493 47 411 q 106 599 88 547 q 150 696 124 651 q 198 771 179 746 q 226 810 217 796 q 234 838 235 825 q 224 875 233 850 q 181 968 206 924 q 146 1072 157 1013 q 141 1195 135 1135 q 178 1300 147 1256 q 208 1340 192 1321 q 246 1369 225 1358 q 294 1382 267 1381 q 357 1369 321 1383 q 384 1358 374 1363 q 402 1347 394 1353 q 416 1331 410 1340 q 431 1307 422 1322 q 441 1285 435 1299 q 453 1258 447 1272 q 464 1229 460 1243 q 469 1207 468 1215 q 469 1187 469 1203 q 467 1151 468 1171 q 465 1113 467 1131 q 463 1090 464 1096 q 447 1039 457 1063 q 425 990 436 1015 q 392 925 404 944 q 373 898 381 906 q 359 886 365 890 q 342 865 353 882 q 326 844 336 857 q 314 824 317 832 l 314 826 m 286 721 q 266 694 275 710 q 249 661 257 678 q 235 629 242 644 q 225 606 229 614 q 203 530 213 582 q 187 420 193 478 q 181 312 181 363 q 189 239 181 261 q 197 218 193 228 q 206 197 201 208 l 222 150 q 228 128 225 139 q 235 107 231 118 q 244 84 240 90 q 253 74 247 78 q 267 64 258 69 q 292 43 276 58 q 309 28 301 32 q 336 28 317 25 l 369 35 q 389 55 379 39 q 408 91 399 71 q 425 131 417 111 q 440 165 433 151 q 451 215 450 185 q 448 276 451 244 q 438 335 444 307 q 428 379 432 363 q 409 440 421 406 q 383 512 397 475 q 355 583 369 549 q 328 642 340 617 l 300 700 q 294 712 293 711 q 286 721 294 713 m 292 892 q 301 898 299 896 q 306 903 304 900 q 311 914 308 907 q 321 933 314 921 q 349 1003 342 978 q 361 1038 356 1028 l 367 1047 q 375 1099 372 1058 q 374 1186 378 1139 q 358 1277 371 1233 q 321 1342 346 1321 q 283 1308 299 1335 q 261 1257 268 1281 q 249 1192 251 1222 q 249 1139 247 1163 q 251 1097 250 1115 q 250 1067 253 1078 q 249 1042 249 1058 q 250 1008 249 1026 q 256 972 251 990 q 267 942 260 954 l 292 892 z "},"9":{"ha":572,"x_min":71,"x_max":481,"o":"m 340 606 q 297 591 317 596 q 259 588 278 586 q 221 595 240 589 q 176 613 201 601 q 147 634 161 619 q 122 667 133 649 q 101 704 110 685 q 89 740 93 724 q 87 770 88 747 q 85 824 86 793 q 85 890 85 854 q 87 957 86 925 q 89 1015 88 989 q 93 1051 90 1040 q 101 1100 99 1078 q 110 1147 103 1122 q 136 1201 118 1172 q 193 1272 154 1231 q 220 1299 204 1285 q 258 1318 236 1313 q 288 1325 279 1324 q 301 1326 296 1326 q 315 1324 307 1326 q 342 1318 322 1321 q 366 1317 360 1315 q 385 1308 372 1318 q 391 1301 389 1304 q 397 1293 393 1299 l 433 1246 q 454 1202 447 1231 q 465 1142 461 1174 q 471 1079 469 1110 q 475 1028 472 1049 q 481 947 481 972 q 478 909 481 922 q 474 883 476 896 q 474 840 472 871 q 474 776 475 792 q 472 753 474 760 q 468 741 469 747 q 467 706 467 735 q 464 611 467 674 q 457 481 461 549 q 447 352 453 413 q 435 264 440 292 q 381 140 418 186 q 298 88 343 94 q 207 119 253 82 q 126 247 161 157 q 120 267 124 256 q 114 290 117 278 q 108 314 111 303 q 104 332 106 325 q 94 365 97 357 q 88 376 92 372 q 81 383 85 379 q 71 401 78 386 q 94 413 88 415 q 118 401 100 411 q 142 391 131 394 q 164 383 153 388 q 185 374 175 379 q 206 356 194 368 q 220 336 210 350 q 233 317 231 322 q 235 292 239 301 q 238 260 232 283 q 247 235 242 246 q 254 210 251 225 q 258 183 257 196 q 264 164 260 171 q 281 148 267 157 q 301 136 294 139 q 328 156 318 136 q 344 206 339 175 q 351 277 350 238 q 353 356 353 317 q 353 431 353 396 q 356 492 353 467 q 359 545 358 515 q 347 596 360 575 q 342 603 342 604 q 340 606 343 601 m 293 643 q 307 672 301 664 q 317 688 313 679 q 324 716 321 697 q 332 778 328 735 q 335 863 335 825 q 333 949 336 900 q 333 1037 332 993 q 332 1125 333 1081 q 324 1207 329 1171 q 304 1279 319 1243 q 281 1272 289 1276 q 268 1259 272 1267 q 262 1241 264 1251 q 254 1218 260 1231 q 231 1162 243 1193 q 210 1099 219 1131 q 192 1036 200 1067 q 182 981 185 1006 q 183 952 181 974 q 188 900 185 931 q 194 835 190 869 q 203 771 199 801 q 211 718 207 740 q 218 689 215 696 q 250 658 226 669 q 293 643 274 646 z "},"\u0000":{"ha":0,"x_min":0,"x_max":0,"o":""},"\r":{"ha":421,"x_min":0,"x_max":0,"o":""}," ":{"ha":421,"x_min":0,"x_max":0,"o":""},"!":{"ha":482,"x_min":178,"x_max":401,"o":"m 224 353 l 215 476 q 215 546 218 510 q 215 613 213 582 q 220 632 218 628 q 222 647 222 636 q 219 686 219 675 q 218 706 218 697 q 219 725 218 714 q 222 764 221 736 q 224 797 222 776 q 228 838 226 817 q 230 879 229 860 q 231 907 231 899 q 225 974 226 943 q 231 1046 224 1004 q 240 1118 236 1082 q 250 1192 243 1154 q 250 1213 251 1200 q 253 1237 249 1225 q 269 1256 257 1249 q 313 1261 282 1263 q 374 1251 356 1257 q 397 1240 393 1246 q 397 1224 401 1233 q 389 1206 392 1215 q 374 1138 378 1171 q 361 1069 369 1106 q 342 958 347 1008 q 334 862 336 907 q 329 774 332 817 q 318 686 326 732 l 279 364 q 265 351 274 357 q 248 347 258 347 q 224 353 238 346 m 225 256 q 251 260 240 263 q 269 249 263 257 q 281 232 276 242 q 290 217 286 222 q 297 205 296 206 q 299 190 297 204 q 286 114 303 142 q 248 80 269 86 q 206 90 226 74 q 181 149 185 107 q 182 181 178 167 q 192 213 186 196 q 197 230 194 224 q 202 240 199 236 q 211 246 206 243 q 225 253 217 249 l 225 256 z "},"A":{"ha":621,"x_min":-3,"x_max":660,"o":"m 1 171 q 8 201 -3 190 q 33 222 18 213 q 62 244 47 232 q 81 281 76 257 q 90 335 88 317 q 94 366 93 353 q 95 394 94 379 q 97 443 96 410 q 99 466 97 457 q 105 483 101 475 q 112 497 108 490 q 118 517 115 504 q 126 557 124 536 q 131 597 128 578 q 149 672 138 633 q 164 751 161 710 q 172 838 168 811 q 180 882 175 865 q 191 918 185 899 q 207 983 197 938 q 212 1019 211 1006 q 217 1056 213 1032 l 292 1349 l 308 1346 q 325 1322 321 1340 q 332 1293 329 1303 q 342 1243 340 1257 q 347 1219 344 1229 q 353 1195 349 1210 q 371 1146 358 1181 q 380 1110 376 1132 q 389 1071 383 1089 l 425 811 q 431 774 428 794 q 438 733 435 753 l 464 581 q 475 544 469 561 q 486 506 481 526 q 496 456 490 489 q 510 389 501 424 q 528 324 518 354 q 554 282 539 294 l 610 239 q 623 228 618 232 q 636 219 628 225 q 651 210 647 213 q 660 193 656 208 q 625 198 639 190 q 588 208 611 206 q 563 209 572 210 q 547 206 554 208 q 533 201 540 204 q 513 196 525 199 q 488 193 499 193 q 469 193 478 193 q 453 192 461 193 q 438 182 446 190 q 426 167 431 175 q 414 153 421 160 q 397 144 404 146 q 383 142 386 142 q 382 142 381 142 q 385 143 383 142 q 382 146 386 144 q 385 158 382 150 q 392 174 388 165 q 401 190 396 182 q 408 201 406 197 q 423 243 421 221 q 422 288 425 265 q 415 333 419 311 q 406 376 410 356 q 391 440 399 408 q 381 500 383 472 q 369 590 374 564 q 357 624 365 617 q 334 628 349 632 q 292 626 319 624 q 258 631 276 628 q 224 635 239 633 q 209 597 213 615 q 205 558 206 578 q 204 516 204 538 q 200 469 204 494 q 196 421 197 447 q 192 375 194 394 q 183 334 188 354 q 176 290 178 314 q 199 274 188 283 q 225 253 210 265 q 242 242 233 246 q 256 233 250 238 q 262 224 261 229 q 256 211 263 218 q 234 206 253 207 q 192 206 215 206 q 148 207 169 206 q 118 208 126 208 q 79 203 94 210 q 52 188 64 196 q 29 173 40 179 q 1 171 18 167 m 231 696 q 257 692 247 694 q 285 689 267 690 q 317 690 300 689 q 349 690 333 692 q 345 734 349 703 q 338 806 342 765 q 327 891 333 847 q 315 973 321 935 q 304 1038 310 1011 q 296 1069 299 1064 q 282 953 289 997 q 267 874 275 910 q 249 798 258 838 q 231 696 240 758 z "},"a":{"ha":614,"x_min":6,"x_max":614,"o":"m 6 294 q 7 311 6 311 q 17 324 8 311 q 35 356 28 339 q 54 390 42 374 q 96 493 86 433 l 160 779 q 167 813 165 797 q 172 849 169 829 q 176 865 175 860 q 181 882 178 871 q 199 953 188 910 q 220 1042 210 996 q 238 1131 231 1088 q 247 1201 246 1174 q 249 1219 247 1210 q 252 1238 250 1229 q 260 1251 254 1246 q 274 1257 265 1257 q 292 1245 289 1256 q 301 1225 294 1235 q 308 1217 306 1219 q 313 1214 311 1215 q 317 1210 315 1213 q 321 1203 318 1208 l 425 861 q 444 797 436 826 q 461 731 451 767 q 472 685 465 715 q 485 617 478 656 q 502 538 493 579 q 520 458 511 496 q 538 390 529 419 q 553 346 546 360 q 565 318 560 331 q 579 289 569 306 q 594 267 589 274 q 603 258 600 261 q 609 252 607 254 q 614 244 611 250 q 595 233 600 233 q 578 240 590 233 q 560 249 565 247 q 551 250 554 250 q 545 249 549 250 q 532 253 542 249 l 454 285 q 434 271 439 275 q 413 260 429 267 q 383 250 394 253 q 361 254 372 247 q 365 265 361 254 q 375 290 369 276 q 385 317 381 304 q 392 332 390 329 q 401 355 397 346 q 408 374 406 364 q 409 395 410 383 q 406 426 408 407 q 393 532 399 482 q 381 636 388 582 q 286 634 321 636 q 233 628 251 632 q 208 616 214 624 q 201 596 203 608 q 200 566 200 583 q 194 524 200 549 q 190 494 192 511 q 188 460 189 478 q 187 426 188 443 q 186 396 186 408 l 185 363 l 185 360 q 183 326 182 338 q 186 309 185 314 q 188 302 188 304 q 185 296 189 300 q 169 288 175 286 q 157 282 164 290 q 144 297 154 293 q 121 303 133 300 q 113 306 119 303 q 99 311 106 308 q 85 316 92 314 q 79 318 79 318 q 62 316 69 321 q 40 304 54 311 q 26 299 31 300 q 19 299 21 299 q 14 298 17 299 q 6 294 11 297 m 215 693 q 253 701 232 696 q 289 708 274 707 q 308 707 301 708 q 322 706 315 706 q 335 708 328 706 q 358 718 343 710 q 363 719 361 718 q 349 816 356 768 q 333 908 342 864 l 294 1088 q 288 1071 289 1078 q 288 1055 288 1064 q 285 1032 288 1046 q 276 996 283 1018 l 236 797 q 232 767 235 779 q 226 744 229 754 q 221 722 224 733 q 215 693 218 710 z "},"B":{"ha":660,"x_min":32,"x_max":624,"o":"m 32 1115 q 53 1119 40 1119 q 82 1115 67 1118 q 112 1108 97 1111 q 138 1104 126 1104 q 197 1109 169 1104 q 251 1115 224 1114 q 317 1121 294 1118 q 358 1122 340 1124 q 394 1113 375 1121 q 450 1086 414 1106 q 481 1061 465 1078 q 506 1023 496 1044 q 515 976 515 1001 q 499 925 514 950 q 461 876 479 893 q 426 851 443 860 q 391 836 408 842 q 353 821 374 831 q 426 799 392 814 q 486 765 461 785 q 553 704 529 729 q 588 654 576 679 q 604 599 600 629 q 615 521 608 568 q 613 404 624 463 q 561 304 601 346 q 539 276 546 289 q 521 250 532 263 l 514 243 q 508 238 508 238 q 510 240 508 239 q 513 242 513 242 q 508 238 514 242 q 451 210 483 217 q 387 203 418 203 q 332 206 356 203 q 303 208 308 210 q 299 206 299 207 q 298 204 299 204 q 294 205 297 204 q 279 210 290 206 q 208 223 238 224 q 156 217 179 222 q 115 206 133 211 q 75 208 96 201 q 87 229 78 222 q 106 242 96 236 q 126 258 117 249 q 140 289 136 268 q 141 311 142 293 q 139 350 140 329 q 137 391 138 371 q 136 421 136 411 q 140 487 138 458 q 143 551 142 515 q 143 652 144 606 q 139 744 142 699 q 134 835 136 789 q 132 935 132 882 q 128 1008 132 983 q 115 1046 125 1032 q 87 1070 104 1060 q 43 1100 69 1081 q 34 1106 36 1106 q 32 1106 32 1106 q 33 1107 32 1106 q 32 1115 33 1108 m 225 779 q 232 726 231 763 q 233 649 233 690 q 230 567 232 607 q 226 503 228 528 q 231 430 225 476 q 231 331 238 383 q 229 302 228 311 q 236 289 231 293 q 253 283 242 285 q 281 278 264 282 q 310 277 290 275 q 353 285 331 279 q 399 300 376 290 q 436 324 421 310 q 477 381 465 351 q 496 453 489 411 q 500 497 499 472 q 501 548 501 522 q 497 598 500 574 q 488 639 493 622 q 460 684 479 663 q 417 723 442 706 q 367 753 393 740 q 315 775 340 767 q 289 781 299 779 q 270 781 279 782 q 251 779 261 781 q 225 779 240 778 m 226 811 q 265 823 253 822 q 288 824 278 824 q 309 831 297 825 q 347 860 321 838 q 367 872 357 867 q 383 886 376 878 q 401 926 397 903 q 399 974 404 949 q 383 1021 394 999 q 358 1057 372 1043 q 327 1085 343 1072 q 278 1083 311 1097 q 229 1063 247 1072 q 211 1029 211 1053 l 226 811 z "},"C":{"ha":547,"x_min":61,"x_max":526,"o":"m 518 482 q 524 463 522 475 q 526 437 526 450 q 525 410 526 424 q 522 392 524 397 q 521 390 521 390 q 519 388 521 389 q 512 360 514 371 q 507 341 510 350 q 497 322 504 332 q 472 297 489 313 q 389 243 429 258 q 289 243 349 228 q 255 260 276 246 q 210 294 233 275 q 167 332 188 313 q 140 364 147 351 q 98 453 115 408 q 69 556 81 497 q 65 592 67 565 q 63 653 64 618 q 62 726 63 688 q 62 800 61 765 q 64 861 63 835 q 68 897 65 888 q 79 951 75 926 q 93 1006 83 976 q 127 1099 107 1049 q 176 1192 147 1150 q 245 1263 206 1235 q 339 1289 285 1290 q 391 1281 363 1289 q 439 1258 419 1272 q 456 1233 443 1256 q 484 1181 469 1211 q 508 1120 499 1151 q 513 1068 517 1089 q 498 1059 510 1058 q 472 1065 486 1060 q 444 1079 457 1071 q 426 1092 431 1088 q 406 1135 414 1107 q 388 1183 397 1163 q 375 1205 383 1193 q 356 1224 367 1217 q 333 1232 346 1232 q 308 1219 321 1232 q 278 1172 294 1206 q 245 1100 261 1139 q 217 1024 229 1061 q 200 965 206 986 q 185 856 188 914 q 184 745 182 797 q 191 654 186 693 q 196 604 196 615 q 200 576 196 589 q 210 550 204 563 q 221 525 215 538 q 228 500 226 513 q 228 482 229 488 q 228 472 228 476 q 228 463 228 468 q 232 449 228 458 q 253 403 240 426 q 281 361 265 381 q 317 328 297 342 q 364 313 338 315 q 386 315 374 311 q 411 326 399 319 q 434 340 424 332 q 450 356 444 347 q 467 397 463 375 q 475 436 471 418 q 488 467 479 454 q 518 482 497 479 z "},"D":{"ha":636,"x_min":57,"x_max":638,"o":"m 206 444 q 198 488 200 458 q 194 533 196 517 q 193 581 193 565 q 188 624 193 596 q 177 705 181 657 q 172 806 174 753 q 169 915 169 860 q 167 1017 168 969 q 163 1099 165 1064 q 156 1147 161 1133 q 126 1189 144 1175 q 90 1211 107 1203 q 65 1226 74 1219 q 68 1250 57 1233 q 93 1255 69 1254 q 145 1255 117 1256 q 201 1253 174 1254 q 236 1253 228 1253 q 263 1258 253 1253 q 288 1264 274 1263 q 326 1262 301 1265 q 396 1242 350 1258 q 439 1220 414 1235 q 489 1188 464 1206 q 534 1151 514 1169 q 564 1119 554 1133 q 584 1090 575 1104 q 601 1058 593 1075 q 622 1015 615 1031 q 630 988 628 1000 q 633 962 632 975 q 635 925 633 949 q 638 865 638 885 q 636 828 638 844 q 633 794 635 813 q 628 742 631 776 q 617 700 626 732 q 597 633 608 668 q 576 568 586 597 q 563 533 565 539 q 522 478 549 507 q 471 433 496 449 q 424 407 440 415 q 395 395 408 399 q 366 392 382 392 q 319 393 350 393 q 300 393 304 393 q 294 392 296 393 q 292 390 293 392 q 281 385 290 388 q 260 381 274 382 q 240 379 247 381 q 175 365 197 374 q 140 349 153 356 q 119 338 128 342 q 96 342 111 335 q 98 353 97 351 q 99 356 99 356 q 102 357 100 356 q 110 369 104 358 q 135 404 122 392 q 161 424 149 417 q 185 435 174 431 q 206 444 197 439 m 297 465 q 331 463 319 464 q 352 461 343 461 q 371 465 361 461 q 400 478 381 469 q 419 488 407 482 q 442 500 431 493 q 464 513 454 507 q 478 525 474 519 q 492 563 483 535 q 509 622 501 590 q 522 684 517 654 q 528 731 528 714 q 527 822 528 782 q 522 897 526 861 q 505 967 517 932 q 471 1047 493 1003 q 460 1069 464 1063 q 446 1085 457 1075 l 415 1121 q 383 1153 397 1139 q 340 1171 369 1168 q 286 1173 310 1175 q 254 1143 263 1171 q 247 1077 247 1122 q 249 980 246 1032 q 257 877 251 928 q 269 794 263 826 q 280 742 276 758 q 285 712 283 725 q 287 682 286 699 q 290 631 288 665 q 290 605 292 615 q 289 584 289 594 q 290 562 289 574 q 296 531 290 550 q 299 499 299 515 q 297 465 299 483 z "},"E":{"ha":565,"x_min":63,"x_max":556,"o":"m 63 1056 q 99 1049 82 1056 q 134 1037 117 1042 q 171 1033 151 1032 q 215 1047 190 1033 q 282 1066 239 1060 q 371 1073 325 1072 q 457 1068 417 1074 q 517 1050 497 1063 q 533 1018 532 1039 q 531 974 533 997 q 527 931 528 940 q 513 914 526 921 q 499 927 504 919 q 489 943 493 935 q 475 972 481 957 q 463 999 469 988 q 448 1019 457 1011 q 424 1028 439 1028 q 388 1026 411 1028 q 339 1021 364 1025 q 293 1008 314 1017 q 265 986 272 1000 q 256 935 258 969 q 255 862 254 901 q 257 783 256 822 q 258 715 258 743 l 353 735 q 376 751 376 742 q 378 782 376 760 q 383 816 378 811 q 397 816 389 821 q 415 801 406 811 q 432 790 424 792 q 424 778 419 782 q 431 760 428 774 q 433 745 432 754 q 435 728 433 736 q 435 651 439 679 q 433 611 432 622 q 436 574 436 589 q 419 544 436 560 q 409 549 411 547 q 406 552 407 550 q 403 558 404 554 q 397 569 403 563 l 383 586 q 385 590 383 592 q 389 592 388 588 q 390 613 390 596 q 383 674 389 629 l 264 643 q 264 571 264 622 q 266 463 264 519 q 271 360 268 407 q 281 300 274 313 q 329 292 299 290 q 383 294 360 293 q 436 290 415 294 q 488 288 457 286 l 519 371 q 526 382 525 381 q 544 383 528 383 q 546 372 544 382 q 548 350 547 363 q 549 326 549 338 q 550 308 550 314 q 553 269 550 290 q 544 236 556 249 q 513 225 535 222 q 474 229 492 228 q 437 228 453 231 q 404 222 421 225 q 367 215 388 218 q 315 214 346 213 q 277 222 290 215 q 244 231 264 228 q 189 228 210 233 q 153 218 168 224 q 128 209 139 213 q 104 213 118 206 q 121 233 113 226 q 136 247 129 240 q 150 263 143 253 q 164 290 157 272 q 183 394 181 340 q 182 499 185 447 q 174 598 179 551 q 172 678 169 644 q 172 747 175 714 q 164 811 169 779 q 160 835 161 828 q 160 847 160 842 q 160 860 160 853 q 160 885 161 868 q 149 940 158 915 q 125 985 139 965 q 105 1006 115 997 q 85 1021 94 1014 q 70 1036 76 1028 q 63 1056 64 1044 z "},"F":{"ha":518,"x_min":63,"x_max":524,"o":"m 63 1197 q 83 1204 76 1203 q 97 1203 90 1206 q 110 1198 103 1201 q 133 1193 118 1194 q 178 1188 150 1192 q 221 1186 207 1185 q 242 1188 232 1186 q 263 1190 253 1190 l 392 1190 q 457 1197 429 1192 q 500 1197 485 1203 q 519 1163 515 1190 q 515 1069 524 1136 q 508 1031 513 1046 q 481 1013 504 1015 q 474 1034 478 1017 q 465 1072 469 1051 q 456 1110 460 1093 q 449 1129 451 1126 q 417 1133 444 1133 q 358 1131 390 1133 q 297 1127 326 1129 q 258 1124 268 1125 q 245 1069 247 1104 q 244 990 243 1033 q 248 899 246 946 q 246 808 250 851 l 335 810 q 330 847 333 829 q 327 874 326 864 q 335 888 328 885 q 361 883 342 892 q 381 763 374 826 q 385 746 382 754 q 392 727 389 738 q 394 704 394 717 q 389 676 394 692 l 379 663 q 366 671 369 668 q 362 677 363 674 q 361 686 361 681 q 358 704 361 692 q 351 725 356 713 q 340 746 346 738 l 256 726 q 258 692 256 707 q 263 660 260 678 q 266 627 265 642 q 269 594 267 613 q 283 537 274 563 q 289 483 292 511 q 283 453 288 464 q 279 425 278 442 q 289 372 282 389 q 304 347 296 354 q 322 338 313 339 q 338 333 331 336 q 349 319 346 329 q 350 288 353 310 q 312 290 331 286 q 276 299 293 294 q 244 306 258 303 q 217 307 229 308 q 188 297 200 304 q 158 286 175 289 q 116 290 122 283 q 107 301 110 297 q 123 319 113 313 q 145 331 133 325 q 166 347 157 338 q 178 371 175 356 q 176 431 183 401 q 165 489 168 461 q 160 618 158 554 q 160 747 163 682 q 157 881 157 814 q 151 1011 157 947 q 147 1045 149 1031 q 142 1079 144 1060 q 133 1122 140 1101 q 90 1161 126 1142 q 76 1167 82 1165 q 68 1173 71 1169 q 65 1181 65 1176 q 63 1197 64 1186 z "},"G":{"ha":535,"x_min":58,"x_max":529,"o":"m 296 592 l 315 607 q 340 614 329 614 q 368 617 351 614 q 429 636 399 624 q 485 665 460 649 q 499 678 496 674 q 514 685 501 683 q 526 683 524 686 q 528 676 529 681 q 524 667 528 672 q 519 657 521 661 q 504 619 508 628 q 498 611 500 611 q 494 612 496 611 q 489 600 493 613 q 483 533 479 572 q 488 443 488 493 q 474 333 488 393 q 419 208 461 274 q 393 188 408 193 q 358 176 378 182 q 280 165 315 163 q 207 193 244 167 q 174 213 192 203 q 138 238 156 222 q 104 280 119 254 q 82 349 89 306 q 78 394 78 374 q 78 442 78 415 q 74 485 78 465 q 69 531 69 506 q 65 619 71 574 q 64 704 58 665 q 76 769 67 726 q 97 856 85 811 q 120 942 108 901 q 140 1001 132 982 q 170 1055 150 1024 q 217 1114 190 1086 q 277 1159 244 1142 q 343 1169 310 1176 q 376 1156 358 1167 q 404 1138 394 1146 q 414 1128 407 1135 q 428 1113 421 1121 q 441 1097 435 1104 q 447 1088 447 1089 l 456 1031 l 456 1028 q 457 988 456 1000 q 460 970 458 976 q 464 958 463 964 q 465 939 465 953 q 452 930 457 932 q 441 925 447 928 q 426 915 435 922 q 403 893 418 908 q 388 881 392 882 q 372 871 383 881 q 359 858 361 863 q 338 858 357 854 q 342 891 335 878 q 361 918 350 904 l 367 925 q 383 974 379 944 q 382 1032 386 1003 q 367 1085 378 1061 q 341 1118 357 1110 q 306 1115 325 1126 q 267 1060 288 1103 q 255 1031 263 1051 q 240 985 247 1010 q 227 938 233 961 q 218 900 221 914 q 211 860 214 881 q 204 821 208 839 q 201 781 200 799 q 199 739 203 764 q 186 656 192 696 q 185 569 181 615 q 185 526 186 551 q 185 473 185 501 q 188 417 185 444 q 200 365 190 389 q 221 320 210 344 q 253 260 232 296 q 271 233 260 249 q 289 204 282 217 l 340 219 q 379 263 368 229 q 392 339 390 297 q 392 422 394 381 q 389 483 389 463 q 392 510 390 499 q 393 540 394 522 q 390 572 390 565 q 390 577 389 578 q 392 576 390 576 q 396 585 393 575 q 365 580 379 583 q 340 575 351 576 q 318 576 329 574 q 296 592 307 579 z "},"H":{"ha":610,"x_min":61,"x_max":590,"o":"m 435 832 q 438 901 439 867 q 438 971 438 936 q 442 1031 436 999 q 447 1096 447 1064 q 444 1128 447 1117 q 440 1157 442 1140 q 441 1192 439 1172 q 440 1224 443 1213 q 428 1244 438 1235 q 410 1261 419 1253 q 392 1280 400 1269 q 385 1303 385 1290 q 411 1298 403 1301 q 435 1290 419 1294 q 460 1283 442 1288 q 483 1278 478 1279 q 508 1282 496 1278 q 533 1290 521 1286 q 555 1295 544 1294 q 576 1288 565 1296 q 568 1268 574 1271 q 556 1259 563 1265 q 545 1234 550 1253 q 540 1168 540 1215 q 533 1019 539 1093 q 536 874 528 946 q 542 803 539 840 q 549 731 544 765 l 542 297 q 553 258 542 278 q 576 219 565 238 q 582 211 581 213 q 584 209 583 210 q 586 206 585 208 q 590 199 588 204 q 577 191 582 192 q 568 192 572 190 q 559 197 564 194 q 546 200 554 200 q 537 201 544 200 q 520 202 529 201 q 502 203 511 203 q 489 203 493 203 q 464 205 471 203 q 453 208 457 207 q 448 209 450 210 q 438 204 446 208 q 429 196 431 200 q 414 189 428 192 q 392 190 401 186 q 386 213 382 194 q 394 225 389 222 q 404 235 399 228 q 415 259 410 242 q 426 317 421 276 q 431 351 428 329 q 436 396 433 372 q 441 440 439 419 q 442 472 443 461 q 436 527 438 511 q 435 553 435 543 q 435 574 435 563 q 436 619 436 586 q 435 693 435 653 q 436 774 436 733 q 388 773 408 774 q 349 771 368 772 q 311 767 331 769 q 265 758 292 764 l 228 744 q 226 744 226 746 q 224 743 225 743 q 222 714 224 728 q 219 689 221 700 q 220 672 219 676 q 222 667 221 668 q 224 663 222 665 q 228 650 226 660 q 229 594 231 632 q 225 510 228 556 q 220 423 222 465 q 218 354 218 381 q 251 321 232 343 q 275 282 271 299 q 258 265 264 268 q 245 263 251 261 q 229 270 239 265 q 203 276 219 275 q 179 282 185 279 q 156 286 174 285 q 125 283 136 288 q 106 272 114 278 q 91 264 99 267 q 74 267 83 261 q 83 288 74 281 q 103 303 92 296 q 123 321 114 311 q 135 350 132 331 q 135 401 136 364 q 131 480 133 438 q 127 564 129 522 q 125 629 125 606 q 133 690 126 661 q 138 750 140 718 q 131 887 132 821 q 131 1028 131 953 q 131 1092 131 1069 q 126 1125 131 1114 q 113 1141 122 1136 q 83 1153 103 1146 q 68 1160 72 1157 q 63 1169 64 1164 q 62 1181 61 1174 q 63 1203 63 1189 q 119 1205 92 1201 q 172 1201 147 1208 q 203 1197 193 1196 q 222 1201 214 1199 q 240 1205 231 1204 q 265 1197 249 1206 q 255 1177 263 1182 q 236 1158 247 1172 q 211 1112 214 1131 q 213 1076 208 1093 q 224 1038 218 1058 q 226 989 231 1018 q 225 960 224 969 q 228 938 226 950 q 231 876 231 907 q 229 821 232 846 q 281 817 254 817 q 334 820 307 818 q 387 826 361 822 q 435 832 413 829 z "},"I":{"ha":300,"x_min":33,"x_max":289,"o":"m 33 1272 q 56 1276 38 1275 q 98 1278 75 1278 q 142 1278 121 1278 q 175 1279 164 1278 q 238 1286 214 1282 q 289 1278 261 1290 q 272 1260 283 1267 q 250 1235 261 1253 l 222 1183 q 208 1124 211 1163 q 203 1043 204 1086 q 204 960 203 1000 q 207 894 206 919 q 207 821 210 856 q 207 749 204 786 q 211 699 208 713 q 216 676 214 685 q 218 653 218 667 q 215 603 218 639 q 208 481 208 517 q 215 433 208 444 q 233 422 221 422 q 264 407 244 422 q 273 399 274 400 q 269 385 272 399 q 235 381 251 379 q 202 386 218 383 q 170 391 186 389 q 139 388 154 393 q 111 378 122 382 q 86 364 100 375 q 81 359 81 360 q 74 354 81 358 q 54 350 58 346 q 47 361 50 354 q 61 384 53 376 q 79 407 69 392 q 105 460 101 442 q 105 494 108 479 q 98 530 101 510 q 104 589 94 550 q 107 613 106 596 q 108 650 108 631 q 108 688 108 669 q 106 715 107 707 q 106 758 103 746 q 112 776 108 769 q 118 796 115 783 q 119 842 121 808 q 115 883 117 875 q 111 894 113 890 q 111 911 110 899 q 118 968 113 924 q 118 1001 121 986 q 115 1033 115 1015 q 118 1076 117 1047 q 119 1135 119 1104 q 117 1192 119 1167 q 110 1226 115 1218 q 94 1235 106 1231 q 69 1246 82 1240 q 45 1258 56 1251 q 33 1272 35 1264 z "},"i":{"ha":358,"x_min":63,"x_max":311,"o":"m 63 1193 q 101 1201 81 1200 q 141 1202 121 1203 q 180 1201 161 1201 q 215 1203 199 1200 q 239 1208 222 1204 q 272 1212 256 1211 q 300 1208 289 1213 q 307 1188 311 1203 q 303 1174 304 1176 q 301 1172 303 1172 q 297 1172 300 1172 q 285 1165 293 1172 q 269 1142 276 1158 q 257 1106 263 1125 q 247 1066 251 1086 q 242 1032 243 1046 l 235 796 q 233 766 235 775 q 231 753 232 757 q 228 746 229 749 q 226 733 226 743 q 230 658 225 699 q 235 582 235 617 q 238 497 238 538 q 240 411 238 456 q 247 371 242 383 q 258 353 251 358 q 274 344 265 347 q 293 332 283 340 q 303 324 299 328 q 311 315 307 319 q 290 301 304 304 q 259 299 276 299 q 220 301 242 300 q 175 296 199 301 l 156 290 q 129 280 142 285 q 93 282 117 275 q 79 290 81 285 q 83 300 78 294 q 97 310 89 306 q 111 319 104 315 q 131 334 124 326 q 140 357 138 342 q 148 413 146 378 q 151 486 150 449 q 150 559 151 524 q 147 617 149 594 q 145 645 146 628 q 143 681 144 663 q 142 715 142 699 q 142 740 142 732 q 143 797 143 781 q 142 821 143 813 q 140 838 142 829 q 138 872 138 846 q 140 938 138 907 q 143 1001 143 968 q 138 1095 143 1061 q 123 1145 132 1129 q 103 1165 114 1161 q 84 1169 93 1168 q 69 1174 75 1171 q 63 1193 63 1178 z "},"K":{"ha":551,"x_min":63,"x_max":550,"o":"m 351 1201 q 368 1205 353 1203 q 406 1209 383 1207 q 452 1213 428 1211 q 498 1214 476 1214 q 533 1213 519 1214 q 549 1206 547 1211 q 541 1193 550 1199 q 521 1176 532 1188 q 496 1138 504 1156 q 479 1100 488 1121 q 459 1052 471 1079 q 424 983 447 1025 l 382 906 q 358 871 371 886 q 335 835 344 856 q 322 808 325 815 q 315 796 318 800 q 307 785 311 792 q 293 761 303 779 l 326 701 q 328 699 328 699 q 330 695 329 697 q 332 692 331 693 l 354 650 q 376 610 371 622 q 384 588 382 597 q 389 568 386 579 q 401 532 392 557 q 417 494 411 506 q 426 478 424 482 q 430 473 429 474 q 432 467 431 472 q 435 451 433 463 q 443 414 438 440 q 453 363 450 378 q 456 337 456 347 q 454 313 456 326 q 453 268 453 300 q 497 233 479 243 q 526 218 515 222 q 540 210 536 214 q 546 197 544 207 q 533 192 536 190 q 521 188 529 193 q 512 183 513 185 q 500 178 511 181 q 470 177 489 175 q 439 181 451 179 q 403 182 417 181 q 375 185 389 183 q 361 184 367 186 q 350 181 356 182 q 338 179 344 179 q 318 185 331 179 q 335 203 326 194 q 351 217 342 210 q 372 228 361 225 q 368 263 369 243 q 364 297 367 283 q 356 328 361 313 q 347 358 351 343 q 344 394 343 372 q 344 444 344 417 q 341 501 344 471 q 326 561 338 531 q 310 602 317 589 q 299 623 304 615 q 288 638 294 631 q 271 660 281 644 q 263 673 264 669 q 257 683 261 676 q 251 691 253 689 q 249 694 250 693 q 248 696 249 694 q 244 701 247 697 q 235 693 239 694 q 228 676 232 692 l 219 344 q 218 302 219 318 q 219 275 217 286 q 227 256 221 264 q 249 235 233 247 q 272 215 263 222 q 289 190 282 207 q 247 183 264 182 q 203 194 231 183 l 192 199 q 188 200 190 199 q 179 201 185 201 q 152 197 168 201 q 119 188 136 193 q 86 179 101 182 q 63 181 71 176 q 73 199 65 193 q 90 209 81 204 q 107 221 99 214 q 119 243 115 228 l 138 679 q 142 753 142 724 q 136 821 142 782 q 136 858 133 844 q 139 890 139 871 q 136 924 139 910 q 133 958 133 939 q 127 1070 132 1029 q 115 1133 122 1111 q 101 1160 108 1154 q 85 1169 93 1167 q 72 1172 78 1171 q 63 1186 65 1174 q 85 1190 67 1188 q 124 1195 103 1193 q 167 1199 146 1197 q 196 1201 188 1201 q 224 1205 207 1201 q 258 1209 242 1208 q 289 1205 275 1210 q 308 1186 303 1200 q 283 1174 293 1176 q 267 1168 274 1172 q 256 1155 260 1164 q 249 1124 251 1146 q 238 1038 240 1064 q 236 997 235 1013 q 239 963 238 981 q 240 901 240 944 q 238 842 240 874 q 238 788 235 811 q 258 816 244 792 q 287 870 272 840 q 313 928 301 900 q 328 971 325 957 l 360 1074 q 374 1094 367 1088 q 383 1117 381 1101 q 385 1142 386 1126 q 388 1172 385 1158 q 351 1201 361 1179 z "},"g":{"ha":576,"x_min":60,"x_max":567,"o":"m 468 175 q 451 171 456 174 q 444 164 447 168 q 436 153 440 160 q 421 139 432 147 q 399 123 408 128 q 374 107 389 118 q 357 96 361 99 q 349 92 353 93 q 338 90 344 90 q 313 86 331 89 q 266 81 285 82 q 233 85 247 81 q 205 99 218 89 q 174 124 192 108 q 141 155 153 140 q 123 184 129 169 q 113 214 117 199 q 101 249 108 229 q 83 321 88 288 q 76 386 78 354 q 74 451 75 418 q 67 525 72 485 q 62 596 61 560 q 65 669 63 632 q 68 742 67 706 q 65 813 69 778 q 66 885 60 849 q 78 953 72 921 q 82 999 83 981 q 85 1040 81 1018 q 103 1093 89 1063 q 156 1176 118 1124 q 223 1238 183 1217 q 315 1260 263 1260 q 330 1260 326 1260 q 335 1259 333 1260 q 338 1256 336 1258 q 346 1250 339 1254 q 371 1236 358 1242 q 395 1220 383 1231 q 418 1194 407 1210 q 439 1149 429 1178 q 451 1113 449 1124 q 450 1093 453 1101 q 441 1074 447 1085 q 426 1040 435 1064 q 416 1017 419 1024 q 410 1009 413 1011 q 406 1004 408 1007 q 397 992 403 1001 q 383 967 389 976 q 354 963 378 958 q 360 1010 353 981 q 372 1070 368 1039 q 366 1130 375 1101 q 322 1175 357 1158 q 281 1167 300 1186 q 249 1118 263 1147 q 227 1058 236 1089 q 217 1015 218 1028 q 208 959 213 994 q 198 885 203 924 q 191 810 193 846 q 192 757 189 775 q 193 692 197 728 q 192 622 189 657 q 197 592 193 606 q 199 564 200 579 l 194 449 q 196 419 192 436 q 206 386 200 403 q 217 355 213 369 q 222 332 222 340 q 225 297 222 321 q 234 245 228 274 q 250 190 240 217 q 274 147 260 164 q 306 130 288 131 q 350 153 325 129 q 353 156 353 156 q 356 158 353 158 l 382 188 q 400 249 399 217 q 397 313 401 281 q 390 376 393 344 q 396 438 386 408 q 403 473 403 460 q 400 497 403 486 q 395 522 397 508 q 397 556 393 535 q 386 565 390 563 q 375 574 382 567 q 344 594 358 590 q 320 598 331 597 q 302 600 310 599 q 289 613 294 601 q 293 622 293 622 q 303 625 293 621 q 333 635 315 631 q 370 645 351 640 q 406 654 389 650 q 432 661 422 658 q 463 675 444 665 q 499 694 481 685 q 534 709 518 703 q 560 713 550 715 q 557 685 567 693 q 535 663 547 678 q 516 624 521 644 q 507 581 511 603 q 497 493 499 533 q 495 411 496 453 q 491 324 494 369 q 475 224 488 279 q 464 190 469 200 q 468 175 458 181 z "},"k":{"ha":597,"x_min":60,"x_max":669,"o":"m 344 1257 q 349 1271 347 1265 q 352 1279 350 1276 q 359 1284 354 1282 q 375 1288 364 1286 l 489 1297 q 519 1298 511 1299 q 536 1288 526 1297 q 518 1276 525 1276 q 497 1268 511 1276 l 461 1242 l 308 985 q 309 947 300 963 q 325 910 318 931 l 378 757 q 385 733 382 743 q 390 713 388 724 q 394 702 393 704 q 397 692 394 700 l 433 600 q 453 567 442 582 q 471 532 464 551 q 486 485 483 499 q 490 466 489 472 q 497 451 492 460 q 518 419 501 443 q 528 403 524 413 q 538 380 532 393 q 556 349 544 367 q 588 308 568 332 l 643 235 q 650 227 647 229 q 656 224 653 225 q 662 219 658 222 q 669 211 665 217 q 651 194 660 196 q 631 196 642 192 q 607 208 621 200 q 575 224 593 217 l 472 250 q 451 251 461 251 q 429 253 440 251 q 397 264 396 257 q 414 278 399 271 q 448 290 429 285 q 469 297 467 296 q 460 326 468 307 q 444 366 453 346 q 426 404 435 386 q 413 432 417 422 l 300 704 q 292 741 290 724 q 283 781 293 758 q 267 813 272 801 q 256 847 263 824 q 239 822 247 840 q 224 781 231 803 q 212 738 217 758 q 206 707 207 718 q 206 624 203 676 q 212 519 208 572 q 218 423 215 465 q 219 369 221 381 q 223 337 218 349 q 237 317 228 325 q 257 302 246 308 q 279 285 268 296 q 294 269 293 272 q 297 256 296 265 q 279 248 282 249 q 265 263 276 247 q 247 250 256 251 q 229 251 239 249 q 207 256 219 253 q 178 260 194 260 q 124 252 146 260 q 76 249 101 244 q 83 272 76 263 q 98 292 90 282 q 113 311 106 301 q 119 333 119 321 q 117 361 119 346 q 118 394 115 376 q 121 485 124 446 q 110 581 118 525 q 101 669 101 635 q 102 729 100 703 q 106 779 104 756 q 106 836 108 803 l 110 1215 q 95 1228 107 1221 q 74 1243 83 1236 q 63 1256 65 1250 q 76 1265 60 1263 q 89 1265 82 1267 q 152 1260 121 1263 q 219 1260 183 1257 q 244 1261 232 1260 q 265 1256 256 1263 q 263 1243 264 1246 q 258 1240 261 1240 q 249 1239 256 1239 q 233 1233 243 1239 q 215 1213 221 1226 q 208 1183 210 1199 q 209 1149 207 1167 q 211 1115 211 1131 q 209 1080 211 1096 q 205 1044 207 1064 q 203 995 203 1024 q 208 924 203 967 q 220 944 215 933 q 232 965 225 956 q 239 974 235 971 q 246 982 243 978 q 250 990 249 988 q 251 993 251 992 q 251 997 251 994 q 253 1006 251 999 q 262 1026 257 1019 q 272 1040 267 1033 q 284 1054 278 1046 q 299 1079 290 1063 q 322 1124 308 1101 q 348 1166 336 1146 q 369 1205 360 1186 q 381 1240 378 1224 q 364 1249 369 1247 q 344 1257 358 1250 z "},"J":{"ha":506,"x_min":61,"x_max":474,"o":"m 61 1267 q 124 1273 86 1272 q 189 1276 161 1274 q 253 1281 218 1279 q 311 1286 289 1282 q 340 1291 331 1289 q 353 1295 349 1293 q 360 1298 357 1297 q 368 1300 363 1299 q 397 1304 382 1304 q 428 1308 411 1304 q 465 1315 456 1317 q 472 1306 474 1314 q 461 1288 469 1299 q 446 1264 453 1276 q 430 1217 433 1240 q 427 1169 426 1193 q 429 1122 428 1146 q 426 1072 431 1097 q 417 988 418 1026 q 417 911 415 949 q 420 835 418 874 q 422 749 422 796 q 419 688 422 713 q 417 625 417 664 l 417 485 q 417 399 417 449 q 408 303 418 350 q 374 223 399 257 q 299 183 349 189 q 242 177 274 181 q 182 177 211 174 q 130 195 153 181 q 99 243 107 210 q 86 277 93 264 q 75 299 79 290 q 72 318 71 308 q 81 343 72 328 q 99 341 96 343 q 110 328 103 339 q 118 315 114 324 l 150 279 q 177 256 168 264 q 193 244 186 247 q 210 240 200 240 q 242 240 221 240 q 276 247 268 242 q 294 271 285 253 l 311 303 l 308 418 q 310 503 310 456 q 307 588 311 551 q 305 611 306 603 q 305 626 304 619 q 307 641 306 633 q 311 664 308 649 q 310 699 314 683 q 308 739 307 715 q 314 776 310 758 q 319 817 318 794 q 318 840 319 831 q 315 855 317 849 q 310 869 313 861 q 308 889 308 876 q 310 969 306 932 q 311 1051 315 1007 q 311 1136 308 1097 q 313 1215 314 1175 q 276 1214 297 1213 q 232 1217 254 1215 q 190 1220 210 1219 q 158 1215 171 1221 q 149 1210 151 1213 q 145 1207 147 1208 q 139 1205 143 1206 q 125 1207 135 1204 l 94 1219 q 72 1237 81 1226 q 61 1267 63 1247 z "},"j":{"ha":482,"x_min":-10,"x_max":490,"o":"m 11 335 q 24 315 19 326 q 33 290 29 303 q 41 267 38 278 q 51 249 44 256 q 68 239 56 243 q 96 231 81 235 q 126 223 111 226 q 150 218 140 219 q 195 221 175 211 q 231 249 215 231 q 257 293 247 268 q 271 343 267 318 q 277 403 275 374 q 285 463 279 432 q 285 522 290 497 q 285 574 279 546 q 292 655 293 622 q 286 725 292 688 l 289 897 q 287 928 289 918 q 285 947 285 939 q 288 967 285 956 q 297 1000 290 978 q 305 1048 303 1018 q 306 1110 307 1078 q 301 1173 306 1143 q 289 1219 296 1203 q 274 1244 282 1236 q 256 1256 265 1253 q 240 1263 247 1260 q 226 1272 232 1265 q 226 1292 218 1285 q 247 1303 233 1299 q 276 1308 261 1307 q 296 1308 290 1308 q 356 1302 325 1306 q 415 1299 386 1299 q 451 1299 440 1299 q 475 1288 463 1299 q 488 1272 486 1276 q 490 1260 489 1268 q 467 1253 478 1253 q 447 1247 456 1253 q 419 1204 426 1235 q 410 1139 411 1174 q 410 1072 408 1104 q 411 1024 413 1039 q 402 924 407 974 q 401 822 397 875 l 403 728 q 403 665 403 689 q 402 622 403 642 q 400 579 401 601 q 397 521 399 557 q 397 440 396 481 q 386 374 397 400 l 356 286 q 348 267 353 278 q 338 246 343 256 q 291 210 326 226 q 211 188 256 194 q 120 185 167 181 q 43 214 74 190 q 29 228 31 224 q 19 246 28 233 q 6 265 10 260 q -1 277 1 271 q -4 293 -3 283 q -10 325 -6 303 q 0 331 0 331 q 11 335 0 332 z "},"L":{"ha":499,"x_min":42,"x_max":494,"o":"m 85 1307 q 109 1313 94 1313 q 139 1313 124 1314 q 170 1310 154 1311 q 200 1310 186 1308 q 255 1317 226 1313 q 304 1308 283 1321 q 291 1290 300 1296 q 272 1278 282 1283 q 251 1266 261 1272 q 238 1249 242 1260 q 229 1201 231 1233 q 228 1131 228 1168 q 229 1060 228 1094 q 231 1007 231 1025 q 225 943 228 974 q 219 882 222 913 q 213 839 215 849 q 211 825 211 829 q 213 813 211 821 q 217 778 214 806 q 217 709 218 757 q 215 609 215 661 q 214 509 214 557 q 219 440 214 461 q 226 418 222 428 q 231 392 229 408 q 232 363 232 376 q 233 335 232 350 q 285 337 264 332 q 325 344 307 342 q 366 340 344 349 q 415 332 388 332 q 436 360 429 347 q 447 389 443 374 q 456 419 453 407 q 463 437 460 431 q 472 444 467 443 q 489 443 478 444 q 491 426 490 439 q 492 398 492 414 q 494 368 493 382 q 494 349 494 354 q 491 300 494 325 q 481 256 488 275 q 476 254 479 254 q 475 253 476 253 l 472 253 l 468 253 l 428 254 q 403 253 410 253 q 393 254 396 253 q 389 258 390 256 q 379 263 388 260 q 357 265 368 267 q 334 259 346 263 q 307 253 322 256 q 272 250 292 250 q 206 252 228 251 q 170 251 185 253 q 141 246 156 250 q 94 233 126 242 q 53 228 64 225 q 42 241 42 232 q 51 261 43 250 q 68 278 60 272 q 84 284 82 286 q 99 288 86 282 q 110 293 107 290 q 122 299 114 296 q 120 421 118 363 q 129 542 122 479 q 134 617 133 574 q 135 706 135 661 q 134 795 135 751 q 133 871 133 839 l 140 1118 q 136 1146 139 1133 q 132 1176 133 1158 q 131 1227 131 1199 q 110 1274 132 1256 q 97 1282 101 1281 q 89 1285 92 1283 q 85 1290 86 1286 q 85 1307 85 1294 z "},"M":{"ha":742,"x_min":43,"x_max":725,"o":"m 383 939 q 396 963 389 947 q 410 996 403 978 q 422 1031 417 1014 q 429 1057 426 1047 q 453 1144 439 1103 q 500 1219 468 1185 l 506 1225 q 527 1253 522 1240 q 535 1276 532 1265 q 546 1299 538 1288 q 578 1324 554 1310 q 601 1337 593 1332 q 626 1332 608 1342 q 622 1316 624 1319 q 619 1312 621 1313 q 613 1310 617 1311 q 603 1300 610 1308 q 605 1239 610 1275 q 600 1171 600 1203 q 603 1138 600 1151 q 606 1108 606 1125 q 604 1076 607 1089 q 601 1047 601 1064 l 628 763 q 634 715 635 740 q 631 665 633 689 q 631 635 631 658 q 633 586 632 613 q 635 535 633 560 q 636 503 636 511 q 635 485 636 492 q 634 474 635 479 q 633 463 633 469 q 635 443 633 456 q 640 382 639 404 q 648 342 642 360 q 672 306 654 324 q 725 260 689 289 l 717 242 q 714 231 714 236 q 713 222 714 226 q 686 224 692 221 q 679 229 681 226 q 673 235 678 232 q 647 238 668 238 q 616 240 626 238 q 596 244 606 243 q 572 244 586 246 q 531 231 558 242 q 503 226 510 222 q 488 244 497 229 q 508 263 497 256 q 528 285 519 271 q 542 326 538 300 q 543 399 547 351 q 538 485 540 425 q 534 622 536 546 q 529 778 532 697 q 524 931 526 860 q 517 1053 521 1001 q 511 1117 514 1104 l 451 936 q 442 915 447 925 q 433 893 438 904 q 424 841 428 875 q 397 774 419 807 q 383 760 389 761 q 375 762 378 758 q 370 770 372 765 q 368 775 368 775 l 297 944 q 285 967 290 961 q 278 976 281 974 q 272 978 275 978 q 265 986 269 979 q 262 992 263 990 q 260 999 261 994 q 256 1010 260 1003 q 243 1031 253 1017 l 217 1076 q 202 1099 207 1092 q 186 1114 197 1107 q 183 1066 179 1093 q 185 1013 188 1039 q 177 929 178 956 q 178 888 176 903 q 185 857 181 872 q 190 808 189 842 q 194 779 192 783 q 199 772 197 775 q 201 758 201 769 q 194 707 200 746 l 194 485 q 215 410 199 438 q 246 368 231 383 q 270 344 261 353 q 269 326 279 336 q 244 324 254 317 q 217 336 235 332 q 162 343 183 343 q 126 339 140 343 q 99 329 111 335 q 71 322 88 324 q 64 321 64 321 q 57 322 64 321 q 50 324 49 324 q 44 326 51 324 q 49 341 43 333 q 63 359 56 349 q 78 383 71 369 q 88 415 86 397 q 89 481 90 444 q 90 550 88 518 q 101 682 97 621 q 104 814 104 743 q 103 949 103 879 q 97 1082 104 1018 q 94 1165 93 1135 q 93 1218 96 1194 q 84 1251 92 1240 q 68 1269 76 1263 q 53 1283 60 1276 q 49 1304 47 1290 q 90 1294 68 1304 q 140 1283 113 1285 q 142 1279 143 1279 q 140 1281 142 1279 q 139 1282 139 1282 q 143 1278 139 1282 q 155 1267 149 1271 q 169 1258 161 1264 q 187 1244 176 1253 q 211 1217 197 1235 q 244 1172 224 1200 q 271 1125 264 1144 q 287 1083 282 1094 q 296 1065 292 1071 q 306 1054 300 1060 q 326 1031 313 1049 q 339 1009 332 1022 q 353 982 346 996 q 369 956 361 968 q 383 939 376 944 z "},"N":{"ha":717,"x_min":61,"x_max":701,"o":"m 535 708 q 540 786 538 749 q 544 860 543 824 q 545 937 546 897 q 539 1021 544 976 q 536 1069 536 1043 q 535 1119 536 1094 q 533 1166 535 1143 q 522 1207 531 1189 q 510 1224 515 1222 q 489 1232 504 1225 q 464 1251 474 1239 q 454 1273 454 1264 q 467 1283 454 1282 q 510 1269 481 1285 q 557 1257 528 1260 q 615 1253 586 1254 q 669 1249 644 1251 q 701 1242 693 1247 q 692 1226 699 1229 q 678 1222 686 1222 q 660 1219 669 1221 q 643 1208 650 1218 q 634 1181 639 1203 q 625 1133 629 1160 q 617 1084 621 1107 q 614 1054 614 1061 l 617 672 q 622 643 618 653 q 624 610 625 633 q 619 576 622 592 q 617 544 615 561 q 618 512 618 531 q 617 474 618 493 q 614 435 615 454 q 611 403 613 417 q 607 342 608 372 q 606 289 606 311 q 605 235 606 256 q 601 203 604 215 q 591 187 599 192 q 567 182 583 182 q 563 194 564 189 q 557 206 561 199 q 547 217 550 215 q 542 220 544 219 q 536 223 539 221 q 528 233 533 225 l 513 268 q 502 293 506 283 q 492 318 499 303 q 482 342 485 333 q 474 367 479 351 q 462 391 468 381 q 449 411 456 401 q 437 433 443 421 q 425 461 431 444 q 415 486 418 483 q 410 489 413 489 q 403 495 408 489 q 388 531 399 501 q 358 607 368 583 q 339 646 347 631 q 319 679 331 661 q 285 739 307 697 q 262 783 271 763 q 242 833 253 804 q 232 857 236 846 q 219 882 228 868 q 207 901 215 889 q 196 921 199 914 q 193 857 194 878 q 192 819 192 836 q 192 778 192 801 q 196 708 193 756 q 198 654 197 678 q 199 610 199 631 q 201 567 200 589 q 204 518 201 546 q 216 428 208 472 q 226 335 224 383 q 239 268 228 289 q 263 237 250 247 q 285 219 275 226 q 293 190 294 211 q 275 186 288 188 q 248 185 263 185 q 218 184 233 185 q 192 181 203 183 q 135 170 163 174 q 75 171 107 167 q 76 185 76 181 q 76 192 76 189 q 78 198 76 196 q 85 206 81 200 q 99 217 90 213 q 117 226 108 221 q 131 240 125 232 q 136 261 136 247 q 134 277 136 265 q 130 307 132 289 q 126 347 128 325 q 124 393 124 369 q 122 426 124 407 q 119 463 121 444 q 116 499 117 482 q 118 526 115 515 q 119 570 119 535 q 116 653 118 606 q 111 758 114 701 q 105 863 108 814 q 99 951 101 913 q 94 1001 96 989 q 92 1017 92 1011 q 94 1029 93 1024 q 95 1041 94 1035 q 94 1060 96 1047 q 88 1090 93 1076 q 76 1117 82 1104 q 65 1143 69 1131 q 63 1169 61 1156 q 83 1167 79 1168 q 88 1163 86 1165 q 95 1158 90 1161 q 119 1147 100 1154 q 148 1139 135 1142 q 171 1124 161 1136 q 189 1090 179 1113 q 212 1041 199 1068 q 240 985 225 1014 q 275 936 256 957 q 302 894 289 921 q 327 840 315 868 q 351 787 339 813 q 375 746 363 761 q 389 724 383 735 q 403 701 394 713 q 442 644 425 668 q 473 597 458 621 q 501 544 488 572 q 532 474 515 515 q 530 536 529 506 q 528 599 531 567 q 527 628 526 615 q 529 654 528 642 q 533 679 531 667 q 535 708 535 692 z "},"n":{"ha":633,"x_min":60,"x_max":590,"o":"m 108 279 q 113 293 108 282 q 123 319 118 304 q 132 350 128 333 q 136 381 136 367 q 131 440 133 414 q 129 501 128 465 q 125 563 131 538 q 117 621 119 589 q 115 653 114 638 q 115 686 117 669 q 110 715 113 701 q 104 744 107 729 q 104 778 103 761 q 106 811 106 794 q 102 856 104 831 q 98 908 100 882 q 95 959 96 935 q 97 1001 94 983 q 99 1031 99 1010 q 99 1078 100 1053 q 96 1126 99 1103 q 89 1158 93 1149 q 83 1169 85 1167 q 81 1172 82 1172 q 79 1172 81 1172 q 75 1176 78 1172 q 68 1183 69 1182 q 67 1185 67 1185 q 67 1186 67 1185 q 67 1194 68 1188 l 60 1215 q 82 1217 76 1218 q 99 1210 88 1217 q 128 1195 117 1199 q 147 1188 139 1192 q 160 1177 154 1185 q 178 1149 167 1169 q 189 1122 186 1132 q 194 1103 192 1111 q 202 1087 197 1094 q 218 1069 207 1079 q 231 1051 224 1065 q 246 1016 238 1036 q 263 974 254 996 q 283 933 272 953 l 344 808 q 353 795 350 800 q 358 781 356 790 l 361 781 l 368 781 q 369 782 371 781 q 372 781 368 783 q 369 768 369 774 q 378 747 368 763 q 403 699 396 714 q 413 674 410 683 q 419 656 417 665 q 432 625 422 646 q 438 614 435 621 q 446 597 442 607 q 456 566 454 578 q 474 542 458 554 q 469 576 471 554 q 465 624 467 599 q 463 674 464 649 q 463 718 463 699 q 464 785 463 758 q 467 831 465 811 q 471 871 469 851 q 472 917 472 890 q 467 980 471 943 q 456 1074 464 1017 q 447 1116 451 1097 q 438 1153 443 1135 q 428 1176 433 1168 q 418 1188 422 1183 q 410 1199 414 1193 q 406 1215 407 1204 l 499 1199 q 535 1190 526 1192 q 547 1189 543 1189 q 557 1190 550 1189 q 590 1189 564 1190 q 581 1169 589 1178 q 565 1150 574 1161 q 542 1106 544 1124 q 547 1057 540 1088 q 551 1030 550 1046 q 551 999 551 1014 q 549 965 551 976 q 544 936 546 954 q 545 905 543 921 q 547 874 547 889 q 553 638 547 758 q 557 408 560 517 q 560 351 556 376 q 551 300 564 325 q 524 301 529 296 q 511 326 519 307 q 503 345 506 342 q 497 349 500 349 q 491 349 494 349 q 481 358 488 350 q 472 382 474 369 q 465 406 471 394 l 451 422 q 435 456 440 439 q 422 492 429 472 l 383 578 q 371 597 378 589 q 360 615 364 606 q 351 640 354 626 q 342 665 347 654 q 333 689 336 679 q 325 710 331 699 q 304 753 315 733 q 282 792 293 772 q 272 817 274 807 q 263 840 269 828 l 242 881 q 220 920 233 899 q 194 956 207 942 q 197 908 193 931 q 203 858 200 886 q 199 808 204 826 q 194 765 194 789 q 200 669 196 721 q 208 574 204 618 l 226 439 q 222 429 226 436 q 218 410 218 422 q 227 379 218 397 q 263 336 236 361 q 276 326 271 329 q 286 322 282 324 q 292 318 290 321 q 292 308 293 315 l 289 288 q 269 280 276 281 q 259 281 263 279 q 254 287 256 283 q 250 292 253 290 q 213 297 233 301 q 174 286 193 293 q 138 275 154 279 q 108 279 121 271 z "},"O":{"ha":531,"x_min":65,"x_max":469,"o":"m 211 1204 q 252 1209 232 1211 q 294 1199 272 1207 q 378 1134 354 1176 q 415 1040 401 1092 q 426 1004 421 1018 q 435 967 431 990 l 465 721 q 469 647 468 694 q 467 549 469 600 q 461 451 465 497 q 450 379 457 404 q 424 311 440 343 q 396 246 408 279 q 391 226 393 238 q 386 208 389 215 l 367 182 q 322 154 346 158 q 277 155 297 150 q 243 167 257 160 q 229 175 229 175 q 213 176 215 179 q 197 181 211 174 q 159 227 176 190 q 128 304 142 264 q 106 378 114 344 q 99 418 99 413 q 97 447 100 436 q 92 474 94 458 q 78 548 85 521 q 69 597 72 575 q 65 644 65 619 q 71 711 65 669 q 72 751 74 735 q 71 794 71 767 q 74 884 71 840 q 81 965 78 928 q 83 984 81 972 q 85 1003 85 996 q 91 1057 88 1029 q 113 1115 94 1085 l 176 1192 q 192 1199 188 1199 q 211 1204 197 1200 m 293 192 l 339 304 q 350 373 346 335 q 358 444 354 411 l 364 642 q 361 678 361 668 q 363 691 361 688 q 365 694 364 694 q 369 703 367 694 q 370 731 372 714 q 363 767 368 749 q 353 802 358 785 q 346 831 349 819 q 339 873 339 857 q 339 903 339 889 q 335 930 339 917 q 318 963 331 943 q 315 972 315 968 q 314 981 314 975 q 312 997 314 988 q 303 1026 310 1007 q 295 1058 299 1036 q 284 1104 292 1081 q 265 1147 276 1128 q 232 1168 253 1165 q 207 1123 217 1153 q 191 1059 197 1093 q 180 991 185 1025 q 171 932 175 957 q 165 900 168 915 q 158 867 161 885 l 219 344 q 218 331 219 335 q 217 324 217 328 q 222 313 218 319 q 236 292 226 306 q 247 265 246 276 q 251 242 249 253 q 262 219 254 231 q 293 192 269 207 z "},"o":{"ha":526,"x_min":61,"x_max":474,"o":"m 296 1260 q 330 1256 322 1264 q 353 1235 338 1249 q 388 1183 371 1219 q 419 1103 406 1146 q 442 1020 433 1060 q 449 960 450 981 q 448 921 447 940 q 453 879 449 901 q 464 798 461 826 q 468 747 467 769 q 469 699 469 724 q 472 631 469 675 q 471 599 474 618 q 468 565 468 581 q 465 533 468 553 q 458 491 463 513 q 450 449 454 469 q 442 417 446 429 q 420 336 426 368 q 389 285 414 304 l 350 251 q 331 243 344 247 q 302 235 317 239 q 276 231 288 232 q 264 229 264 229 q 221 242 247 231 q 179 264 194 253 q 173 267 176 267 q 167 271 169 268 q 125 340 142 289 q 99 450 108 390 q 84 565 89 510 q 78 649 79 621 q 72 684 76 671 q 65 716 68 697 q 63 766 61 735 q 72 856 64 797 q 76 877 74 868 q 79 894 78 886 q 81 913 81 903 q 82 939 82 922 q 80 1008 82 979 q 96 1065 78 1038 l 104 1078 q 126 1106 115 1093 q 144 1135 138 1118 q 153 1156 150 1149 q 159 1168 156 1164 q 167 1177 163 1172 q 181 1193 172 1182 q 210 1227 201 1215 q 228 1245 219 1239 q 251 1253 238 1251 q 296 1260 265 1256 m 322 306 q 357 433 346 358 q 370 585 368 507 q 366 738 372 664 q 349 863 360 811 q 343 924 342 897 q 340 985 344 950 l 314 1144 q 301 1162 310 1156 q 285 1182 292 1168 q 242 1180 253 1181 q 228 1168 232 1179 q 219 1130 224 1157 q 197 1050 215 1103 q 191 1035 193 1039 q 188 1027 189 1031 q 185 1016 186 1024 q 182 990 183 1008 q 175 938 178 960 q 170 896 172 917 q 167 852 168 875 q 167 799 167 829 q 170 765 168 778 q 169 736 172 753 q 168 646 165 696 q 178 544 171 596 q 197 443 186 492 q 221 357 208 394 q 235 327 228 338 q 254 312 243 317 q 281 306 265 307 q 322 306 297 306 z "},"Q":{"ha":646,"x_min":61,"x_max":615,"o":"m 400 244 q 369 243 378 246 q 353 239 361 240 q 333 240 346 238 q 290 254 319 242 q 274 258 282 257 q 257 263 267 260 q 233 274 249 264 q 201 296 218 283 q 171 319 185 308 q 151 338 157 331 q 115 401 129 365 q 92 475 101 438 q 78 550 83 513 q 68 617 72 588 q 63 661 64 646 q 63 688 61 676 q 67 713 64 700 q 74 753 71 726 q 83 831 79 797 q 95 896 88 865 q 117 958 103 926 q 157 1032 131 990 q 174 1058 164 1043 q 196 1086 185 1072 q 219 1112 207 1100 q 242 1129 231 1124 q 272 1135 253 1133 q 313 1138 292 1138 q 355 1135 335 1138 q 388 1126 375 1132 q 494 1054 444 1101 q 571 946 543 1007 q 590 880 586 913 q 601 807 594 847 q 613 720 611 751 q 613 663 615 689 q 603 608 610 638 q 592 526 597 579 q 556 396 583 451 q 475 293 529 340 q 484 274 479 286 q 494 246 489 261 q 504 217 500 231 q 511 194 508 203 q 511 138 517 171 q 503 78 506 106 q 451 83 461 67 q 435 140 440 100 q 422 195 432 164 q 400 244 411 226 m 369 326 q 356 361 360 353 q 351 371 353 369 q 347 372 349 372 q 342 383 346 372 q 330 440 332 403 q 333 509 328 476 q 352 559 339 542 q 386 558 365 576 q 397 534 394 551 q 403 494 400 517 q 413 446 407 471 q 431 400 418 421 l 443 381 q 451 430 450 407 q 460 478 453 453 q 481 558 472 531 q 494 608 490 585 q 497 663 499 632 q 485 751 494 693 q 465 848 476 804 q 425 929 453 892 q 402 966 410 950 q 388 994 394 982 q 375 1016 382 1007 q 356 1032 368 1025 q 336 1042 342 1039 q 319 1050 331 1044 q 299 1038 310 1043 q 279 1024 289 1032 q 255 1000 263 1008 q 243 985 247 992 q 236 968 239 978 q 226 942 233 958 q 217 918 221 928 q 207 893 214 908 q 194 857 200 879 q 185 810 189 835 q 178 763 181 786 q 176 725 175 740 q 185 649 178 693 q 193 578 193 606 q 197 540 193 556 q 204 512 200 525 q 214 485 208 499 q 224 451 219 471 q 230 418 228 429 q 235 399 232 407 q 245 382 239 390 q 267 360 251 374 q 288 338 281 346 q 306 328 296 331 q 329 325 315 325 q 369 326 343 325 z "},"P":{"ha":539,"x_min":50,"x_max":528,"o":"m 50 1281 q 77 1285 58 1286 q 117 1279 96 1283 q 159 1270 138 1275 q 196 1265 181 1265 q 278 1271 236 1265 q 356 1274 319 1276 q 446 1236 410 1269 q 501 1154 482 1203 q 524 1050 521 1106 q 515 946 528 994 q 488 842 499 879 q 460 783 478 804 q 411 747 443 761 q 321 710 379 732 q 283 706 297 701 q 251 707 269 710 q 249 681 249 699 q 251 645 250 664 q 253 608 251 626 q 256 581 256 590 q 256 526 256 560 q 255 456 256 492 q 255 390 254 421 q 258 344 256 358 q 269 318 261 328 q 287 301 278 308 q 304 285 296 293 q 314 267 313 278 q 291 258 307 263 q 256 249 275 253 q 218 240 236 244 q 190 233 200 236 q 162 222 176 229 q 133 210 147 215 q 105 206 118 206 q 82 215 92 206 q 99 235 88 224 q 123 257 111 246 q 144 280 135 268 q 154 301 153 292 q 155 333 156 310 q 153 385 154 356 q 151 449 153 415 q 147 514 149 483 q 142 567 144 544 q 139 597 140 589 q 129 653 131 639 q 128 674 128 667 q 131 691 129 681 q 132 738 133 701 q 131 813 131 774 q 129 882 131 853 q 128 963 126 922 q 128 1043 129 1003 q 124 1079 126 1061 q 119 1115 121 1097 q 118 1155 117 1133 q 117 1192 119 1176 q 113 1208 117 1197 q 107 1224 110 1218 q 97 1235 100 1235 q 83 1242 94 1235 q 81 1244 83 1244 l 74 1253 q 61 1263 65 1261 q 55 1266 57 1265 q 52 1269 53 1267 q 50 1281 51 1271 m 260 1232 q 226 1205 233 1214 q 221 1185 219 1196 q 226 1158 222 1175 q 226 1106 231 1140 q 223 1088 224 1096 q 221 1068 222 1081 q 218 1047 218 1049 q 224 1035 218 1046 q 227 1029 226 1029 q 229 1024 228 1029 l 229 1007 q 232 948 228 983 q 238 888 236 913 q 235 851 238 867 q 232 821 233 835 q 233 794 231 807 q 243 764 235 781 q 252 749 250 751 q 269 743 254 746 q 285 744 275 743 q 307 749 296 746 q 328 755 318 751 q 342 761 338 758 q 352 772 350 768 q 361 783 354 776 q 368 791 365 789 q 373 794 371 793 q 377 799 375 796 q 382 808 379 801 q 399 860 392 831 q 409 922 406 890 q 413 985 413 954 q 411 1040 414 1017 q 401 1113 407 1074 q 383 1183 394 1151 q 356 1220 374 1208 q 318 1236 338 1232 q 282 1238 299 1240 q 260 1232 265 1236 z "},"p":{"ha":531,"x_min":69,"x_max":503,"o":"m 75 1228 q 128 1221 110 1228 q 158 1207 146 1214 q 182 1197 169 1200 q 218 1204 194 1194 q 243 1217 232 1210 q 278 1232 254 1225 q 332 1240 303 1238 q 388 1235 361 1242 q 438 1214 415 1229 q 471 1169 460 1199 q 476 1155 475 1158 q 477 1148 476 1151 q 481 1136 478 1144 q 493 1106 483 1128 q 499 1075 497 1099 q 502 1025 501 1051 q 503 976 503 999 q 503 947 503 953 q 499 924 501 926 q 494 910 497 922 q 494 897 493 903 q 494 880 494 890 q 492 853 494 869 q 481 811 489 836 q 472 791 476 797 q 464 781 468 785 q 455 772 460 776 q 444 758 450 768 q 428 729 433 738 q 410 704 424 721 q 316 654 369 664 q 215 664 263 644 q 212 647 213 661 q 211 617 211 633 q 212 588 211 601 q 213 571 213 574 l 222 439 q 222 417 221 426 q 226 397 224 408 q 231 370 228 386 q 238 328 235 354 l 242 306 q 254 294 247 296 q 267 292 261 293 q 276 290 272 292 q 282 275 281 288 q 258 269 274 269 q 227 269 243 268 q 195 270 211 269 q 168 268 179 271 q 119 256 140 261 q 69 258 97 250 q 81 272 72 267 q 99 287 89 278 q 118 311 110 296 q 129 351 126 326 q 131 408 131 372 q 131 483 132 444 q 128 558 131 522 q 125 615 126 594 q 123 649 122 640 q 124 665 124 657 q 123 687 124 672 q 117 739 122 701 q 116 781 114 756 q 122 832 118 806 q 127 881 125 858 q 129 911 129 903 q 128 924 128 922 q 127 926 128 926 q 125 926 126 925 q 119 938 124 926 q 114 976 113 953 q 118 1027 115 1000 q 123 1081 121 1054 q 122 1132 125 1108 q 116 1161 119 1151 q 100 1182 113 1171 q 78 1199 85 1194 q 75 1228 72 1204 m 253 1179 l 251 1179 q 250 1176 250 1179 q 245 1172 249 1172 q 238 1169 242 1172 q 229 1156 233 1165 q 225 1126 225 1147 q 222 1103 225 1118 q 217 1072 219 1089 q 214 1036 215 1054 q 213 1001 213 1018 q 212 962 214 978 q 207 924 210 946 q 208 884 206 904 q 213 844 211 864 q 213 809 213 826 q 214 768 213 792 q 213 742 214 751 q 211 728 211 733 q 214 722 211 724 q 226 717 217 719 q 256 717 238 714 q 292 727 274 719 q 328 744 311 735 q 356 767 344 754 q 369 797 368 782 q 378 833 371 811 q 391 872 385 856 q 401 903 397 888 q 406 938 404 919 q 406 981 407 956 q 403 1024 404 1006 q 399 1058 401 1042 q 391 1092 396 1075 q 379 1129 386 1108 q 374 1142 376 1139 q 369 1147 372 1146 q 361 1150 367 1149 q 346 1157 356 1151 q 331 1168 342 1160 q 317 1177 322 1175 q 296 1181 311 1179 q 274 1182 288 1182 q 253 1179 260 1182 z "},"q":{"ha":622,"x_min":61,"x_max":654,"o":"m 253 333 q 197 357 218 349 q 161 376 175 365 q 138 404 147 386 q 118 456 128 422 q 104 493 110 482 q 95 514 99 504 q 90 540 92 524 q 88 596 88 557 q 86 617 88 610 q 83 632 85 625 q 81 647 82 639 q 79 668 79 654 q 78 705 79 685 q 74 736 76 725 q 63 804 65 778 q 63 853 61 831 q 68 901 64 876 q 76 964 72 926 q 80 1005 79 986 q 82 1042 81 1024 q 86 1076 83 1060 q 96 1111 89 1093 q 118 1170 107 1136 q 146 1232 129 1204 q 163 1254 153 1242 q 185 1276 174 1267 q 233 1297 204 1290 q 294 1303 263 1303 q 353 1297 325 1303 q 397 1283 381 1292 q 457 1217 435 1264 q 492 1112 479 1169 q 508 996 504 1054 q 513 896 513 938 q 513 859 513 881 q 513 815 513 838 q 515 774 514 793 q 518 744 517 754 q 521 680 522 717 q 513 604 519 643 q 499 528 507 565 q 482 461 490 490 q 465 416 474 432 q 449 390 457 400 q 433 374 440 381 q 418 357 425 367 l 447 343 q 481 333 464 339 q 517 325 499 328 q 556 325 536 322 q 596 342 575 328 q 645 356 636 365 q 643 321 654 346 q 617 281 635 304 q 583 246 599 257 q 551 235 571 236 q 513 237 532 233 q 474 246 493 240 q 443 256 456 251 q 417 266 436 258 q 376 281 397 274 q 337 294 356 289 q 313 297 318 299 q 299 287 308 296 q 278 266 289 278 q 259 243 268 254 q 249 228 250 232 q 244 213 242 215 q 244 203 246 210 l 207 188 q 197 195 196 194 q 186 201 197 196 q 166 208 172 208 q 144 222 160 208 l 131 239 q 140 245 138 246 q 149 250 142 244 q 166 265 158 257 q 185 284 174 274 q 212 306 196 294 q 253 333 228 318 m 301 1228 q 292 1226 296 1225 q 285 1225 289 1226 q 277 1217 282 1224 q 264 1197 272 1211 l 222 1124 q 207 1074 210 1096 q 204 1033 204 1053 q 206 992 204 1013 q 204 947 207 972 q 202 890 200 918 q 206 832 204 861 q 210 773 208 803 q 207 710 211 743 q 202 654 203 668 q 203 634 201 640 q 207 620 204 628 q 213 586 210 613 q 218 527 214 557 q 233 472 222 497 q 263 431 243 447 q 315 414 282 415 q 341 416 332 414 q 356 422 350 418 q 367 433 361 426 q 381 449 372 440 q 392 458 390 457 q 400 467 394 458 q 411 512 406 478 q 420 585 417 546 q 426 661 424 625 q 428 710 428 697 q 426 739 428 726 q 426 771 425 751 q 431 798 428 786 q 435 825 433 810 q 433 855 436 840 q 431 886 429 869 q 426 961 431 913 q 411 1061 421 1010 q 386 1156 401 1113 q 350 1215 371 1199 q 325 1232 335 1228 q 310 1235 315 1236 q 301 1228 304 1233 z "},"R":{"ha":693,"x_min":65,"x_max":715,"o":"m 72 319 q 72 331 72 328 q 72 333 71 333 q 76 333 72 333 q 88 338 79 333 q 101 343 92 339 q 113 350 110 347 q 123 383 119 357 q 128 440 126 410 q 128 499 129 471 q 125 535 126 526 q 119 602 121 571 q 119 663 118 633 q 122 724 121 693 q 124 790 124 754 l 111 1174 q 103 1199 111 1190 q 88 1217 96 1208 q 72 1235 79 1225 q 65 1261 65 1244 q 101 1259 86 1261 q 130 1253 117 1257 q 157 1248 143 1250 q 190 1246 171 1246 q 279 1251 243 1246 q 345 1250 315 1256 q 403 1221 375 1244 q 469 1142 432 1197 q 501 1059 499 1097 q 494 988 504 1021 q 469 929 485 956 q 443 883 453 903 q 423 843 431 858 q 407 817 415 828 q 388 794 399 806 q 361 764 378 782 q 388 697 371 732 q 419 626 406 663 q 432 589 428 606 q 444 553 436 572 q 457 526 449 542 q 475 494 465 511 q 494 463 485 478 q 506 438 503 447 q 518 402 514 414 q 528 380 522 390 q 546 356 535 369 q 579 315 557 342 q 617 291 597 294 q 655 292 636 288 q 689 301 674 296 q 714 306 704 307 l 715 293 q 703 260 714 275 q 676 234 692 246 q 644 213 661 222 q 613 196 626 204 q 610 195 611 196 q 608 194 610 194 q 560 192 588 183 q 540 206 549 196 q 521 225 532 217 q 487 262 510 233 q 440 324 464 290 q 395 387 415 357 q 369 426 375 417 l 340 538 q 328 599 333 581 q 317 629 322 618 q 308 653 313 640 q 294 699 303 667 q 274 744 286 732 q 222 747 263 757 q 217 669 217 707 q 218 599 217 631 q 221 545 219 568 q 219 514 222 522 q 217 494 218 508 q 217 464 217 481 q 219 431 218 447 q 225 407 221 415 q 237 388 228 401 q 253 367 246 374 q 264 355 260 358 q 272 350 268 351 q 278 345 275 349 q 285 333 281 342 q 238 323 251 324 q 217 324 224 322 q 203 328 210 326 q 176 328 197 331 q 152 323 167 326 q 122 317 138 319 q 92 314 106 314 q 72 319 79 314 m 226 779 q 235 783 233 782 q 236 783 236 783 q 236 783 236 783 q 240 786 236 783 q 265 798 250 790 q 293 814 279 806 q 319 831 307 822 q 336 846 331 839 q 351 876 346 857 q 360 910 356 894 q 370 945 365 932 q 376 988 375 958 q 379 1028 378 1006 q 380 1071 381 1050 q 375 1110 379 1092 q 361 1143 371 1129 q 334 1170 347 1161 q 305 1183 321 1179 q 269 1185 289 1186 q 221 1183 249 1185 q 211 1140 213 1161 q 211 1095 210 1118 q 215 1047 213 1072 q 215 988 217 1021 q 215 952 215 981 q 215 890 214 924 q 217 828 215 857 q 221 790 218 799 q 224 783 224 783 q 226 779 224 783 z "},"S":{"ha":461,"x_min":54,"x_max":418,"o":"m 218 240 q 244 240 232 238 q 267 244 256 242 q 285 251 283 250 q 292 271 288 253 q 294 283 293 279 q 297 291 296 288 q 299 299 297 294 q 304 310 300 303 q 315 358 315 331 q 310 413 315 385 q 295 468 304 442 q 281 515 286 494 q 266 560 272 546 q 252 583 260 574 q 235 603 244 592 q 210 640 225 615 q 189 669 199 657 q 168 697 179 682 q 149 727 158 713 q 129 757 140 742 q 115 778 118 772 q 110 790 113 785 q 105 802 108 796 q 92 824 101 808 q 76 857 81 839 q 67 896 71 875 q 56 987 54 951 q 67 1046 57 1022 q 91 1087 76 1069 q 118 1124 106 1104 q 129 1142 126 1135 q 136 1153 132 1149 q 149 1160 140 1157 q 174 1165 157 1163 q 260 1169 218 1172 q 342 1151 303 1167 q 344 1108 342 1138 q 344 1048 346 1079 q 337 992 343 1017 q 313 961 331 967 q 304 968 306 967 q 303 971 303 969 q 303 974 303 972 q 299 983 303 976 q 292 992 294 990 q 289 993 290 993 q 287 994 288 993 q 282 1003 286 996 q 275 1031 278 1013 q 269 1063 272 1049 q 241 1115 261 1089 q 206 1146 221 1140 q 178 1141 194 1149 q 157 1126 161 1133 q 153 1117 156 1125 q 149 1099 151 1108 q 144 1081 146 1090 q 140 1068 142 1072 q 140 1036 138 1056 q 147 997 142 1017 q 158 958 151 976 q 168 928 164 939 q 193 874 181 899 q 219 826 206 849 q 247 783 232 804 q 283 738 263 761 l 336 654 q 349 628 343 636 q 358 617 354 621 q 364 608 361 613 q 370 592 367 604 q 379 559 374 581 q 393 499 385 538 q 409 435 400 465 q 414 374 418 404 q 406 345 411 357 q 396 319 401 333 q 373 277 385 294 q 338 246 361 260 q 254 217 294 222 q 164 232 214 213 q 115 265 128 246 q 89 303 103 285 q 72 351 74 322 q 79 406 69 381 q 90 431 82 415 q 103 454 97 447 q 119 472 110 465 q 144 476 129 478 q 139 445 139 464 q 142 408 139 426 q 151 371 146 389 q 158 340 156 353 q 174 298 165 313 q 190 275 182 283 q 206 260 199 267 q 218 240 214 253 z "},"T":{"ha":608,"x_min":-11,"x_max":614,"o":"m -4 1251 q 8 1249 4 1250 q 14 1246 11 1247 q 23 1244 17 1244 q 43 1244 29 1243 q 111 1251 86 1250 q 152 1251 136 1253 q 181 1249 168 1250 q 215 1250 194 1247 q 269 1253 246 1254 q 316 1251 293 1253 q 367 1249 339 1250 q 436 1250 394 1247 q 499 1251 467 1253 q 558 1253 531 1250 q 592 1256 579 1254 q 610 1247 606 1258 q 610 1202 614 1235 q 597 1101 607 1169 q 597 1072 594 1085 q 597 1047 599 1060 q 584 1022 594 1024 q 569 1021 574 1021 q 567 1032 567 1031 q 567 1044 568 1033 q 567 1054 567 1053 q 567 1056 567 1056 q 565 1056 567 1056 q 561 1064 564 1057 q 556 1073 557 1072 q 553 1075 554 1074 q 552 1082 553 1076 q 550 1103 551 1088 q 539 1147 547 1119 q 522 1185 531 1174 l 371 1192 q 368 1131 372 1164 q 367 1067 364 1099 q 369 999 369 1031 q 371 942 369 967 q 378 876 372 910 q 382 814 385 842 q 378 797 381 803 q 376 779 376 792 l 381 704 q 383 670 382 690 q 385 629 385 650 q 384 589 385 608 q 382 556 383 569 q 384 493 379 526 q 392 425 389 460 q 395 372 394 386 q 401 351 396 357 q 421 337 407 344 q 464 304 435 329 q 490 275 475 293 q 507 239 506 257 q 476 235 489 232 q 454 243 464 239 q 433 250 446 246 q 408 258 421 254 q 382 265 394 263 q 361 268 369 268 q 314 264 336 268 q 273 255 292 260 q 240 247 254 250 q 218 244 225 243 q 203 252 201 249 q 217 268 206 256 q 244 302 232 288 q 265 333 257 317 q 275 374 272 350 q 275 436 278 399 q 272 515 272 465 q 270 619 271 564 q 270 725 269 674 q 274 808 271 776 l 257 1185 q 226 1183 253 1185 q 167 1180 199 1182 q 108 1175 135 1178 q 81 1168 82 1172 q 65 1119 68 1139 q 60 1085 61 1099 q 57 1065 60 1071 q 42 1058 54 1058 q 13 1081 19 1058 q 5 1109 6 1096 q 1 1138 4 1122 q -3 1167 -1 1153 q -7 1196 -4 1181 q -10 1216 -10 1210 q -10 1226 -11 1222 q -8 1235 -10 1231 q -4 1251 -7 1240 z "},"U":{"ha":735,"x_min":36,"x_max":707,"o":"m 454 1185 q 475 1198 458 1200 q 508 1193 492 1196 q 563 1192 532 1189 q 622 1197 593 1194 q 674 1201 651 1200 q 707 1196 697 1203 q 701 1182 704 1185 q 691 1178 697 1179 q 676 1175 685 1176 q 656 1164 668 1174 q 626 1126 635 1149 q 614 1076 617 1103 q 613 1022 611 1049 q 614 972 614 994 q 615 894 615 935 q 618 824 615 854 q 616 790 618 808 q 611 753 614 772 q 611 685 608 724 q 617 603 614 646 q 622 517 621 560 q 619 435 624 474 q 600 367 614 397 q 558 319 586 336 q 494 294 528 300 q 427 289 461 288 q 360 299 393 290 q 297 318 326 307 q 201 385 235 340 q 153 496 167 429 l 133 786 q 131 864 135 828 q 126 942 128 900 q 127 983 126 968 q 125 1011 128 999 q 112 1038 122 1024 q 79 1078 101 1053 q 65 1089 71 1086 q 54 1093 60 1092 q 44 1097 49 1094 q 36 1108 40 1100 q 81 1117 46 1113 q 156 1125 115 1122 q 231 1126 196 1128 q 276 1119 265 1125 q 274 1110 275 1113 q 263 1099 274 1108 q 242 1083 251 1092 q 224 1051 226 1069 q 221 1014 222 1033 q 220 1009 219 1010 q 221 1006 221 1008 q 223 960 222 996 q 224 882 224 924 q 226 803 225 840 q 231 754 228 767 q 241 694 238 731 q 246 631 244 657 q 249 564 247 590 q 254 515 250 538 q 269 469 258 492 q 300 415 279 446 q 310 401 307 406 q 316 394 313 397 q 324 387 319 390 q 340 376 329 383 l 357 367 q 390 356 374 357 q 424 358 407 354 q 456 371 440 363 q 483 389 471 379 q 511 449 504 406 q 519 544 518 492 q 521 653 521 597 q 528 749 521 708 q 536 840 536 804 q 533 899 536 875 q 526 944 529 924 q 524 992 522 964 q 524 1110 528 1075 q 510 1158 519 1146 q 485 1172 500 1171 q 454 1185 471 1172 z "},"V":{"ha":604,"x_min":-15,"x_max":626,"o":"m -15 1250 q 17 1260 -4 1257 q 63 1265 39 1264 q 111 1267 88 1267 q 150 1271 135 1268 q 185 1279 172 1274 q 228 1285 199 1285 q 257 1285 238 1285 q 291 1284 276 1286 q 310 1275 306 1282 q 296 1256 315 1268 q 256 1239 279 1243 q 213 1227 232 1235 q 183 1202 193 1219 q 181 1146 172 1185 l 215 994 q 226 960 221 972 q 236 924 232 947 l 306 628 q 315 594 310 615 q 327 551 321 572 q 340 511 333 529 q 351 489 347 493 q 356 535 353 515 q 363 574 358 556 q 372 610 367 592 q 385 653 378 629 q 399 705 394 689 q 405 734 403 721 q 408 765 407 747 q 414 821 410 782 q 424 899 417 851 q 438 998 432 947 q 445 1094 444 1049 q 435 1167 446 1140 q 416 1174 425 1172 q 398 1176 407 1175 q 381 1177 389 1176 q 364 1185 372 1178 q 365 1194 364 1192 q 369 1197 367 1196 q 375 1199 371 1199 q 388 1204 379 1200 q 438 1218 417 1215 q 492 1224 458 1221 q 531 1227 514 1226 q 569 1231 549 1228 q 604 1237 592 1233 q 626 1224 617 1240 q 608 1210 614 1213 q 594 1201 601 1207 q 578 1181 588 1196 q 549 1132 568 1167 q 533 1085 539 1114 q 522 1026 526 1057 q 514 968 518 996 q 506 925 510 940 q 492 866 499 901 q 477 792 485 831 q 463 718 469 754 q 450 660 456 682 q 443 618 447 647 q 435 556 439 589 q 426 492 431 522 q 419 447 422 461 q 391 348 410 403 q 361 246 372 293 q 352 215 356 224 q 322 204 349 206 q 313 235 318 217 q 304 273 308 253 q 296 313 300 293 q 288 346 292 332 q 281 383 283 365 q 274 421 279 401 q 265 453 269 436 q 257 486 261 471 q 240 558 247 521 q 226 632 233 596 l 193 769 q 177 842 182 806 q 160 913 172 878 q 135 973 146 947 q 117 1040 124 999 q 111 1076 114 1057 q 106 1115 108 1096 q 99 1153 103 1135 q 90 1186 96 1172 q 68 1215 83 1206 q 36 1228 53 1224 q 5 1238 19 1233 q -15 1250 -10 1242 z "},"W":{"ha":872,"x_min":-4,"x_max":878,"o":"m 617 1250 q 645 1260 628 1258 q 681 1261 663 1263 q 719 1258 700 1260 q 750 1254 738 1256 q 788 1254 768 1253 q 827 1256 808 1256 q 860 1256 846 1257 q 878 1249 874 1254 q 854 1233 867 1238 q 829 1222 842 1228 q 807 1204 817 1215 q 792 1171 797 1193 q 785 1099 785 1138 q 779 1024 785 1060 q 770 992 776 1007 q 760 960 764 978 q 753 916 754 938 q 746 871 753 894 q 744 865 744 865 q 743 866 743 865 q 743 865 743 867 q 742 856 743 864 q 740 845 740 850 q 740 836 740 840 l 724 701 q 721 685 721 689 q 719 665 721 681 l 682 521 q 676 485 678 501 q 672 454 674 469 q 667 423 669 439 q 658 388 664 407 q 649 335 650 356 q 645 305 647 315 q 635 291 643 294 q 606 290 628 288 l 529 443 q 493 519 514 483 q 456 593 472 554 q 444 616 451 601 q 431 647 438 631 q 417 676 424 663 q 410 696 411 689 q 382 638 389 672 q 363 576 375 604 q 358 567 360 569 q 356 562 357 564 q 352 557 354 560 q 349 547 350 554 l 332 483 q 317 437 326 460 q 301 394 307 414 q 292 363 296 376 q 283 333 289 350 l 263 267 q 262 265 263 265 q 261 263 261 264 q 259 259 260 261 q 257 256 258 257 q 246 238 250 243 q 228 229 242 232 q 207 255 215 236 q 192 296 199 274 q 181 340 186 318 q 172 376 176 363 q 160 426 164 403 l 83 836 q 80 844 81 843 q 79 847 79 844 l 74 858 q 71 891 69 874 q 72 924 72 908 q 68 963 72 943 q 60 1004 64 983 q 53 1047 56 1025 q 51 1089 50 1068 q 37 1092 44 1090 q 24 1097 29 1093 q 15 1103 17 1103 q 15 1104 14 1104 q 16 1106 15 1104 q 14 1113 17 1107 q 2 1129 8 1124 q -4 1150 -4 1135 q 23 1148 11 1151 q 46 1140 35 1144 q 69 1131 57 1135 q 97 1125 81 1126 q 128 1126 110 1125 q 164 1126 146 1126 q 198 1126 182 1126 q 222 1122 214 1125 q 205 1099 218 1103 q 178 1081 192 1094 l 171 1072 q 162 1039 163 1061 q 165 991 161 1017 q 174 942 169 965 q 181 907 179 919 q 183 866 182 888 q 186 829 183 844 q 215 672 201 753 q 247 514 228 590 l 251 521 q 253 524 253 524 q 283 594 272 558 q 306 668 294 631 q 322 711 311 689 q 340 753 332 733 q 354 790 349 774 q 356 818 360 807 q 338 856 347 839 q 322 894 329 872 q 310 933 315 914 q 297 972 306 953 q 287 990 290 986 q 278 1011 283 994 q 264 1047 271 1032 q 238 1074 257 1063 q 219 1082 224 1082 q 208 1093 215 1082 q 232 1100 219 1101 q 264 1099 244 1099 q 301 1104 282 1099 q 338 1115 319 1110 q 375 1120 357 1119 q 408 1110 393 1121 q 401 1095 404 1097 q 392 1092 399 1093 q 375 1085 386 1092 q 343 1058 364 1079 q 357 1017 346 1042 q 376 975 368 992 l 390 942 q 394 932 396 931 q 399 928 393 933 q 414 969 407 938 q 435 1032 421 1001 q 446 1069 444 1056 q 445 1092 447 1082 q 440 1113 443 1103 q 439 1140 438 1124 q 410 1143 419 1142 q 396 1147 400 1144 q 391 1153 392 1150 q 390 1161 390 1157 q 410 1166 396 1165 q 440 1166 424 1167 q 472 1164 456 1165 q 497 1163 488 1163 q 554 1169 525 1164 q 600 1167 583 1174 q 599 1153 600 1157 q 594 1146 597 1149 q 585 1140 590 1143 q 572 1132 579 1138 q 534 1078 550 1113 q 511 1017 518 1044 q 505 992 508 1003 q 499 968 501 981 q 495 956 496 961 q 492 944 494 951 l 457 843 q 452 801 449 815 q 469 761 456 786 q 517 685 492 719 q 561 615 543 651 q 576 576 569 596 q 596 540 583 557 l 597 538 l 599 538 l 600 536 q 607 555 604 543 q 611 576 610 567 q 614 594 614 590 q 613 600 614 599 q 610 603 613 601 q 607 614 608 604 l 643 885 q 654 928 647 914 q 667 965 661 942 q 678 1033 675 999 q 683 1106 681 1068 q 688 1140 685 1126 q 694 1165 692 1153 q 695 1190 696 1176 q 686 1225 694 1203 q 667 1228 678 1226 q 647 1233 657 1231 q 628 1239 636 1235 q 617 1250 619 1243 z "},"w":{"ha":1013,"x_min":14,"x_max":1021,"o":"m 725 1269 l 757 1282 q 775 1283 768 1285 q 789 1278 782 1281 q 826 1274 804 1274 q 870 1274 847 1274 q 917 1276 893 1275 q 961 1274 940 1276 q 992 1271 978 1271 q 1021 1263 1007 1271 q 1011 1252 1015 1254 q 1002 1249 1007 1250 q 988 1246 997 1247 q 963 1238 979 1244 q 928 1217 939 1228 q 912 1194 917 1207 q 905 1168 907 1182 q 897 1138 903 1154 l 863 1010 q 853 961 858 982 q 844 922 849 940 q 836 883 840 903 q 828 839 832 864 q 800 642 813 743 q 772 447 788 540 q 763 399 769 429 q 752 337 757 368 q 745 278 747 306 q 747 239 743 250 q 738 235 736 232 q 731 235 740 239 q 719 229 721 231 q 718 226 718 228 q 716 225 718 225 q 701 224 714 225 q 688 251 693 233 q 677 288 682 268 q 667 329 672 308 q 656 368 663 350 q 639 412 644 397 q 631 438 633 426 q 624 465 628 450 q 611 508 619 479 l 585 607 q 569 656 578 635 q 550 701 560 678 q 529 775 540 728 q 508 869 518 822 q 488 954 497 917 q 475 999 479 992 l 426 794 q 417 740 421 768 q 408 688 413 711 l 367 479 q 361 424 364 454 q 351 372 358 394 l 318 267 q 316 261 315 260 q 314 256 317 263 q 302 228 306 239 q 296 213 299 218 q 287 208 293 208 q 268 207 281 207 q 257 248 264 213 q 242 326 250 283 q 228 410 235 369 q 218 468 221 451 q 196 600 204 535 q 175 732 188 665 l 129 990 q 126 1022 128 1004 q 121 1058 124 1040 q 114 1093 118 1076 q 103 1121 110 1110 q 69 1148 92 1140 q 32 1164 47 1156 q 18 1172 19 1171 q 14 1182 17 1172 l 22 1185 q 79 1188 47 1192 q 139 1182 111 1185 q 224 1180 194 1179 q 263 1161 254 1181 q 242 1155 251 1156 q 218 1153 233 1154 q 214 1081 211 1124 q 224 997 217 1039 q 238 915 231 954 q 246 854 244 876 q 253 786 247 825 q 267 708 258 747 q 285 632 275 668 q 303 572 294 596 q 313 608 310 586 q 319 653 317 629 q 326 703 322 678 q 338 749 329 728 q 374 858 364 813 q 390 940 385 904 q 397 1003 394 975 q 410 1060 400 1031 q 421 1115 418 1083 q 433 1188 424 1147 l 456 1238 q 456 1239 456 1239 q 457 1240 457 1239 q 461 1248 460 1243 q 465 1258 463 1253 q 478 1252 475 1253 q 484 1251 482 1251 q 488 1245 486 1250 q 493 1226 489 1240 q 505 1196 500 1207 q 515 1174 510 1185 q 525 1145 519 1163 q 539 1096 531 1128 q 554 1052 546 1071 q 565 1004 563 1033 q 569 976 567 988 q 575 956 572 965 q 581 936 578 946 q 589 913 585 926 q 598 876 597 888 q 599 853 599 865 q 604 824 600 842 q 622 769 608 807 q 633 733 628 753 q 644 695 639 714 q 654 660 649 676 q 664 635 660 644 q 673 615 669 624 q 681 594 676 607 q 688 576 685 585 q 697 557 690 568 q 706 579 704 569 q 706 598 707 589 q 704 617 706 607 q 706 640 703 628 l 736 788 q 736 795 738 794 q 736 807 735 796 q 742 842 738 825 q 750 872 746 858 q 758 895 754 886 q 763 907 763 904 l 769 971 q 792 1119 786 1064 q 798 1201 799 1174 q 790 1238 797 1229 q 773 1248 783 1246 q 749 1252 763 1250 q 725 1269 736 1254 z "},";":{"ha":390,"x_min":128,"x_max":274,"o":"m 210 447 q 212 458 210 450 q 214 476 214 467 q 211 493 214 485 q 200 506 208 501 q 183 510 192 510 q 164 515 174 511 q 147 528 154 518 q 135 560 139 538 q 132 616 128 593 q 157 664 136 639 q 166 675 165 675 q 181 676 167 675 q 224 672 208 678 q 249 652 240 665 q 261 621 257 639 q 269 581 265 603 q 273 538 274 557 q 269 494 272 518 q 265 469 267 476 q 261 457 264 461 q 253 448 258 453 q 240 432 249 443 q 225 439 231 435 q 210 447 219 443 m 192 1057 q 219 1056 207 1061 q 241 1039 232 1050 q 256 1014 250 1028 q 265 986 263 1000 q 263 965 267 981 q 251 934 258 950 q 235 904 244 918 q 218 889 226 890 q 194 889 207 886 q 171 899 182 892 q 151 914 160 906 q 139 931 143 922 q 135 945 138 933 q 132 960 132 957 q 133 974 132 964 q 138 993 135 983 q 142 1012 140 1003 q 146 1024 144 1021 q 163 1046 153 1040 q 192 1057 172 1051 z "},"x":{"ha":697,"x_min":-19,"x_max":683,"o":"m 354 1314 q 385 1313 367 1317 q 426 1307 404 1308 q 508 1310 471 1307 q 583 1308 546 1313 q 605 1308 596 1307 q 620 1310 614 1310 q 632 1306 626 1310 q 643 1293 638 1303 l 608 1271 q 582 1256 590 1257 q 567 1251 574 1254 q 553 1238 561 1249 q 525 1194 544 1226 l 454 1049 q 440 1006 444 1028 q 425 968 435 985 q 419 956 419 957 q 414 949 418 956 q 402 919 406 931 q 398 901 399 908 q 396 887 397 893 q 390 874 394 881 q 386 867 388 867 q 382 856 385 867 l 376 836 q 366 810 369 819 q 363 792 363 800 q 367 773 363 783 q 381 743 372 763 l 446 592 q 463 551 457 568 q 472 518 468 535 q 482 482 476 501 q 500 433 488 463 q 515 396 507 414 q 532 357 524 378 q 544 324 542 333 q 548 309 546 314 q 553 300 550 304 q 568 285 557 296 q 610 247 599 256 q 625 237 621 238 q 631 238 629 236 q 644 235 633 240 l 683 200 q 661 176 676 176 q 626 176 646 176 l 503 193 q 476 194 483 196 q 456 190 468 192 q 440 190 444 189 q 433 194 435 192 q 428 198 431 196 q 419 201 425 200 q 397 203 408 204 q 374 204 386 203 q 378 215 376 211 q 383 219 381 218 q 389 222 385 221 q 400 226 393 222 q 413 233 410 231 q 425 242 415 235 q 442 266 443 257 q 433 300 440 275 q 417 368 424 336 q 399 435 410 400 q 382 481 394 444 q 355 560 369 518 q 327 639 340 603 q 308 683 314 675 q 301 654 311 672 q 286 625 292 636 q 265 569 271 590 q 253 530 258 549 q 243 489 249 511 q 226 431 238 467 q 216 395 219 411 q 207 363 213 379 q 197 315 197 336 q 219 278 196 293 q 238 265 236 267 q 240 259 240 263 q 246 246 240 256 q 275 210 251 236 q 269 204 269 206 q 267 196 269 203 q 256 202 260 201 q 245 203 251 203 q 228 206 239 204 q 196 217 217 208 q 161 226 181 224 q 124 233 142 228 q 72 238 93 242 q 35 230 50 235 q 7 222 19 225 q -19 231 -6 219 q -8 243 -12 243 q 11 251 -3 243 q 23 259 21 257 q 25 263 25 261 q 24 266 25 264 q 26 274 24 268 q 33 281 31 279 q 37 283 35 282 q 42 287 39 283 q 50 301 44 290 q 56 317 53 310 q 64 335 60 324 l 231 758 q 250 808 244 793 q 254 832 256 822 q 244 853 253 842 q 221 896 236 865 q 163 1042 189 965 q 108 1176 136 1118 q 76 1227 90 1213 q 50 1248 61 1242 q 31 1258 39 1254 q 18 1278 22 1263 q 43 1281 28 1282 q 76 1276 58 1279 q 112 1269 94 1272 q 142 1267 129 1267 q 174 1269 156 1267 q 212 1272 193 1271 q 247 1273 231 1274 q 275 1267 264 1272 q 272 1256 274 1260 q 268 1251 271 1253 q 260 1246 265 1249 q 247 1239 256 1243 q 230 1227 238 1233 q 219 1210 222 1221 q 225 1160 217 1196 q 246 1086 233 1125 q 271 1014 258 1047 q 290 969 283 981 l 304 953 q 321 1003 310 976 q 340 1053 332 1029 q 360 1097 350 1076 q 381 1142 371 1118 q 401 1189 389 1163 q 413 1242 413 1215 q 406 1268 413 1260 q 390 1283 399 1276 q 371 1295 381 1289 q 354 1314 361 1301 z "},"Y":{"ha":606,"x_min":-56,"x_max":653,"o":"m 411 1239 q 383 1266 396 1261 q 360 1273 371 1271 q 342 1282 350 1275 q 331 1314 335 1289 q 359 1313 347 1317 q 386 1308 371 1310 q 445 1313 403 1308 q 567 1315 488 1318 q 581 1315 571 1315 q 601 1315 590 1315 q 620 1315 611 1315 q 632 1315 629 1315 q 648 1303 643 1313 q 638 1282 653 1293 l 589 1253 q 541 1211 561 1238 q 508 1157 521 1185 q 498 1131 501 1140 q 492 1113 494 1121 q 484 1095 489 1104 q 469 1071 479 1086 q 456 1046 461 1056 q 448 1028 451 1036 q 442 1010 444 1019 q 435 988 439 1000 q 410 924 426 964 q 378 840 394 883 q 351 758 363 796 q 338 700 339 719 q 337 582 335 647 q 342 461 339 517 q 344 340 344 400 q 347 224 343 279 q 353 192 349 203 q 365 176 357 182 q 385 167 372 171 q 414 158 397 164 q 438 151 425 154 q 460 144 450 149 q 478 131 471 139 q 488 110 486 124 q 477 106 478 106 q 465 107 476 107 l 400 108 q 349 108 375 107 q 299 107 324 110 q 269 101 294 107 q 215 89 244 94 q 162 81 186 83 q 135 88 138 79 q 132 89 135 86 q 136 101 133 99 q 144 106 139 104 q 160 113 150 108 q 188 131 169 117 q 219 157 210 147 q 229 181 228 167 q 228 217 231 194 q 225 281 225 239 q 226 325 225 307 q 225 369 228 343 q 220 464 222 417 q 219 560 218 511 q 220 583 219 569 q 221 610 221 596 q 220 636 221 624 q 217 657 219 649 q 203 685 214 665 q 188 715 192 706 q 163 765 169 751 q 153 786 157 778 q 147 806 150 794 q 131 850 143 818 l 51 1067 q 48 1080 49 1076 q 47 1085 47 1083 q 47 1090 47 1088 q 44 1101 47 1093 q 22 1140 36 1126 q -6 1163 8 1154 q -33 1176 -19 1171 q -56 1190 -47 1182 q -35 1194 -50 1194 q -1 1194 -19 1194 q 37 1192 18 1193 q 67 1192 56 1192 q 94 1195 78 1193 q 128 1199 111 1197 q 160 1199 144 1200 q 185 1192 175 1197 q 174 1175 183 1179 q 157 1165 165 1171 q 144 1144 149 1158 q 149 1099 140 1131 l 168 1022 q 184 962 178 990 q 203 907 190 933 q 225 855 218 875 q 244 814 232 835 q 245 806 244 813 q 249 807 246 800 l 249 806 q 250 803 250 803 q 263 829 254 810 q 282 874 271 849 q 305 930 293 900 q 328 988 317 960 q 347 1038 339 1015 q 360 1074 356 1061 q 367 1101 365 1089 q 376 1128 369 1113 q 387 1152 381 1138 q 398 1182 393 1167 q 407 1213 403 1197 q 411 1239 411 1228 z "},"y":{"ha":650,"x_min":-96,"x_max":669,"o":"m 372 1381 q 402 1392 382 1390 q 445 1390 422 1393 q 490 1383 468 1388 q 526 1379 513 1379 q 578 1383 554 1379 q 620 1390 601 1388 q 651 1390 639 1392 q 669 1375 664 1388 q 649 1358 664 1365 q 617 1340 635 1350 q 583 1315 600 1329 q 557 1278 567 1300 q 549 1260 551 1268 q 543 1240 547 1251 l 482 1092 q 450 992 464 1031 q 427 926 436 954 q 412 875 418 899 q 403 818 406 851 q 401 735 401 785 q 404 607 401 686 q 409 516 406 558 q 411 421 413 474 q 411 326 410 372 q 419 236 413 279 q 422 215 422 221 q 424 205 422 208 q 428 198 425 201 q 440 185 432 194 q 469 156 457 164 q 488 143 481 147 q 500 135 496 139 q 507 118 504 131 q 472 106 490 108 q 435 103 454 103 q 395 103 415 103 q 354 100 375 104 q 315 94 339 97 q 276 93 292 90 l 217 114 q 237 121 228 118 q 258 129 246 124 q 270 135 267 133 q 276 140 274 138 q 278 147 278 143 q 282 158 279 151 l 307 239 q 308 297 310 251 q 304 399 307 343 q 299 510 301 456 q 299 594 297 565 q 300 622 299 604 q 302 659 301 640 q 303 694 303 678 q 301 718 303 711 l 279 772 q 238 838 260 807 q 194 900 217 869 q 154 966 171 933 q 117 1033 138 999 l 54 1131 q 22 1186 35 1161 q -15 1217 10 1211 q -42 1220 -31 1221 q -62 1221 -53 1219 q -80 1227 -72 1222 q -96 1244 -87 1232 q -94 1247 -93 1247 q -89 1250 -94 1247 l -85 1251 l 56 1256 q 108 1258 90 1256 q 136 1263 126 1261 q 152 1265 146 1265 q 169 1260 158 1265 l 201 1249 q 197 1237 199 1239 q 190 1233 194 1235 q 174 1228 185 1232 q 142 1210 163 1224 q 147 1183 143 1193 q 155 1164 150 1172 q 166 1148 160 1156 q 181 1128 172 1140 q 194 1103 190 1111 q 199 1088 197 1094 q 203 1074 200 1082 q 218 1051 207 1067 q 228 1031 221 1047 q 246 994 235 1015 q 272 951 257 974 q 304 910 286 928 l 319 940 q 340 997 329 965 q 359 1056 350 1028 q 374 1106 368 1085 q 383 1133 381 1128 q 389 1144 388 1143 q 391 1146 390 1146 q 393 1147 392 1146 q 400 1158 394 1147 q 410 1192 407 1172 q 421 1226 414 1213 q 428 1238 425 1235 q 435 1244 432 1240 q 440 1258 438 1249 q 442 1290 442 1268 q 433 1343 443 1329 q 410 1360 424 1357 q 382 1365 396 1364 q 360 1381 368 1367 l 372 1381 z "},"X":{"ha":699,"x_min":14,"x_max":718,"o":"m 357 1314 q 388 1314 368 1318 q 429 1310 407 1310 q 511 1315 474 1311 q 586 1315 549 1318 q 608 1317 599 1315 q 623 1318 617 1318 q 634 1315 629 1318 q 646 1301 639 1311 l 613 1279 q 587 1262 594 1264 q 573 1257 579 1260 q 558 1243 567 1254 q 532 1200 550 1232 l 464 1051 q 451 1009 456 1031 q 438 969 446 988 q 431 958 432 958 q 426 950 431 958 q 416 921 418 932 q 413 902 414 910 q 410 888 411 894 q 406 875 410 882 q 401 868 403 868 q 397 857 400 868 l 392 836 q 383 810 386 819 q 381 792 381 800 q 385 773 381 783 q 399 744 390 763 l 468 594 q 486 555 481 571 q 497 523 492 539 q 508 488 501 507 q 526 439 514 468 q 544 401 536 419 q 561 363 551 383 q 574 331 571 340 q 579 315 578 321 q 584 306 581 310 q 600 292 588 301 q 642 255 631 264 q 658 245 654 246 q 665 247 663 244 q 678 244 667 250 l 718 210 q 695 185 711 186 q 660 185 679 185 l 536 197 q 510 198 517 200 q 490 193 503 196 q 474 193 479 192 q 467 197 469 194 q 463 201 465 199 q 453 204 460 203 q 431 206 442 207 q 408 206 421 204 q 416 221 414 221 q 433 228 418 221 q 445 235 442 232 q 458 244 449 238 q 474 269 475 261 q 465 303 472 278 q 447 370 454 338 q 425 438 439 403 q 408 483 421 446 q 378 561 394 519 q 349 639 363 603 q 329 682 335 675 q 322 653 332 672 q 308 624 313 635 q 288 568 294 589 q 278 528 282 547 q 269 488 274 510 q 254 428 264 465 q 245 392 249 408 q 236 360 242 376 q 228 311 228 333 q 251 275 228 289 q 270 262 268 264 q 273 256 272 260 q 279 243 274 253 q 308 208 285 233 q 303 202 304 203 q 300 193 303 201 q 289 199 293 199 q 278 201 285 200 q 261 203 272 201 q 229 214 250 206 q 194 222 214 219 q 157 228 175 224 q 104 232 125 236 q 67 222 83 228 q 40 213 51 217 q 14 221 28 210 q 25 234 19 233 q 44 243 31 235 q 56 251 53 249 q 58 254 58 253 q 56 258 57 256 q 58 265 56 260 q 65 273 63 272 q 69 275 67 274 q 73 280 71 276 q 81 294 75 283 q 87 309 83 301 q 94 328 90 317 l 249 756 q 267 806 261 792 q 271 830 272 821 q 260 851 269 839 q 236 893 251 863 q 174 1037 201 961 q 115 1171 146 1113 q 81 1219 96 1206 q 55 1240 67 1233 q 35 1249 43 1246 q 22 1268 26 1253 q 47 1272 32 1272 q 81 1269 63 1271 q 116 1264 99 1267 q 146 1261 133 1261 q 178 1264 160 1261 q 215 1269 197 1267 q 250 1271 233 1271 q 279 1265 267 1271 q 272 1248 278 1250 q 251 1236 267 1246 q 235 1224 242 1231 q 225 1206 228 1218 q 231 1157 222 1192 q 254 1084 240 1122 q 282 1013 268 1046 q 303 969 296 979 l 317 953 q 331 1002 321 975 q 351 1053 342 1029 q 369 1098 360 1076 q 389 1143 379 1119 q 407 1190 396 1164 q 417 1243 418 1217 q 408 1269 415 1261 q 392 1283 401 1278 q 374 1295 383 1289 q 357 1314 364 1301 z "},"Z":{"ha":601,"x_min":61,"x_max":571,"o":"m 106 1032 q 93 1089 93 1057 q 96 1151 93 1121 q 99 1208 99 1182 q 86 1249 99 1235 q 72 1265 79 1257 q 63 1277 64 1272 q 70 1285 61 1282 q 104 1288 79 1288 q 129 1287 118 1288 q 154 1286 140 1286 q 238 1290 182 1286 q 356 1294 294 1293 q 469 1294 417 1296 q 543 1282 522 1292 q 528 1236 539 1261 q 508 1189 517 1211 q 492 1142 496 1153 q 490 1128 489 1132 q 492 1120 490 1125 q 488 1090 493 1115 l 447 958 q 441 944 444 951 q 435 928 438 936 q 424 889 428 910 q 406 839 419 868 q 397 820 400 826 q 390 808 393 814 q 385 797 386 803 q 382 781 383 790 l 307 561 q 288 522 293 536 q 281 501 282 508 q 281 488 281 493 q 276 474 281 482 q 271 461 272 461 q 269 463 269 461 q 267 463 268 465 q 263 446 267 461 q 260 430 258 432 q 258 415 261 428 q 251 394 258 413 q 237 353 244 375 q 222 314 229 332 q 214 294 215 296 q 244 290 231 289 q 272 294 257 292 q 316 300 299 300 q 349 301 333 300 q 381 308 365 301 q 421 331 397 314 q 479 384 453 356 q 521 457 506 413 l 531 478 q 555 453 547 467 q 565 426 563 439 q 567 399 568 413 q 567 378 567 386 q 567 345 565 360 q 565 310 568 331 q 567 277 564 289 q 568 260 571 265 q 551 253 565 254 q 500 251 538 251 q 470 249 479 251 q 439 243 461 246 q 389 240 411 242 q 347 234 367 238 q 306 226 326 231 q 260 215 285 221 q 215 206 243 211 q 160 199 188 201 q 108 199 132 197 q 76 211 85 201 q 74 213 75 214 q 74 213 74 213 q 74 216 74 213 q 74 229 74 219 q 74 238 74 236 q 74 240 74 240 q 76 241 75 240 q 78 244 76 242 q 95 287 88 268 q 110 324 103 306 q 122 361 117 342 q 132 406 128 381 l 268 839 q 269 842 269 842 l 336 1024 q 356 1074 344 1043 q 376 1133 367 1104 q 392 1182 386 1161 q 397 1204 399 1203 l 394 1206 q 369 1208 381 1210 q 347 1206 358 1207 q 323 1203 335 1204 q 296 1207 311 1203 q 264 1210 282 1211 q 228 1203 246 1208 q 195 1192 210 1199 q 174 1176 181 1185 l 167 1167 q 151 1137 154 1150 q 142 1101 147 1124 q 131 1055 133 1071 q 128 1033 129 1039 q 122 1028 126 1026 q 106 1032 118 1029 z "},"#":{"ha":1094,"x_min":76,"x_max":1018,"o":"m 875 1278 q 916 1281 894 1279 q 957 1289 938 1283 q 995 1292 979 1296 q 1018 1269 1011 1289 l 999 1258 l 986 1246 q 978 1227 979 1235 q 974 1206 978 1219 q 947 1141 963 1172 q 915 1082 931 1110 q 885 1028 899 1054 q 867 981 872 1003 q 892 982 879 982 q 917 983 904 982 q 935 988 925 985 q 954 992 944 990 q 966 992 964 993 q 975 990 968 992 q 1003 983 993 986 q 1014 974 1013 981 q 1008 955 1015 968 q 989 915 1001 942 q 988 913 988 914 l 974 890 q 969 877 968 879 q 963 864 969 875 l 817 858 q 803 821 810 839 q 789 783 797 803 q 763 730 774 749 q 741 692 751 711 q 722 644 731 672 q 704 563 713 617 q 747 566 725 563 q 787 570 768 569 q 819 569 806 571 q 838 557 832 567 q 838 536 839 543 q 833 524 836 529 q 824 513 829 518 q 815 500 819 508 q 803 470 810 489 q 794 436 797 451 q 751 426 760 429 q 735 424 742 424 q 715 424 729 424 q 657 422 701 424 q 640 385 646 406 q 626 346 633 365 q 607 296 615 313 q 592 270 599 279 q 581 256 586 261 q 571 240 575 251 q 566 221 568 231 q 560 200 564 211 q 553 181 557 189 q 544 164 549 172 q 540 156 542 157 q 535 147 538 154 l 525 131 q 512 122 522 126 q 488 115 501 118 q 458 110 474 111 q 431 114 443 110 q 427 126 426 125 q 426 135 428 126 l 425 142 q 423 155 424 150 q 424 163 422 160 q 427 172 425 167 q 433 188 429 176 l 529 419 q 483 419 510 419 q 430 419 457 419 q 377 417 403 419 q 333 411 351 415 l 257 218 q 251 199 253 207 q 243 179 250 190 q 233 164 238 171 q 224 147 228 157 q 220 131 219 136 q 222 122 221 125 q 222 115 224 118 q 211 108 221 113 q 205 104 201 103 q 203 107 208 106 q 192 109 199 107 q 175 114 185 111 q 132 117 149 118 q 114 131 115 115 q 130 192 113 147 q 189 332 147 236 q 208 367 199 353 q 222 397 217 381 q 187 395 210 397 q 141 392 164 393 q 100 395 118 392 q 79 411 82 399 q 85 440 76 425 q 99 469 94 454 q 106 497 104 488 q 106 513 107 507 q 106 523 106 519 q 111 531 107 526 q 139 538 117 535 q 187 543 161 542 q 237 544 213 544 q 272 543 261 544 q 294 593 281 564 q 324 654 308 622 q 353 717 339 686 q 375 774 367 749 l 397 847 q 347 847 374 847 q 296 843 319 846 q 270 839 281 842 q 252 836 260 836 q 238 840 244 836 q 224 856 232 843 q 233 874 228 869 q 244 885 239 879 q 253 903 250 892 q 256 940 257 914 q 307 947 286 946 q 346 948 328 949 q 384 947 364 947 q 435 946 404 946 l 510 1115 q 533 1161 524 1146 q 549 1191 542 1176 q 563 1225 556 1206 q 582 1282 571 1244 q 598 1278 593 1281 q 610 1276 603 1276 q 633 1278 619 1276 q 659 1278 646 1279 q 683 1271 672 1276 q 696 1253 693 1265 q 669 1234 675 1239 q 663 1224 664 1229 q 660 1213 661 1219 q 650 1188 660 1206 l 551 958 l 747 967 q 782 1060 767 1018 q 821 1147 797 1103 q 826 1161 824 1153 q 840 1187 835 1178 q 848 1200 844 1196 q 854 1207 851 1204 q 861 1217 857 1210 q 855 1228 856 1228 q 843 1236 854 1229 l 861 1257 q 869 1267 867 1264 q 875 1278 871 1271 m 507 850 q 492 814 500 831 q 478 775 485 797 l 386 547 l 579 543 l 707 854 q 608 853 661 854 q 507 850 556 851 z "},"":{"ha":704,"x_min":54,"x_max":665,"o":"m 54 1403 q 104 1402 78 1404 q 154 1403 131 1400 q 166 1404 163 1403 q 173 1406 169 1406 q 181 1408 176 1407 q 196 1408 186 1408 l 303 1413 q 307 1414 306 1413 q 334 1420 318 1418 q 365 1424 350 1422 q 394 1424 381 1425 q 414 1421 407 1424 q 399 1397 411 1408 q 378 1379 388 1385 l 350 1361 q 347 1358 347 1361 l 340 1354 q 323 1322 329 1344 q 313 1270 317 1299 q 306 1213 308 1242 q 301 1163 304 1183 q 298 1134 299 1146 q 297 1106 297 1122 l 299 1067 l 299 1065 q 320 1099 311 1083 q 342 1129 329 1114 q 447 1199 389 1188 q 563 1163 504 1210 q 587 1133 581 1147 q 603 1097 593 1119 l 633 1021 q 644 981 639 1004 q 653 931 649 957 q 660 881 657 906 q 664 840 663 857 q 665 767 665 806 q 663 690 665 729 q 653 614 660 651 q 633 546 646 576 q 592 468 617 501 q 534 416 567 435 q 460 395 501 397 q 372 413 419 393 q 339 435 356 419 q 311 458 322 451 q 313 443 314 449 q 314 429 313 438 q 315 372 315 406 q 317 305 315 339 q 321 241 318 271 q 332 197 324 211 q 351 170 338 186 q 376 138 364 154 q 394 108 388 122 q 394 89 400 94 q 394 86 393 88 q 394 83 394 85 q 391 83 394 82 q 379 88 388 83 l 371 94 q 365 99 367 99 q 339 108 358 103 q 297 117 319 113 q 256 124 275 121 q 232 126 238 126 q 219 125 218 125 q 211 122 221 125 l 208 122 l 183 110 q 153 90 161 97 q 140 78 144 82 q 127 71 135 74 q 99 67 119 68 q 115 90 106 82 q 134 110 124 99 q 155 139 144 121 q 174 192 165 157 q 178 231 178 210 q 176 275 178 253 q 172 319 174 297 q 171 363 171 342 q 173 644 174 504 q 178 928 172 785 q 183 1022 181 975 q 182 1114 185 1069 q 177 1197 179 1154 q 165 1275 175 1239 q 131 1337 154 1311 q 60 1371 107 1363 q 63 1383 61 1381 q 67 1385 65 1385 q 67 1385 68 1385 q 63 1390 67 1385 q 61 1391 63 1392 q 58 1390 60 1390 q 56 1393 57 1390 q 54 1403 54 1396 m 403 1101 q 369 1081 379 1096 q 347 1047 358 1065 q 326 1010 335 1026 q 310 967 318 994 q 301 919 303 944 q 297 867 299 893 q 299 857 297 860 q 301 851 300 854 q 302 843 301 849 q 301 825 303 838 q 298 802 299 808 q 300 778 297 796 q 303 699 303 731 q 306 635 303 667 q 308 569 310 600 q 313 513 307 538 q 340 472 319 488 q 408 453 360 456 q 446 465 429 451 q 475 498 463 478 q 494 542 488 518 q 504 586 501 565 q 510 635 507 608 q 517 688 514 661 q 521 740 519 715 q 522 785 522 765 q 519 835 522 801 q 513 906 517 869 q 502 976 508 943 q 489 1022 496 1008 q 475 1047 483 1032 q 456 1076 467 1063 q 433 1097 446 1089 q 403 1101 419 1106 z "},"":{"ha":854,"x_min":72,"x_max":814,"o":"m 72 1425 q 115 1422 97 1424 q 151 1419 133 1419 q 187 1420 168 1418 q 231 1429 206 1422 l 382 1446 q 400 1451 396 1449 q 419 1456 404 1454 q 440 1457 431 1458 q 460 1457 449 1456 q 494 1463 479 1460 q 535 1467 510 1467 q 613 1445 581 1467 q 661 1390 644 1424 q 679 1314 678 1356 q 667 1233 681 1272 q 653 1201 660 1217 q 638 1168 646 1185 q 606 1101 621 1135 q 582 1031 590 1067 q 575 958 574 996 q 593 881 576 921 q 620 819 607 849 q 647 760 633 789 q 661 732 654 744 q 676 701 668 719 q 690 674 683 686 q 704 646 697 661 q 738 563 717 617 q 776 448 758 508 q 804 329 794 388 q 801 236 814 271 q 790 203 794 217 q 778 178 785 189 q 762 156 771 167 q 738 129 753 144 l 713 108 q 678 93 696 96 q 644 92 661 90 q 610 100 628 94 q 575 110 593 106 q 559 113 571 111 q 532 117 547 114 q 502 126 517 121 q 479 138 488 131 q 489 157 482 157 q 511 156 496 157 q 540 154 524 156 q 568 154 556 153 q 599 157 588 154 q 617 165 610 160 q 629 176 625 169 q 639 189 633 182 q 660 267 660 219 q 651 364 661 314 q 626 460 642 414 q 601 538 611 507 q 588 577 594 558 q 572 617 581 596 q 549 653 565 636 q 525 692 533 671 q 486 767 508 736 q 449 833 464 799 q 435 910 435 867 q 460 1019 435 953 q 488 1098 471 1049 q 517 1201 504 1147 q 535 1302 531 1254 q 526 1376 539 1350 q 503 1409 518 1393 q 460 1422 488 1425 q 438 1409 451 1422 q 412 1381 425 1396 q 389 1351 399 1365 q 378 1335 379 1338 q 371 1316 374 1325 q 365 1296 368 1307 q 358 1250 363 1271 q 350 1206 354 1229 q 347 1162 347 1193 q 347 1089 346 1131 q 348 1000 347 1047 q 351 910 349 953 q 354 835 353 868 q 357 786 356 801 q 362 687 361 742 q 363 576 363 632 q 363 466 363 519 q 367 372 363 413 q 367 318 368 344 q 368 266 364 290 q 369 225 372 242 q 367 203 368 214 q 367 178 365 193 q 394 125 371 150 q 442 88 417 100 q 463 79 457 81 q 472 67 468 78 q 473 62 472 65 q 471 56 474 58 q 460 54 468 54 q 435 60 453 54 q 370 72 406 69 q 300 71 335 74 q 233 60 265 68 q 179 39 201 51 q 176 36 176 36 q 151 26 168 32 q 117 36 133 21 q 138 48 129 44 q 153 55 146 51 q 169 63 161 58 q 190 79 178 68 q 203 93 199 86 q 206 119 208 100 q 203 150 201 138 q 207 172 204 163 q 212 191 210 182 q 213 214 214 200 q 210 243 210 233 q 210 260 210 253 q 210 275 210 267 q 208 300 210 283 q 210 326 207 319 q 213 351 213 332 l 214 442 q 215 445 214 443 q 217 449 217 447 q 222 456 221 457 q 222 454 222 456 q 222 453 222 453 q 224 463 222 454 q 223 467 224 467 q 222 469 222 468 q 216 503 217 490 q 216 526 215 517 q 219 544 217 536 q 221 558 221 551 l 219 693 q 223 799 225 749 q 221 904 221 850 q 219 952 221 925 q 215 1008 217 979 q 210 1066 213 1038 q 204 1115 207 1094 q 199 1175 199 1150 q 198 1221 199 1200 q 195 1261 197 1242 q 183 1304 193 1281 q 153 1360 167 1344 q 126 1383 139 1376 q 99 1397 113 1390 q 72 1425 86 1403 z "},"%":{"ha":1104,"x_min":-61,"x_max":1093,"o":"m 693 1335 q 715 1343 708 1342 q 727 1346 722 1344 q 740 1349 732 1347 q 763 1357 747 1350 q 775 1360 769 1360 q 786 1363 781 1361 q 849 1375 826 1369 q 892 1385 872 1381 q 935 1392 911 1389 q 1001 1399 958 1394 q 1031 1401 1021 1401 q 1056 1400 1040 1401 q 1078 1399 1071 1400 q 1088 1394 1085 1397 q 1092 1387 1092 1390 q 1093 1379 1092 1383 q 1079 1376 1085 1376 q 1069 1374 1074 1375 q 1060 1369 1065 1372 q 1044 1363 1054 1367 q 1035 1358 1039 1360 q 1025 1351 1031 1356 q 1017 1346 1022 1349 q 1014 1343 1014 1343 q 997 1333 1003 1336 q 989 1326 992 1329 q 983 1319 986 1324 q 974 1304 979 1314 q 962 1285 967 1292 q 947 1268 957 1279 l 835 1119 l 481 563 q 451 519 468 540 q 425 488 433 499 q 417 475 419 479 q 411 464 415 471 q 397 444 401 451 q 391 433 393 438 q 386 422 389 428 q 376 403 383 415 l 264 222 q 260 217 260 215 q 258 213 261 219 q 256 180 256 200 q 257 146 257 160 q 278 136 267 139 q 298 131 289 133 q 314 122 307 128 q 322 104 321 117 q 310 101 317 101 q 294 101 304 101 q 270 98 285 100 q 235 90 256 96 q 183 85 210 83 q 130 92 156 88 q 80 100 104 96 q 36 101 56 104 q 11 95 17 97 q 6 93 6 93 q 8 95 7 93 q 1 101 8 97 q -11 102 -4 104 q -26 98 -18 100 q -42 97 -33 96 q -61 107 -51 97 q -48 120 -58 114 q -24 131 -37 126 q 1 139 -11 135 q 21 146 14 143 q 69 173 50 158 q 103 204 89 188 q 129 239 118 221 q 151 276 140 257 l 240 417 q 251 433 247 426 q 258 447 256 440 q 266 461 261 454 q 279 479 271 468 q 294 494 290 490 q 306 514 299 497 q 330 554 317 536 q 359 593 343 572 q 394 641 375 614 q 436 708 414 668 l 486 789 q 497 810 493 800 q 508 831 501 819 l 585 953 q 604 968 589 957 q 640 1013 619 979 l 760 1224 q 773 1244 767 1235 q 783 1264 779 1254 q 784 1284 786 1274 q 772 1307 782 1294 q 731 1310 744 1308 q 710 1314 718 1311 q 697 1322 703 1317 q 682 1336 692 1326 l 693 1335 m 810 694 q 827 694 813 694 q 859 691 842 693 q 892 686 876 689 q 913 682 908 683 q 921 678 919 679 q 923 677 922 678 q 924 675 924 676 q 929 668 925 674 q 936 660 931 665 q 968 629 961 638 q 977 616 975 621 q 980 605 979 611 q 993 581 981 599 q 1004 565 997 572 q 1014 549 1011 557 q 1026 507 1022 531 q 1028 457 1029 483 q 1024 406 1028 431 q 1018 361 1021 381 q 1008 305 1013 325 q 986 256 1003 285 l 983 253 l 979 247 q 974 238 975 239 q 968 226 972 238 q 958 199 960 206 q 953 192 956 193 q 944 190 950 192 q 926 179 939 189 q 902 165 913 172 q 868 158 892 157 q 801 163 824 160 q 763 173 778 167 q 735 190 749 179 q 699 219 722 201 q 657 273 671 240 q 640 342 643 306 q 642 418 636 379 q 658 492 647 457 q 669 529 665 513 q 677 561 672 546 q 689 592 682 576 q 708 626 696 607 l 793 686 q 797 688 797 688 q 797 690 797 689 q 799 691 797 690 q 810 694 801 692 m 283 1356 q 324 1360 299 1363 q 367 1350 350 1357 q 379 1343 369 1349 q 400 1331 389 1338 q 421 1317 411 1324 q 432 1310 431 1311 q 476 1240 463 1282 q 491 1153 490 1199 q 480 1063 492 1107 q 447 985 468 1018 q 426 949 435 964 q 411 924 418 933 q 397 909 404 914 q 378 904 389 904 q 367 904 369 904 q 363 903 364 904 q 358 901 361 903 q 347 894 356 899 q 261 892 306 872 q 184 958 217 913 q 136 1063 151 1003 q 138 1182 121 1124 q 149 1226 144 1206 q 161 1267 153 1247 q 172 1285 164 1272 q 183 1303 179 1299 q 228 1335 203 1326 q 283 1356 254 1344 m 840 646 q 797 612 813 638 q 776 556 782 586 q 768 497 769 526 q 767 451 767 468 q 764 397 765 432 q 767 327 763 363 q 781 263 771 292 q 815 226 792 233 q 858 242 840 218 q 884 308 875 267 q 894 402 893 350 q 890 503 896 454 q 871 592 883 553 q 840 646 858 631 m 306 1313 l 304 1313 q 303 1310 303 1311 l 294 1300 q 276 1263 283 1285 q 267 1216 269 1240 q 263 1167 264 1192 q 264 1124 263 1143 q 265 1092 265 1104 q 265 1067 265 1079 q 266 1041 265 1056 q 271 1001 267 1026 q 275 975 275 990 q 278 947 278 963 q 290 928 279 932 q 308 930 300 924 q 323 947 317 936 q 333 972 329 958 q 340 993 338 985 q 347 1048 343 1007 q 351 1136 350 1089 q 349 1225 351 1183 q 336 1282 346 1267 q 323 1297 331 1292 q 306 1313 315 1301 z "},"$":{"ha":721,"x_min":99,"x_max":621,"o":"m 189 1508 q 215 1510 194 1511 q 259 1508 235 1510 q 308 1507 283 1507 q 350 1510 333 1507 q 390 1516 368 1513 q 431 1524 413 1519 q 453 1528 444 1526 q 467 1529 461 1529 q 480 1528 474 1529 q 497 1526 486 1528 q 478 1512 490 1514 q 449 1503 467 1510 q 415 1486 429 1496 q 394 1461 401 1476 q 385 1423 388 1446 q 386 1367 383 1400 q 415 1360 399 1364 q 443 1354 431 1357 q 475 1343 457 1350 q 510 1326 493 1336 q 544 1306 528 1317 q 568 1286 560 1296 q 555 1235 563 1267 q 538 1185 547 1203 q 513 1149 528 1168 q 478 1121 497 1129 q 451 1131 460 1118 q 440 1163 443 1143 q 437 1207 438 1182 q 433 1255 436 1232 q 419 1297 429 1278 q 390 1325 410 1317 l 389 1129 q 387 1081 388 1101 q 385 1031 386 1061 q 386 982 383 1003 q 389 933 389 961 q 389 883 389 896 q 397 862 389 869 q 420 842 404 854 q 467 794 436 831 q 502 751 490 767 q 520 728 514 736 q 527 716 526 719 q 530 707 528 713 q 535 693 532 701 q 550 667 539 685 q 588 595 572 629 q 613 517 603 561 q 619 470 618 490 q 621 422 621 450 q 621 409 621 414 q 621 401 621 404 q 619 392 621 397 q 617 378 618 388 q 615 360 615 367 q 611 339 615 353 q 604 320 608 328 q 594 299 600 313 q 567 260 588 283 q 526 216 547 238 q 485 178 504 194 q 461 161 465 163 l 392 129 q 405 58 390 83 q 438 15 419 32 q 473 -12 457 -1 q 492 -37 489 -24 q 458 -40 476 -47 q 421 -31 440 -33 q 384 -28 406 -28 q 347 -32 363 -29 q 274 -44 307 -36 q 204 -47 240 -53 q 215 -35 206 -42 q 235 -22 224 -29 q 257 -8 246 -15 q 275 7 268 -1 q 293 61 292 26 q 289 124 294 96 l 263 139 q 215 159 231 153 q 192 168 200 165 q 181 173 185 171 q 170 182 178 175 q 147 203 163 189 q 100 243 132 217 l 114 281 q 126 309 122 297 q 135 334 131 321 q 145 365 139 347 q 165 411 151 382 q 177 433 172 426 q 206 438 182 439 q 209 407 211 419 q 205 380 207 394 q 206 344 203 365 q 222 289 208 324 q 235 258 228 275 q 250 226 242 242 q 269 199 258 211 q 293 185 281 188 q 294 256 293 207 q 297 366 296 306 q 298 491 297 426 q 298 610 299 556 q 295 703 297 665 q 289 747 293 742 l 197 858 q 174 886 185 874 q 155 912 164 899 q 137 941 146 925 q 119 979 128 957 q 103 1097 99 1033 q 131 1215 107 1160 q 199 1309 156 1271 q 301 1351 243 1347 l 300 1442 q 275 1459 283 1454 q 244 1469 267 1464 q 211 1476 226 1474 q 189 1493 196 1478 l 189 1508 m 292 1125 q 298 1217 299 1167 q 300 1310 297 1267 q 247 1288 269 1304 q 211 1247 225 1271 q 193 1193 197 1222 q 193 1133 189 1164 q 206 1072 197 1103 q 229 1018 215 1042 q 240 997 233 1011 q 256 967 247 982 q 275 940 265 953 q 292 924 285 928 q 290 972 292 944 q 288 1026 289 999 q 288 1080 288 1054 q 292 1125 289 1106 m 396 172 q 457 190 439 176 q 486 239 475 203 q 496 309 496 274 q 492 378 496 344 q 478 444 486 411 q 456 504 469 478 q 444 528 451 513 q 428 559 438 543 q 410 589 419 575 q 393 607 400 603 q 396 554 394 583 q 397 495 397 525 q 397 436 397 465 q 393 386 396 407 q 389 343 390 368 q 388 291 388 318 q 389 238 388 264 q 393 193 390 213 l 396 172 z "},"":{"ha":611,"x_min":61,"x_max":542,"o":"m 313 1367 q 320 1406 315 1388 q 331 1447 325 1425 q 334 1474 333 1464 q 337 1490 335 1485 q 347 1499 339 1496 q 371 1503 354 1501 q 410 1508 386 1504 q 460 1516 435 1513 q 508 1520 485 1519 q 542 1515 531 1521 q 538 1505 539 1507 q 537 1503 538 1503 q 533 1503 536 1503 q 521 1499 529 1503 l 457 1456 q 446 1437 453 1451 q 432 1406 439 1422 q 419 1375 425 1390 q 413 1353 414 1360 q 486 1296 453 1333 q 536 1219 519 1258 q 519 1183 524 1199 q 515 1153 515 1167 q 513 1130 514 1140 q 506 1111 511 1119 q 488 1088 494 1096 q 472 1078 482 1081 q 446 1079 461 1074 q 424 1089 431 1085 q 426 1172 421 1138 q 433 1233 431 1207 q 429 1278 435 1258 q 401 1318 424 1297 l 389 1176 q 383 1108 386 1144 q 374 1040 381 1071 q 355 906 360 981 q 343 765 350 832 q 340 728 340 746 q 338 693 340 710 q 330 638 333 661 q 324 593 326 615 q 320 547 322 571 q 317 488 318 522 l 299 208 q 341 203 321 200 q 376 219 361 207 q 401 250 392 232 q 410 288 410 268 q 407 362 410 333 q 400 407 404 390 q 393 432 396 424 q 390 447 390 440 l 390 454 q 417 460 404 463 q 442 449 431 457 q 463 429 453 440 q 479 410 472 418 q 497 390 488 399 q 514 372 507 381 l 542 328 q 540 319 540 321 q 540 318 540 318 q 538 317 539 318 q 532 308 536 315 q 527 300 529 304 q 522 290 525 296 q 510 270 515 278 q 501 257 506 263 q 492 246 497 251 q 479 231 488 240 q 444 199 467 215 q 395 173 422 183 q 341 160 368 163 q 293 167 314 157 q 288 151 290 161 q 285 128 286 140 q 283 103 283 115 q 282 81 282 90 q 276 57 279 68 q 275 35 272 46 q 281 17 276 25 q 286 0 286 8 q 240 -19 268 -14 q 185 -26 213 -24 l 69 -33 q 81 -19 75 -24 q 94 -12 88 -14 q 109 -8 101 -10 q 125 -3 117 -7 q 164 48 151 15 q 181 113 176 81 q 185 169 185 146 q 185 194 185 193 l 144 240 q 111 288 118 265 q 94 329 104 310 q 88 345 88 343 q 82 364 88 347 q 67 458 72 399 q 62 583 63 518 q 64 711 61 649 q 71 814 67 774 q 83 931 76 867 q 102 1060 90 994 q 133 1185 114 1125 q 182 1292 153 1246 q 209 1324 196 1313 q 237 1340 222 1335 q 269 1349 251 1346 q 313 1360 288 1353 l 313 1367 m 206 269 q 210 335 208 301 q 215 401 213 369 q 226 526 221 460 q 236 650 231 593 q 253 810 244 735 q 271 960 263 886 q 288 1109 279 1033 q 304 1269 296 1185 q 306 1280 304 1272 q 308 1297 307 1288 q 311 1313 310 1306 q 313 1324 313 1321 q 271 1296 289 1324 q 239 1224 253 1268 q 214 1124 225 1179 q 194 1015 203 1069 q 182 935 188 974 q 173 865 176 896 q 167 812 169 833 q 164 783 164 790 q 161 757 163 776 q 158 710 160 738 q 156 647 157 682 q 156 575 156 613 q 158 487 156 532 q 165 401 160 442 q 179 326 169 360 q 206 269 189 292 z "},"":{"ha":879,"x_min":10,"x_max":857,"o":"m 515 1401 q 549 1413 528 1408 q 595 1419 571 1417 q 643 1421 619 1421 q 686 1421 667 1421 q 740 1426 714 1421 q 787 1436 765 1432 q 826 1440 808 1440 q 857 1431 844 1440 q 840 1415 851 1418 q 812 1406 828 1411 q 778 1386 796 1400 q 742 1339 760 1372 q 713 1267 726 1310 q 682 1192 699 1224 q 670 1141 671 1168 q 653 1072 669 1114 q 634 1012 642 1044 q 622 949 626 979 q 613 897 617 919 q 607 868 610 875 q 652 868 625 865 q 705 876 679 871 q 751 888 731 882 q 775 897 771 894 q 785 881 776 894 q 796 851 793 868 q 790 817 799 833 q 747 792 781 800 q 662 785 707 782 q 575 785 617 788 q 574 749 572 767 q 575 721 576 732 q 576 667 571 679 q 607 656 582 656 q 620 658 610 657 q 635 658 631 658 q 674 662 651 660 q 721 665 697 664 q 766 665 744 665 q 800 663 788 665 l 818 575 q 702 553 767 558 q 574 540 638 547 q 570 476 571 504 q 565 408 569 447 q 557 333 561 368 q 553 258 553 299 q 556 226 553 236 q 557 193 560 215 q 563 157 554 172 q 586 131 572 142 q 617 111 600 119 q 649 97 633 103 q 672 93 664 92 q 689 83 679 94 q 677 76 682 78 q 667 73 672 74 q 653 72 661 72 q 633 69 646 71 q 585 65 603 65 q 552 65 567 64 q 521 67 538 67 q 475 65 504 67 q 408 56 436 63 q 360 42 381 49 q 324 33 339 36 q 297 38 310 31 q 310 47 306 44 q 326 54 315 49 q 353 66 346 63 q 365 72 361 69 q 376 78 369 74 q 400 93 383 82 q 421 110 414 103 q 431 129 428 117 q 434 163 433 142 q 435 221 435 183 q 431 299 435 260 q 429 379 426 339 q 432 458 432 417 q 432 535 432 499 q 350 532 389 535 q 271 522 311 529 q 241 520 250 518 q 230 527 232 522 q 230 537 228 532 q 232 542 232 542 q 233 549 233 551 q 232 560 233 547 q 227 576 229 571 q 224 596 225 581 l 242 607 q 244 610 244 610 q 278 618 254 615 q 330 624 301 621 q 388 629 358 626 q 439 636 417 632 l 442 764 l 292 735 q 228 736 254 726 q 199 800 201 746 l 385 843 q 361 884 371 867 q 336 921 351 901 l 321 938 q 295 981 310 951 q 267 1026 281 1010 q 228 1093 242 1065 q 203 1142 215 1121 q 178 1181 192 1163 q 142 1219 165 1199 q 111 1236 131 1229 q 71 1249 92 1243 q 33 1262 50 1256 q 10 1276 15 1268 q 55 1281 31 1282 q 101 1285 79 1281 q 121 1290 113 1288 q 140 1296 129 1293 q 179 1299 163 1299 q 210 1300 196 1300 q 240 1300 225 1300 q 274 1301 254 1300 l 361 1301 q 363 1300 361 1300 q 364 1299 364 1300 q 365 1299 364 1299 q 365 1290 365 1292 q 363 1289 365 1289 q 358 1288 361 1289 q 349 1276 354 1286 q 347 1272 347 1274 q 343 1268 346 1271 q 303 1196 249 1264 q 342 1141 328 1164 q 369 1097 357 1118 q 392 1053 381 1076 q 422 999 404 1029 q 439 973 431 983 q 456 950 447 963 q 472 927 465 938 q 488 906 478 917 q 501 955 490 917 q 527 1042 513 993 q 557 1147 542 1092 q 585 1251 572 1203 q 604 1331 597 1299 q 608 1368 611 1364 q 587 1381 599 1376 q 562 1387 575 1385 q 537 1392 549 1389 q 515 1401 525 1394 z "},"~":{"ha":942,"x_min":57,"x_max":917,"o":"m 57 738 q 84 784 58 768 q 136 810 110 800 q 216 842 183 828 q 273 865 249 856 q 317 879 297 875 q 358 882 336 883 q 409 872 381 881 q 481 849 438 864 q 535 826 507 839 q 590 805 563 814 q 647 791 618 796 q 706 792 676 786 q 770 806 746 799 q 809 817 794 813 q 833 826 824 822 q 856 829 843 829 q 886 829 876 829 q 901 826 896 829 q 908 818 906 824 q 917 804 911 813 q 887 781 910 794 q 836 752 864 767 q 781 725 808 738 q 738 706 753 713 q 661 672 685 681 q 627 663 638 664 q 611 665 617 663 q 588 665 606 667 q 504 669 540 660 q 419 699 468 679 q 394 709 404 704 q 371 719 385 714 q 318 739 346 729 q 262 753 290 749 q 203 756 233 758 q 144 740 174 754 q 125 727 138 738 q 106 711 113 717 q 90 717 96 715 q 78 722 83 719 q 69 727 74 724 q 57 738 64 731 z "},"*":{"ha":431,"x_min":4,"x_max":426,"o":"m 151 1188 q 155 1192 154 1192 q 160 1206 156 1192 q 162 1213 163 1214 q 161 1219 161 1213 q 159 1244 161 1229 q 157 1273 157 1260 q 163 1293 157 1286 q 185 1293 168 1300 q 217 1276 206 1285 q 232 1256 228 1268 q 235 1228 236 1244 q 233 1189 235 1213 q 274 1219 260 1203 q 301 1247 289 1235 q 326 1260 313 1258 q 363 1246 339 1261 q 346 1218 357 1229 q 322 1197 335 1207 q 299 1176 310 1186 q 285 1151 289 1165 q 323 1124 304 1136 q 358 1100 342 1111 q 399 1078 378 1088 q 426 1046 419 1068 q 403 1042 410 1042 q 392 1044 396 1043 q 383 1040 388 1044 q 365 1021 378 1036 q 330 1038 346 1026 q 299 1060 314 1049 q 267 1081 283 1071 q 231 1096 250 1090 q 238 1022 235 1046 q 239 988 240 997 q 230 976 238 978 q 207 969 222 975 q 170 967 181 960 q 157 988 160 974 q 155 1017 154 1001 q 150 1042 156 1033 q 135 1031 142 1036 q 121 1018 128 1025 q 93 994 104 1003 q 72 985 82 985 q 53 994 63 985 q 33 1025 44 1004 l 113 1121 q 86 1132 93 1132 q 58 1126 79 1132 q 49 1139 53 1133 q 39 1151 46 1144 q 46 1160 43 1160 q 49 1161 49 1161 q 51 1161 50 1161 q 53 1167 51 1161 q 57 1169 54 1169 l 4 1229 q 14 1240 14 1240 q 32 1233 14 1240 q 31 1245 32 1242 q 31 1251 31 1249 q 32 1255 31 1253 q 38 1263 33 1257 q 67 1247 57 1251 q 96 1228 78 1243 q 122 1206 111 1214 q 151 1188 132 1199 z "},"":{"ha":364,"x_min":83,"x_max":367,"o":"m 99 1221 q 83 1254 83 1238 q 93 1286 83 1271 q 120 1313 103 1301 q 156 1332 138 1325 q 224 1336 194 1347 q 270 1300 253 1325 q 293 1244 288 1275 q 290 1188 299 1213 q 271 1132 282 1163 q 249 1070 260 1101 q 228 1008 238 1039 q 214 951 219 976 q 280 956 257 951 q 316 964 303 960 q 339 971 329 968 q 365 969 349 974 q 364 942 367 954 q 358 917 361 929 q 337 882 351 893 q 293 878 322 871 l 251 882 q 199 888 224 885 q 146 896 174 892 q 108 916 118 901 q 110 958 99 931 q 145 1040 128 999 q 178 1125 163 1082 q 194 1167 183 1142 q 209 1215 204 1192 q 208 1259 214 1239 q 175 1288 201 1279 q 151 1275 156 1283 q 139 1251 146 1267 q 124 1231 131 1235 q 99 1221 118 1226 z "},"":{"ha":346,"x_min":63,"x_max":294,"o":"m 63 1208 q 76 1231 64 1215 q 103 1263 89 1246 q 132 1292 118 1279 q 151 1308 146 1306 q 190 1320 176 1321 q 212 1307 204 1319 q 221 1273 219 1294 q 222 1224 222 1251 q 226 1133 222 1179 q 228 1047 231 1088 q 232 973 225 994 q 249 945 239 951 q 272 938 260 939 q 294 924 285 936 q 277 906 283 908 q 249 903 271 904 q 220 899 239 903 q 178 893 201 896 q 131 891 156 890 q 83 899 106 892 q 92 917 85 911 q 107 926 99 922 q 124 933 115 929 q 142 947 133 936 q 142 972 143 954 q 140 1012 142 990 q 138 1053 139 1033 q 136 1083 136 1074 q 137 1110 136 1090 q 138 1151 138 1129 q 139 1192 139 1172 q 138 1218 139 1211 q 88 1191 103 1192 q 63 1208 74 1190 z "},"":{"ha":1132,"x_min":0,"x_max":0,"o":""},"/":{"ha":767,"x_min":15,"x_max":750,"o":"m 622 1346 q 648 1347 635 1346 q 671 1349 661 1349 q 689 1353 683 1350 q 698 1358 694 1356 q 704 1360 701 1360 q 714 1356 707 1360 l 750 1322 q 740 1301 743 1306 q 731 1283 738 1297 l 661 1165 q 651 1146 654 1156 q 642 1124 647 1136 q 631 1101 635 1107 q 619 1083 628 1096 q 601 1044 607 1063 q 581 1004 594 1026 l 303 413 q 294 390 296 397 q 285 368 292 382 q 243 271 260 317 q 213 194 226 225 q 201 171 204 175 q 197 164 199 167 q 190 151 194 161 q 176 113 186 142 l 122 -12 q 99 -16 107 -15 q 78 -22 90 -17 q 55 -30 63 -28 q 42 -30 47 -32 q 32 -21 38 -28 q 15 -1 26 -14 q 42 90 28 44 q 79 178 57 135 q 122 263 107 233 q 147 310 138 293 q 161 339 156 328 q 174 369 167 350 q 193 423 181 389 q 228 519 206 457 q 263 606 244 565 q 301 690 282 646 q 322 733 313 715 q 342 774 331 751 q 360 815 353 796 q 378 857 367 833 l 426 956 q 427 958 426 957 q 428 960 428 958 q 453 1016 443 992 q 475 1064 464 1040 q 501 1115 486 1088 q 542 1181 517 1142 q 549 1194 547 1189 q 553 1203 551 1199 q 557 1212 556 1207 q 561 1224 558 1217 q 588 1273 569 1243 q 621 1338 606 1303 l 622 1346 z "},".":{"ha":315,"x_min":82,"x_max":217,"o":"m 142 396 q 169 394 157 400 q 191 378 182 389 q 206 353 200 367 q 215 325 213 339 q 213 304 217 319 q 201 273 208 289 q 185 243 194 257 q 168 228 176 229 q 144 228 157 225 q 121 238 132 231 q 101 253 110 244 q 89 269 93 261 q 85 284 88 272 q 82 299 82 296 q 83 313 82 303 q 88 332 85 322 q 92 351 90 342 q 96 363 94 360 q 113 385 103 379 q 142 396 122 390 z "},",":{"ha":460,"x_min":178,"x_max":313,"o":"m 254 161 q 256 172 254 164 q 257 188 257 179 q 255 203 257 196 q 244 215 253 211 q 228 220 238 219 q 211 224 219 221 q 196 235 203 226 q 185 265 189 244 q 182 317 178 296 q 206 361 186 338 q 213 371 213 371 q 226 372 214 371 q 267 368 253 374 q 290 351 282 363 q 301 322 297 339 q 308 285 304 304 q 312 245 313 263 q 308 204 311 228 q 306 181 307 188 q 302 169 304 174 q 295 161 300 165 q 282 147 290 157 q 268 153 274 150 q 254 161 263 157 z "},"b":{"ha":660,"x_min":32,"x_max":624,"o":"m 32 1115 q 53 1119 40 1119 q 82 1115 67 1118 q 112 1108 97 1111 q 138 1104 126 1104 q 197 1109 169 1104 q 251 1115 224 1114 q 317 1121 294 1118 q 358 1122 340 1124 q 394 1113 375 1121 q 450 1086 414 1106 q 481 1061 465 1078 q 506 1023 496 1044 q 515 976 515 1001 q 499 925 514 950 q 461 876 479 893 q 426 851 443 860 q 391 836 408 842 q 353 821 374 831 q 426 799 392 814 q 486 765 461 785 q 553 704 529 729 q 588 654 576 679 q 604 599 600 629 q 615 521 608 568 q 613 404 624 463 q 561 304 601 346 q 539 276 546 289 q 521 250 532 263 l 514 243 q 508 238 508 238 q 510 240 508 239 q 513 242 513 242 q 508 238 514 242 q 451 210 483 217 q 387 203 418 203 q 332 206 356 203 q 303 208 308 210 q 299 206 299 207 q 298 204 299 204 q 294 205 297 204 q 279 210 290 206 q 208 223 238 224 q 156 217 179 222 q 115 206 133 211 q 75 208 96 201 q 87 229 78 222 q 106 242 96 236 q 126 258 117 249 q 140 289 136 268 q 141 311 142 293 q 139 350 140 329 q 137 391 138 371 q 136 421 136 411 q 140 487 138 458 q 143 551 142 515 q 143 652 144 606 q 139 744 142 699 q 134 835 136 789 q 132 935 132 882 q 128 1008 132 983 q 115 1046 125 1032 q 87 1070 104 1060 q 43 1100 69 1081 q 34 1106 36 1106 q 32 1106 32 1106 q 33 1107 32 1106 q 32 1115 33 1108 m 225 779 q 232 726 231 763 q 233 649 233 690 q 230 567 232 607 q 226 503 228 528 q 231 430 225 476 q 231 331 238 383 q 229 302 228 311 q 236 289 231 293 q 253 283 242 285 q 281 278 264 282 q 310 277 290 275 q 353 285 331 279 q 399 300 376 290 q 436 324 421 310 q 477 381 465 351 q 496 453 489 411 q 500 497 499 472 q 501 548 501 522 q 497 598 500 574 q 488 639 493 622 q 460 684 479 663 q 417 723 442 706 q 367 753 393 740 q 315 775 340 767 q 289 781 299 779 q 270 781 279 782 q 251 779 261 781 q 225 779 240 778 m 226 811 q 265 823 253 822 q 288 824 278 824 q 309 831 297 825 q 347 860 321 838 q 367 872 357 867 q 383 886 376 878 q 401 926 397 903 q 399 974 404 949 q 383 1021 394 999 q 358 1057 372 1043 q 327 1085 343 1072 q 278 1083 311 1097 q 229 1063 247 1072 q 211 1029 211 1053 l 226 811 z "},"c":{"ha":547,"x_min":61,"x_max":526,"o":"m 518 482 q 524 463 522 475 q 526 437 526 450 q 525 410 526 424 q 522 392 524 397 q 521 390 521 390 q 519 388 521 389 q 512 360 514 371 q 507 341 510 350 q 497 322 504 332 q 472 297 489 313 q 389 243 429 258 q 289 243 349 228 q 255 260 276 246 q 210 294 233 275 q 167 332 188 313 q 140 364 147 351 q 98 453 115 408 q 69 556 81 497 q 65 592 67 565 q 63 653 64 618 q 62 726 63 688 q 62 800 61 765 q 64 861 63 835 q 68 897 65 888 q 79 951 75 926 q 93 1006 83 976 q 127 1099 107 1049 q 176 1192 147 1150 q 245 1263 206 1235 q 339 1289 285 1290 q 391 1281 363 1289 q 439 1258 419 1272 q 456 1233 443 1256 q 484 1181 469 1211 q 508 1120 499 1151 q 513 1068 517 1089 q 498 1059 510 1058 q 472 1065 486 1060 q 444 1079 457 1071 q 426 1092 431 1088 q 406 1135 414 1107 q 388 1183 397 1163 q 375 1205 383 1193 q 356 1224 367 1217 q 333 1232 346 1232 q 308 1219 321 1232 q 278 1172 294 1206 q 245 1100 261 1139 q 217 1024 229 1061 q 200 965 206 986 q 185 856 188 914 q 184 745 182 797 q 191 654 186 693 q 196 604 196 615 q 200 576 196 589 q 210 550 204 563 q 221 525 215 538 q 228 500 226 513 q 228 482 229 488 q 228 472 228 476 q 228 463 228 468 q 232 449 228 458 q 253 403 240 426 q 281 361 265 381 q 317 328 297 342 q 364 313 338 315 q 386 315 374 311 q 411 326 399 319 q 434 340 424 332 q 450 356 444 347 q 467 397 463 375 q 475 436 471 418 q 488 467 479 454 q 518 482 497 479 z "},"d":{"ha":636,"x_min":57,"x_max":638,"o":"m 206 444 q 198 488 200 458 q 194 533 196 517 q 193 581 193 565 q 188 624 193 596 q 177 705 181 657 q 172 806 174 753 q 169 915 169 860 q 167 1017 168 969 q 163 1099 165 1064 q 156 1147 161 1133 q 126 1189 144 1175 q 90 1211 107 1203 q 65 1226 74 1219 q 68 1250 57 1233 q 93 1255 69 1254 q 145 1255 117 1256 q 201 1253 174 1254 q 236 1253 228 1253 q 263 1258 253 1253 q 288 1264 274 1263 q 326 1262 301 1265 q 396 1242 350 1258 q 439 1220 414 1235 q 489 1188 464 1206 q 534 1151 514 1169 q 564 1119 554 1133 q 584 1090 575 1104 q 601 1058 593 1075 q 622 1015 615 1031 q 630 988 628 1000 q 633 962 632 975 q 635 925 633 949 q 638 865 638 885 q 636 828 638 844 q 633 794 635 813 q 628 742 631 776 q 617 700 626 732 q 597 633 608 668 q 576 568 586 597 q 563 533 565 539 q 522 478 549 507 q 471 433 496 449 q 424 407 440 415 q 395 395 408 399 q 366 392 382 392 q 319 393 350 393 q 300 393 304 393 q 294 392 296 393 q 292 390 293 392 q 281 385 290 388 q 260 381 274 382 q 240 379 247 381 q 175 365 197 374 q 140 349 153 356 q 119 338 128 342 q 96 342 111 335 q 98 353 97 351 q 99 356 99 356 q 102 357 100 356 q 110 369 104 358 q 135 404 122 392 q 161 424 149 417 q 185 435 174 431 q 206 444 197 439 m 297 465 q 331 463 319 464 q 352 461 343 461 q 371 465 361 461 q 400 478 381 469 q 419 488 407 482 q 442 500 431 493 q 464 513 454 507 q 478 525 474 519 q 492 563 483 535 q 509 622 501 590 q 522 684 517 654 q 528 731 528 714 q 527 822 528 782 q 522 897 526 861 q 505 967 517 932 q 471 1047 493 1003 q 460 1069 464 1063 q 446 1085 457 1075 l 415 1121 q 383 1153 397 1139 q 340 1171 369 1168 q 286 1173 310 1175 q 254 1143 263 1171 q 247 1077 247 1122 q 249 980 246 1032 q 257 877 251 928 q 269 794 263 826 q 280 742 276 758 q 285 712 283 725 q 287 682 286 699 q 290 631 288 665 q 290 605 292 615 q 289 584 289 594 q 290 562 289 574 q 296 531 290 550 q 299 499 299 515 q 297 465 299 483 z "},"e":{"ha":565,"x_min":63,"x_max":556,"o":"m 63 1056 q 99 1049 82 1056 q 134 1037 117 1042 q 171 1033 151 1032 q 215 1047 190 1033 q 282 1066 239 1060 q 371 1073 325 1072 q 457 1068 417 1074 q 517 1050 497 1063 q 533 1018 532 1039 q 531 974 533 997 q 527 931 528 940 q 513 914 526 921 q 499 927 504 919 q 489 943 493 935 q 475 972 481 957 q 463 999 469 988 q 448 1019 457 1011 q 424 1028 439 1028 q 388 1026 411 1028 q 339 1021 364 1025 q 293 1008 314 1017 q 265 986 272 1000 q 256 935 258 969 q 255 862 254 901 q 257 783 256 822 q 258 715 258 743 l 353 735 q 376 751 376 742 q 378 782 376 760 q 383 816 378 811 q 397 816 389 821 q 415 801 406 811 q 432 790 424 792 q 424 778 419 782 q 431 760 428 774 q 433 745 432 754 q 435 728 433 736 q 435 651 439 679 q 433 611 432 622 q 436 574 436 589 q 419 544 436 560 q 409 549 411 547 q 406 552 407 550 q 403 558 404 554 q 397 569 403 563 l 383 586 q 385 590 383 592 q 389 592 388 588 q 390 613 390 596 q 383 674 389 629 l 264 643 q 264 571 264 622 q 266 463 264 519 q 271 360 268 407 q 281 300 274 313 q 329 292 299 290 q 383 294 360 293 q 436 290 415 294 q 488 288 457 286 l 519 371 q 526 382 525 381 q 544 383 528 383 q 546 372 544 382 q 548 350 547 363 q 549 326 549 338 q 550 308 550 314 q 553 269 550 290 q 544 236 556 249 q 513 225 535 222 q 474 229 492 228 q 437 228 453 231 q 404 222 421 225 q 367 215 388 218 q 315 214 346 213 q 277 222 290 215 q 244 231 264 228 q 189 228 210 233 q 153 218 168 224 q 128 209 139 213 q 104 213 118 206 q 121 233 113 226 q 136 247 129 240 q 150 263 143 253 q 164 290 157 272 q 183 394 181 340 q 182 499 185 447 q 174 598 179 551 q 172 678 169 644 q 172 747 175 714 q 164 811 169 779 q 160 835 161 828 q 160 847 160 842 q 160 860 160 853 q 160 885 161 868 q 149 940 158 915 q 125 985 139 965 q 105 1006 115 997 q 85 1021 94 1014 q 70 1036 76 1028 q 63 1056 64 1044 z "},"f":{"ha":518,"x_min":63,"x_max":524,"o":"m 63 1197 q 83 1204 76 1203 q 97 1203 90 1206 q 110 1198 103 1201 q 133 1193 118 1194 q 178 1188 150 1192 q 221 1186 207 1185 q 242 1188 232 1186 q 263 1190 253 1190 l 392 1190 q 457 1197 429 1192 q 500 1197 485 1203 q 519 1163 515 1190 q 515 1069 524 1136 q 508 1031 513 1046 q 481 1013 504 1015 q 474 1034 478 1017 q 465 1072 469 1051 q 456 1110 460 1093 q 449 1129 451 1126 q 417 1133 444 1133 q 358 1131 390 1133 q 297 1127 326 1129 q 258 1124 268 1125 q 245 1069 247 1104 q 244 990 243 1033 q 248 899 246 946 q 246 808 250 851 l 335 810 q 330 847 333 829 q 327 874 326 864 q 335 888 328 885 q 361 883 342 892 q 381 763 374 826 q 385 746 382 754 q 392 727 389 738 q 394 704 394 717 q 389 676 394 692 l 379 663 q 366 671 369 668 q 362 677 363 674 q 361 686 361 681 q 358 704 361 692 q 351 725 356 713 q 340 746 346 738 l 256 726 q 258 692 256 707 q 263 660 260 678 q 266 627 265 642 q 269 594 267 613 q 283 537 274 563 q 289 483 292 511 q 283 453 288 464 q 279 425 278 442 q 289 372 282 389 q 304 347 296 354 q 322 338 313 339 q 338 333 331 336 q 349 319 346 329 q 350 288 353 310 q 312 290 331 286 q 276 299 293 294 q 244 306 258 303 q 217 307 229 308 q 188 297 200 304 q 158 286 175 289 q 116 290 122 283 q 107 301 110 297 q 123 319 113 313 q 145 331 133 325 q 166 347 157 338 q 178 371 175 356 q 176 431 183 401 q 165 489 168 461 q 160 618 158 554 q 160 747 163 682 q 157 881 157 814 q 151 1011 157 947 q 147 1045 149 1031 q 142 1079 144 1060 q 133 1122 140 1101 q 90 1161 126 1142 q 76 1167 82 1165 q 68 1173 71 1169 q 65 1181 65 1176 q 63 1197 64 1186 z "},"h":{"ha":610,"x_min":61,"x_max":590,"o":"m 435 832 q 438 901 439 867 q 438 971 438 936 q 442 1031 436 999 q 447 1096 447 1064 q 444 1128 447 1117 q 440 1157 442 1140 q 441 1192 439 1172 q 440 1224 443 1213 q 428 1244 438 1235 q 410 1261 419 1253 q 392 1280 400 1269 q 385 1303 385 1290 q 411 1298 403 1301 q 435 1290 419 1294 q 460 1283 442 1288 q 483 1278 478 1279 q 508 1282 496 1278 q 533 1290 521 1286 q 555 1295 544 1294 q 576 1288 565 1296 q 568 1268 574 1271 q 556 1259 563 1265 q 545 1234 550 1253 q 540 1168 540 1215 q 533 1019 539 1093 q 536 874 528 946 q 542 803 539 840 q 549 731 544 765 l 542 297 q 553 258 542 278 q 576 219 565 238 q 582 211 581 213 q 584 209 583 210 q 586 206 585 208 q 590 199 588 204 q 577 191 582 192 q 568 192 572 190 q 559 197 564 194 q 546 200 554 200 q 537 201 544 200 q 520 202 529 201 q 502 203 511 203 q 489 203 493 203 q 464 205 471 203 q 453 208 457 207 q 448 209 450 210 q 438 204 446 208 q 429 196 431 200 q 414 189 428 192 q 392 190 401 186 q 386 213 382 194 q 394 225 389 222 q 404 235 399 228 q 415 259 410 242 q 426 317 421 276 q 431 351 428 329 q 436 396 433 372 q 441 440 439 419 q 442 472 443 461 q 436 527 438 511 q 435 553 435 543 q 435 574 435 563 q 436 619 436 586 q 435 693 435 653 q 436 774 436 733 q 388 773 408 774 q 349 771 368 772 q 311 767 331 769 q 265 758 292 764 l 228 744 q 226 744 226 746 q 224 743 225 743 q 222 714 224 728 q 219 689 221 700 q 220 672 219 676 q 222 667 221 668 q 224 663 222 665 q 228 650 226 660 q 229 594 231 632 q 225 510 228 556 q 220 423 222 465 q 218 354 218 381 q 251 321 232 343 q 275 282 271 299 q 258 265 264 268 q 245 263 251 261 q 229 270 239 265 q 203 276 219 275 q 179 282 185 279 q 156 286 174 285 q 125 283 136 288 q 106 272 114 278 q 91 264 99 267 q 74 267 83 261 q 83 288 74 281 q 103 303 92 296 q 123 321 114 311 q 135 350 132 331 q 135 401 136 364 q 131 480 133 438 q 127 564 129 522 q 125 629 125 606 q 133 690 126 661 q 138 750 140 718 q 131 887 132 821 q 131 1028 131 953 q 131 1092 131 1069 q 126 1125 131 1114 q 113 1141 122 1136 q 83 1153 103 1146 q 68 1160 72 1157 q 63 1169 64 1164 q 62 1181 61 1174 q 63 1203 63 1189 q 119 1205 92 1201 q 172 1201 147 1208 q 203 1197 193 1196 q 222 1201 214 1199 q 240 1205 231 1204 q 265 1197 249 1206 q 255 1177 263 1182 q 236 1158 247 1172 q 211 1112 214 1131 q 213 1076 208 1093 q 224 1038 218 1058 q 226 989 231 1018 q 225 960 224 969 q 228 938 226 950 q 231 876 231 907 q 229 821 232 846 q 281 817 254 817 q 334 820 307 818 q 387 826 361 822 q 435 832 413 829 z "},"l":{"ha":499,"x_min":42,"x_max":494,"o":"m 85 1307 q 109 1313 94 1313 q 139 1313 124 1314 q 170 1310 154 1311 q 200 1310 186 1308 q 255 1317 226 1313 q 304 1308 283 1321 q 291 1290 300 1296 q 272 1278 282 1283 q 251 1266 261 1272 q 238 1249 242 1260 q 229 1201 231 1233 q 228 1131 228 1168 q 229 1060 228 1094 q 231 1007 231 1025 q 225 943 228 974 q 219 882 222 913 q 213 839 215 849 q 211 825 211 829 q 213 813 211 821 q 217 778 214 806 q 217 709 218 757 q 215 609 215 661 q 214 509 214 557 q 219 440 214 461 q 226 418 222 428 q 231 392 229 408 q 232 363 232 376 q 233 335 232 350 q 285 337 264 332 q 325 344 307 342 q 366 340 344 349 q 415 332 388 332 q 436 360 429 347 q 447 389 443 374 q 456 419 453 407 q 463 437 460 431 q 472 444 467 443 q 489 443 478 444 q 491 426 490 439 q 492 398 492 414 q 494 368 493 382 q 494 349 494 354 q 491 300 494 325 q 481 256 488 275 q 476 254 479 254 q 475 253 476 253 l 472 253 l 468 253 l 428 254 q 403 253 410 253 q 393 254 396 253 q 389 258 390 256 q 379 263 388 260 q 357 265 368 267 q 334 259 346 263 q 307 253 322 256 q 272 250 292 250 q 206 252 228 251 q 170 251 185 253 q 141 246 156 250 q 94 233 126 242 q 53 228 64 225 q 42 241 42 232 q 51 261 43 250 q 68 278 60 272 q 84 284 82 286 q 99 288 86 282 q 110 293 107 290 q 122 299 114 296 q 120 421 118 363 q 129 542 122 479 q 134 617 133 574 q 135 706 135 661 q 134 795 135 751 q 133 871 133 839 l 140 1118 q 136 1146 139 1133 q 132 1176 133 1158 q 131 1227 131 1199 q 110 1274 132 1256 q 97 1282 101 1281 q 89 1285 92 1283 q 85 1290 86 1286 q 85 1307 85 1294 z "},"m":{"ha":742,"x_min":43,"x_max":725,"o":"m 383 939 q 396 963 389 947 q 410 996 403 978 q 422 1031 417 1014 q 429 1057 426 1047 q 453 1144 439 1103 q 500 1219 468 1185 l 506 1225 q 527 1253 522 1240 q 535 1276 532 1265 q 546 1299 538 1288 q 578 1324 554 1310 q 601 1337 593 1332 q 626 1332 608 1342 q 622 1316 624 1319 q 619 1312 621 1313 q 613 1310 617 1311 q 603 1300 610 1308 q 605 1239 610 1275 q 600 1171 600 1203 q 603 1138 600 1151 q 606 1108 606 1125 q 604 1076 607 1089 q 601 1047 601 1064 l 628 763 q 634 715 635 740 q 631 665 633 689 q 631 635 631 658 q 633 586 632 613 q 635 535 633 560 q 636 503 636 511 q 635 485 636 492 q 634 474 635 479 q 633 463 633 469 q 635 443 633 456 q 640 382 639 404 q 648 342 642 360 q 672 306 654 324 q 725 260 689 289 l 717 242 q 714 231 714 236 q 713 222 714 226 q 686 224 692 221 q 679 229 681 226 q 673 235 678 232 q 647 238 668 238 q 616 240 626 238 q 596 244 606 243 q 572 244 586 246 q 531 231 558 242 q 503 226 510 222 q 488 244 497 229 q 508 263 497 256 q 528 285 519 271 q 542 326 538 300 q 543 399 547 351 q 538 485 540 425 q 534 622 536 546 q 529 778 532 697 q 524 931 526 860 q 517 1053 521 1001 q 511 1117 514 1104 l 451 936 q 442 915 447 925 q 433 893 438 904 q 424 841 428 875 q 397 774 419 807 q 383 760 389 761 q 375 762 378 758 q 370 770 372 765 q 368 775 368 775 l 297 944 q 285 967 290 961 q 278 976 281 974 q 272 978 275 978 q 265 986 269 979 q 262 992 263 990 q 260 999 261 994 q 256 1010 260 1003 q 243 1031 253 1017 l 217 1076 q 202 1099 207 1092 q 186 1114 197 1107 q 183 1066 179 1093 q 185 1013 188 1039 q 177 929 178 956 q 178 888 176 903 q 185 857 181 872 q 190 808 189 842 q 194 779 192 783 q 199 772 197 775 q 201 758 201 769 q 194 707 200 746 l 194 485 q 215 410 199 438 q 246 368 231 383 q 270 344 261 353 q 269 326 279 336 q 244 324 254 317 q 217 336 235 332 q 162 343 183 343 q 126 339 140 343 q 99 329 111 335 q 71 322 88 324 q 64 321 64 321 q 57 322 64 321 q 50 324 49 324 q 44 326 51 324 q 49 341 43 333 q 63 359 56 349 q 78 383 71 369 q 88 415 86 397 q 89 481 90 444 q 90 550 88 518 q 101 682 97 621 q 104 814 104 743 q 103 949 103 879 q 97 1082 104 1018 q 94 1165 93 1135 q 93 1218 96 1194 q 84 1251 92 1240 q 68 1269 76 1263 q 53 1283 60 1276 q 49 1304 47 1290 q 90 1294 68 1304 q 140 1283 113 1285 q 142 1279 143 1279 q 140 1281 142 1279 q 139 1282 139 1282 q 143 1278 139 1282 q 155 1267 149 1271 q 169 1258 161 1264 q 187 1244 176 1253 q 211 1217 197 1235 q 244 1172 224 1200 q 271 1125 264 1144 q 287 1083 282 1094 q 296 1065 292 1071 q 306 1054 300 1060 q 326 1031 313 1049 q 339 1009 332 1022 q 353 982 346 996 q 369 956 361 968 q 383 939 376 944 z "},"r":{"ha":693,"x_min":65,"x_max":715,"o":"m 72 319 q 72 331 72 328 q 72 333 71 333 q 76 333 72 333 q 88 338 79 333 q 101 343 92 339 q 113 350 110 347 q 123 383 119 357 q 128 440 126 410 q 128 499 129 471 q 125 535 126 526 q 119 602 121 571 q 119 663 118 633 q 122 724 121 693 q 124 790 124 754 l 111 1174 q 103 1199 111 1190 q 88 1217 96 1208 q 72 1235 79 1225 q 65 1261 65 1244 q 101 1259 86 1261 q 130 1253 117 1257 q 157 1248 143 1250 q 190 1246 171 1246 q 279 1251 243 1246 q 345 1250 315 1256 q 403 1221 375 1244 q 469 1142 432 1197 q 501 1059 499 1097 q 494 988 504 1021 q 469 929 485 956 q 443 883 453 903 q 423 843 431 858 q 407 817 415 828 q 388 794 399 806 q 361 764 378 782 q 388 697 371 732 q 419 626 406 663 q 432 589 428 606 q 444 553 436 572 q 457 526 449 542 q 475 494 465 511 q 494 463 485 478 q 506 438 503 447 q 518 402 514 414 q 528 380 522 390 q 546 356 535 369 q 579 315 557 342 q 617 291 597 294 q 655 292 636 288 q 689 301 674 296 q 714 306 704 307 l 715 293 q 703 260 714 275 q 676 234 692 246 q 644 213 661 222 q 613 196 626 204 q 610 195 611 196 q 608 194 610 194 q 560 192 588 183 q 540 206 549 196 q 521 225 532 217 q 487 262 510 233 q 440 324 464 290 q 395 387 415 357 q 369 426 375 417 l 340 538 q 328 599 333 581 q 317 629 322 618 q 308 653 313 640 q 294 699 303 667 q 274 744 286 732 q 222 747 263 757 q 217 669 217 707 q 218 599 217 631 q 221 545 219 568 q 219 514 222 522 q 217 494 218 508 q 217 464 217 481 q 219 431 218 447 q 225 407 221 415 q 237 388 228 401 q 253 367 246 374 q 264 355 260 358 q 272 350 268 351 q 278 345 275 349 q 285 333 281 342 q 238 323 251 324 q 217 324 224 322 q 203 328 210 326 q 176 328 197 331 q 152 323 167 326 q 122 317 138 319 q 92 314 106 314 q 72 319 79 314 m 226 779 q 235 783 233 782 q 236 783 236 783 q 236 783 236 783 q 240 786 236 783 q 265 798 250 790 q 293 814 279 806 q 319 831 307 822 q 336 846 331 839 q 351 876 346 857 q 360 910 356 894 q 370 945 365 932 q 376 988 375 958 q 379 1028 378 1006 q 380 1071 381 1050 q 375 1110 379 1092 q 361 1143 371 1129 q 334 1170 347 1161 q 305 1183 321 1179 q 269 1185 289 1186 q 221 1183 249 1185 q 211 1140 213 1161 q 211 1095 210 1118 q 215 1047 213 1072 q 215 988 217 1021 q 215 952 215 981 q 215 890 214 924 q 217 828 215 857 q 221 790 218 799 q 224 783 224 783 q 226 779 224 783 z "},"s":{"ha":461,"x_min":54,"x_max":418,"o":"m 218 240 q 244 240 232 238 q 267 244 256 242 q 285 251 283 250 q 292 271 288 253 q 294 283 293 279 q 297 291 296 288 q 299 299 297 294 q 304 310 300 303 q 315 358 315 331 q 310 413 315 385 q 295 468 304 442 q 281 515 286 494 q 266 560 272 546 q 252 583 260 574 q 235 603 244 592 q 210 640 225 615 q 189 669 199 657 q 168 697 179 682 q 149 727 158 713 q 129 757 140 742 q 115 778 118 772 q 110 790 113 785 q 105 802 108 796 q 92 824 101 808 q 76 857 81 839 q 67 896 71 875 q 56 987 54 951 q 67 1046 57 1022 q 91 1087 76 1069 q 118 1124 106 1104 q 129 1142 126 1135 q 136 1153 132 1149 q 149 1160 140 1157 q 174 1165 157 1163 q 260 1169 218 1172 q 342 1151 303 1167 q 344 1108 342 1138 q 344 1048 346 1079 q 337 992 343 1017 q 313 961 331 967 q 304 968 306 967 q 303 971 303 969 q 303 974 303 972 q 299 983 303 976 q 292 992 294 990 q 289 993 290 993 q 287 994 288 993 q 282 1003 286 996 q 275 1031 278 1013 q 269 1063 272 1049 q 241 1115 261 1089 q 206 1146 221 1140 q 178 1141 194 1149 q 157 1126 161 1133 q 153 1117 156 1125 q 149 1099 151 1108 q 144 1081 146 1090 q 140 1068 142 1072 q 140 1036 138 1056 q 147 997 142 1017 q 158 958 151 976 q 168 928 164 939 q 193 874 181 899 q 219 826 206 849 q 247 783 232 804 q 283 738 263 761 l 336 654 q 349 628 343 636 q 358 617 354 621 q 364 608 361 613 q 370 592 367 604 q 379 559 374 581 q 393 499 385 538 q 409 435 400 465 q 414 374 418 404 q 406 345 411 357 q 396 319 401 333 q 373 277 385 294 q 338 246 361 260 q 254 217 294 222 q 164 232 214 213 q 115 265 128 246 q 89 303 103 285 q 72 351 74 322 q 79 406 69 381 q 90 431 82 415 q 103 454 97 447 q 119 472 110 465 q 144 476 129 478 q 139 445 139 464 q 142 408 139 426 q 151 371 146 389 q 158 340 156 353 q 174 298 165 313 q 190 275 182 283 q 206 260 199 267 q 218 240 214 253 z "},"t":{"ha":608,"x_min":-11,"x_max":614,"o":"m -4 1251 q 8 1249 4 1250 q 14 1246 11 1247 q 23 1244 17 1244 q 43 1244 29 1243 q 111 1251 86 1250 q 152 1251 136 1253 q 181 1249 168 1250 q 215 1250 194 1247 q 269 1253 246 1254 q 316 1251 293 1253 q 367 1249 339 1250 q 436 1250 394 1247 q 499 1251 467 1253 q 558 1253 531 1250 q 592 1256 579 1254 q 610 1247 606 1258 q 610 1202 614 1235 q 597 1101 607 1169 q 597 1072 594 1085 q 597 1047 599 1060 q 584 1022 594 1024 q 569 1021 574 1021 q 567 1032 567 1031 q 567 1044 568 1033 q 567 1054 567 1053 q 567 1056 567 1056 q 565 1056 567 1056 q 561 1064 564 1057 q 556 1073 557 1072 q 553 1075 554 1074 q 552 1082 553 1076 q 550 1103 551 1088 q 539 1147 547 1119 q 522 1185 531 1174 l 371 1192 q 368 1131 372 1164 q 367 1067 364 1099 q 369 999 369 1031 q 371 942 369 967 q 378 876 372 910 q 382 814 385 842 q 378 797 381 803 q 376 779 376 792 l 381 704 q 383 670 382 690 q 385 629 385 650 q 384 589 385 608 q 382 556 383 569 q 384 493 379 526 q 392 425 389 460 q 395 372 394 386 q 401 351 396 357 q 421 337 407 344 q 464 304 435 329 q 490 275 475 293 q 507 239 506 257 q 476 235 489 232 q 454 243 464 239 q 433 250 446 246 q 408 258 421 254 q 382 265 394 263 q 361 268 369 268 q 314 264 336 268 q 273 255 292 260 q 240 247 254 250 q 218 244 225 243 q 203 252 201 249 q 217 268 206 256 q 244 302 232 288 q 265 333 257 317 q 275 374 272 350 q 275 436 278 399 q 272 515 272 465 q 270 619 271 564 q 270 725 269 674 q 274 808 271 776 l 257 1185 q 226 1183 253 1185 q 167 1180 199 1182 q 108 1175 135 1178 q 81 1168 82 1172 q 65 1119 68 1139 q 60 1085 61 1099 q 57 1065 60 1071 q 42 1058 54 1058 q 13 1081 19 1058 q 5 1109 6 1096 q 1 1138 4 1122 q -3 1167 -1 1153 q -7 1196 -4 1181 q -10 1216 -10 1210 q -10 1226 -11 1222 q -8 1235 -10 1231 q -4 1251 -7 1240 z "},"u":{"ha":735,"x_min":36,"x_max":707,"o":"m 454 1185 q 475 1198 458 1200 q 508 1193 492 1196 q 563 1192 532 1189 q 622 1197 593 1194 q 674 1201 651 1200 q 707 1196 697 1203 q 701 1182 704 1185 q 691 1178 697 1179 q 676 1175 685 1176 q 656 1164 668 1174 q 626 1126 635 1149 q 614 1076 617 1103 q 613 1022 611 1049 q 614 972 614 994 q 615 894 615 935 q 618 824 615 854 q 616 790 618 808 q 611 753 614 772 q 611 685 608 724 q 617 603 614 646 q 622 517 621 560 q 619 435 624 474 q 600 367 614 397 q 558 319 586 336 q 494 294 528 300 q 427 289 461 288 q 360 299 393 290 q 297 318 326 307 q 201 385 235 340 q 153 496 167 429 l 133 786 q 131 864 135 828 q 126 942 128 900 q 127 983 126 968 q 125 1011 128 999 q 112 1038 122 1024 q 79 1078 101 1053 q 65 1089 71 1086 q 54 1093 60 1092 q 44 1097 49 1094 q 36 1108 40 1100 q 81 1117 46 1113 q 156 1125 115 1122 q 231 1126 196 1128 q 276 1119 265 1125 q 274 1110 275 1113 q 263 1099 274 1108 q 242 1083 251 1092 q 224 1051 226 1069 q 221 1014 222 1033 q 220 1009 219 1010 q 221 1006 221 1008 q 223 960 222 996 q 224 882 224 924 q 226 803 225 840 q 231 754 228 767 q 241 694 238 731 q 246 631 244 657 q 249 564 247 590 q 254 515 250 538 q 269 469 258 492 q 300 415 279 446 q 310 401 307 406 q 316 394 313 397 q 324 387 319 390 q 340 376 329 383 l 357 367 q 390 356 374 357 q 424 358 407 354 q 456 371 440 363 q 483 389 471 379 q 511 449 504 406 q 519 544 518 492 q 521 653 521 597 q 528 749 521 708 q 536 840 536 804 q 533 899 536 875 q 526 944 529 924 q 524 992 522 964 q 524 1110 528 1075 q 510 1158 519 1146 q 485 1172 500 1171 q 454 1185 471 1172 z "},"v":{"ha":604,"x_min":-15,"x_max":626,"o":"m -15 1250 q 17 1260 -4 1257 q 63 1265 39 1264 q 111 1267 88 1267 q 150 1271 135 1268 q 185 1279 172 1274 q 228 1285 199 1285 q 257 1285 238 1285 q 291 1284 276 1286 q 310 1275 306 1282 q 296 1256 315 1268 q 256 1239 279 1243 q 213 1227 232 1235 q 183 1202 193 1219 q 181 1146 172 1185 l 215 994 q 226 960 221 972 q 236 924 232 947 l 306 628 q 315 594 310 615 q 327 551 321 572 q 340 511 333 529 q 351 489 347 493 q 356 535 353 515 q 363 574 358 556 q 372 610 367 592 q 385 653 378 629 q 399 705 394 689 q 405 734 403 721 q 408 765 407 747 q 414 821 410 782 q 424 899 417 851 q 438 998 432 947 q 445 1094 444 1049 q 435 1167 446 1140 q 416 1174 425 1172 q 398 1176 407 1175 q 381 1177 389 1176 q 364 1185 372 1178 q 365 1194 364 1192 q 369 1197 367 1196 q 375 1199 371 1199 q 388 1204 379 1200 q 438 1218 417 1215 q 492 1224 458 1221 q 531 1227 514 1226 q 569 1231 549 1228 q 604 1237 592 1233 q 626 1224 617 1240 q 608 1210 614 1213 q 594 1201 601 1207 q 578 1181 588 1196 q 549 1132 568 1167 q 533 1085 539 1114 q 522 1026 526 1057 q 514 968 518 996 q 506 925 510 940 q 492 866 499 901 q 477 792 485 831 q 463 718 469 754 q 450 660 456 682 q 443 618 447 647 q 435 556 439 589 q 426 492 431 522 q 419 447 422 461 q 391 348 410 403 q 361 246 372 293 q 352 215 356 224 q 322 204 349 206 q 313 235 318 217 q 304 273 308 253 q 296 313 300 293 q 288 346 292 332 q 281 383 283 365 q 274 421 279 401 q 265 453 269 436 q 257 486 261 471 q 240 558 247 521 q 226 632 233 596 l 193 769 q 177 842 182 806 q 160 913 172 878 q 135 973 146 947 q 117 1040 124 999 q 111 1076 114 1057 q 106 1115 108 1096 q 99 1153 103 1135 q 90 1186 96 1172 q 68 1215 83 1206 q 36 1228 53 1224 q 5 1238 19 1233 q -15 1250 -10 1242 z "},"z":{"ha":601,"x_min":61,"x_max":571,"o":"m 106 1032 q 93 1089 93 1057 q 96 1151 93 1121 q 99 1208 99 1182 q 86 1249 99 1235 q 72 1265 79 1257 q 63 1277 64 1272 q 70 1285 61 1282 q 104 1288 79 1288 q 129 1287 118 1288 q 154 1286 140 1286 q 238 1290 182 1286 q 356 1294 294 1293 q 469 1294 417 1296 q 543 1282 522 1292 q 528 1236 539 1261 q 508 1189 517 1211 q 492 1142 496 1153 q 490 1128 489 1132 q 492 1120 490 1125 q 488 1090 493 1115 l 447 958 q 441 944 444 951 q 435 928 438 936 q 424 889 428 910 q 406 839 419 868 q 397 820 400 826 q 390 808 393 814 q 385 797 386 803 q 382 781 383 790 l 307 561 q 288 522 293 536 q 281 501 282 508 q 281 488 281 493 q 276 474 281 482 q 271 461 272 461 q 269 463 269 461 q 267 463 268 465 q 263 446 267 461 q 260 430 258 432 q 258 415 261 428 q 251 394 258 413 q 237 353 244 375 q 222 314 229 332 q 214 294 215 296 q 244 290 231 289 q 272 294 257 292 q 316 300 299 300 q 349 301 333 300 q 381 308 365 301 q 421 331 397 314 q 479 384 453 356 q 521 457 506 413 l 531 478 q 555 453 547 467 q 565 426 563 439 q 567 399 568 413 q 567 378 567 386 q 567 345 565 360 q 565 310 568 331 q 567 277 564 289 q 568 260 571 265 q 551 253 565 254 q 500 251 538 251 q 470 249 479 251 q 439 243 461 246 q 389 240 411 242 q 347 234 367 238 q 306 226 326 231 q 260 215 285 221 q 215 206 243 211 q 160 199 188 201 q 108 199 132 197 q 76 211 85 201 q 74 213 75 214 q 74 213 74 213 q 74 216 74 213 q 74 229 74 219 q 74 238 74 236 q 74 240 74 240 q 76 241 75 240 q 78 244 76 242 q 95 287 88 268 q 110 324 103 306 q 122 361 117 342 q 132 406 128 381 l 268 839 q 269 842 269 842 l 336 1024 q 356 1074 344 1043 q 376 1133 367 1104 q 392 1182 386 1161 q 397 1204 399 1203 l 394 1206 q 369 1208 381 1210 q 347 1206 358 1207 q 323 1203 335 1204 q 296 1207 311 1203 q 264 1210 282 1211 q 228 1203 246 1208 q 195 1192 210 1199 q 174 1176 181 1185 l 167 1167 q 151 1137 154 1150 q 142 1101 147 1124 q 131 1055 133 1071 q 128 1033 129 1039 q 122 1028 126 1026 q 106 1032 118 1029 z "},"_":{"ha":733,"x_min":49,"x_max":697,"o":"m 660 35 q 598 36 625 35 q 545 39 571 38 q 494 42 519 40 q 436 42 468 43 q 401 44 415 40 q 368 47 386 47 q 333 44 349 47 q 303 43 318 42 q 208 42 238 42 q 169 43 178 43 q 164 43 160 43 q 170 42 168 43 q 165 38 172 40 q 125 28 157 35 q 107 25 118 25 q 89 22 96 25 q 76 17 79 19 q 65 13 72 14 q 49 31 49 13 q 50 68 49 49 q 51 81 51 76 q 54 93 51 85 l 69 117 q 76 121 71 118 q 83 124 82 124 l 93 129 q 124 138 101 135 q 172 142 146 140 q 221 144 197 143 q 257 144 244 144 q 332 146 307 144 q 368 149 357 147 q 385 152 379 151 q 403 151 390 153 q 442 146 415 150 q 522 133 468 142 q 566 130 547 129 q 601 133 585 131 q 631 138 617 135 q 663 139 646 140 q 673 124 669 128 q 679 119 676 121 q 684 116 682 118 q 690 106 686 114 q 697 68 697 92 q 672 52 676 56 q 667 47 667 49 q 669 44 668 46 q 660 35 669 43 z "},"-":{"ha":554,"x_min":63,"x_max":488,"o":"m 450 628 q 388 628 415 628 q 335 631 361 629 q 284 634 310 633 q 226 635 258 635 q 143 631 168 633 q 114 625 118 628 q 119 620 110 622 q 139 621 129 618 q 121 618 132 618 q 103 615 110 618 q 90 610 93 613 q 79 606 86 607 q 63 624 63 606 q 64 661 63 642 q 65 674 65 669 q 68 686 65 678 l 83 710 q 90 714 85 711 q 97 717 96 717 q 183 722 157 718 q 226 730 210 726 q 258 733 242 733 q 313 726 275 732 q 356 723 338 722 q 391 726 375 724 q 422 731 407 728 q 453 732 436 733 q 463 717 460 721 q 469 713 467 714 q 474 709 472 711 q 481 699 476 707 q 488 661 488 685 q 462 645 467 649 q 458 640 457 642 q 459 638 458 639 q 450 628 460 636 z "},"":{"ha":728,"x_min":40,"x_max":667,"o":"m 582 731 q 531 728 564 728 q 461 729 499 729 q 386 729 424 729 q 324 728 349 729 q 323 662 322 694 q 326 600 324 629 q 381 599 356 600 q 433 597 406 599 q 496 595 461 596 q 579 594 531 594 q 590 580 586 583 q 596 575 593 576 q 601 572 599 574 q 607 561 603 569 q 614 524 614 547 q 588 508 593 511 q 584 503 583 504 q 585 500 585 501 q 576 490 586 499 q 531 490 560 488 q 467 495 501 492 q 397 501 432 499 q 335 503 361 503 q 335 492 335 496 q 336 486 336 489 q 340 458 336 471 q 350 432 344 444 q 361 407 356 419 q 368 382 367 394 q 369 364 369 369 q 368 354 368 358 q 368 345 368 350 q 372 331 368 340 q 393 285 381 308 q 422 243 406 263 q 458 210 438 224 q 504 194 478 197 q 526 197 514 193 q 551 208 539 201 q 574 222 564 214 q 590 238 585 229 q 607 278 603 257 q 615 318 611 300 q 628 349 619 336 q 658 364 638 361 q 665 344 663 357 q 667 319 667 332 q 665 292 667 306 q 663 274 664 279 l 660 269 q 652 242 654 253 q 647 223 650 232 q 637 204 644 214 q 613 179 629 194 q 529 125 569 140 q 429 125 489 110 q 395 142 417 128 q 351 176 374 157 q 308 214 328 194 q 281 246 288 233 q 238 335 256 290 q 210 438 221 379 q 206 460 207 444 q 204 497 206 475 q 174 498 182 497 q 166 499 167 499 q 167 498 165 499 q 166 496 168 497 q 153 491 164 494 q 117 483 143 488 q 99 481 110 481 q 81 478 88 481 q 67 472 71 475 q 57 468 64 469 q 40 486 40 468 q 42 524 40 504 q 43 536 43 532 q 46 549 43 540 l 61 572 q 68 576 63 574 q 75 579 74 579 l 85 585 q 133 594 97 592 q 201 599 168 597 q 201 665 201 632 q 203 724 201 697 q 172 724 174 724 q 172 724 171 725 q 167 720 174 724 q 122 710 160 717 q 104 707 115 707 q 86 704 93 707 q 73 699 76 701 q 63 694 69 696 q 46 713 46 694 q 47 750 46 731 q 49 763 49 758 q 51 775 49 767 l 67 799 q 74 803 68 800 q 81 806 79 806 l 90 811 q 144 822 104 818 q 218 826 183 825 q 224 856 221 842 q 233 888 228 871 q 267 981 247 931 q 317 1074 288 1032 q 385 1144 346 1117 q 479 1171 425 1172 q 531 1163 503 1171 q 579 1140 560 1154 q 597 1115 583 1138 q 624 1063 610 1093 q 648 1002 639 1033 q 653 950 657 971 q 638 941 650 940 q 612 947 626 942 q 584 961 597 953 q 567 974 571 969 q 546 1017 554 989 q 528 1065 538 1044 q 515 1087 524 1075 q 497 1106 507 1099 q 474 1114 486 1114 q 449 1101 461 1114 q 418 1054 435 1088 q 385 982 401 1021 q 358 906 369 943 q 340 847 346 868 q 335 825 338 839 q 388 826 363 825 q 440 830 413 828 q 503 833 468 832 q 585 835 538 835 q 595 820 592 824 q 601 815 599 817 q 606 812 604 814 q 613 801 608 810 q 619 764 619 788 q 594 748 599 751 q 590 743 589 744 q 591 740 590 742 q 582 731 592 739 z "},"":{"ha":704,"x_min":54,"x_max":665,"o":"m 54 1403 q 104 1402 78 1404 q 154 1403 131 1400 q 166 1404 163 1403 q 173 1406 169 1406 q 181 1408 176 1407 q 196 1408 186 1408 l 303 1413 q 307 1414 306 1413 q 334 1420 318 1418 q 365 1424 350 1422 q 394 1424 381 1425 q 414 1421 407 1424 q 399 1397 411 1408 q 378 1379 388 1385 l 350 1361 q 347 1358 347 1361 l 340 1354 q 323 1322 329 1344 q 313 1270 317 1299 q 306 1213 308 1242 q 301 1163 304 1183 q 298 1134 299 1146 q 297 1106 297 1122 l 299 1067 l 299 1065 q 320 1099 311 1083 q 342 1129 329 1114 q 447 1199 389 1188 q 563 1163 504 1210 q 587 1133 581 1147 q 603 1097 593 1119 l 633 1021 q 644 981 639 1004 q 653 931 649 957 q 660 881 657 906 q 664 840 663 857 q 665 767 665 806 q 663 690 665 729 q 653 614 660 651 q 633 546 646 576 q 592 468 617 501 q 534 416 567 435 q 460 395 501 397 q 372 413 419 393 q 339 435 356 419 q 311 458 322 451 q 313 443 314 449 q 314 429 313 438 q 315 372 315 406 q 317 305 315 339 q 321 241 318 271 q 332 197 324 211 q 351 170 338 186 q 376 138 364 154 q 394 108 388 122 q 394 89 400 94 q 394 86 393 88 q 394 83 394 85 q 391 83 394 82 q 379 88 388 83 l 371 94 q 365 99 367 99 q 339 108 358 103 q 297 117 319 113 q 256 124 275 121 q 232 126 238 126 q 219 125 218 125 q 211 122 221 125 l 208 122 l 183 110 q 153 90 161 97 q 140 78 144 82 q 127 71 135 74 q 99 67 119 68 q 115 90 106 82 q 134 110 124 99 q 155 139 144 121 q 174 192 165 157 q 178 231 178 210 q 176 275 178 253 q 172 319 174 297 q 171 363 171 342 q 173 644 174 504 q 178 928 172 785 q 183 1022 181 975 q 182 1114 185 1069 q 177 1197 179 1154 q 165 1275 175 1239 q 131 1337 154 1311 q 60 1371 107 1363 q 63 1383 61 1381 q 67 1385 65 1385 q 67 1385 68 1385 q 63 1390 67 1385 q 61 1391 63 1392 q 58 1390 60 1390 q 56 1393 57 1390 q 54 1403 54 1396 m 403 1101 q 369 1081 379 1096 q 347 1047 358 1065 q 326 1010 335 1026 q 310 967 318 994 q 301 919 303 944 q 297 867 299 893 q 299 857 297 860 q 301 851 300 854 q 302 843 301 849 q 301 825 303 838 q 298 802 299 808 q 300 778 297 796 q 303 699 303 731 q 306 635 303 667 q 308 569 310 600 q 313 513 307 538 q 340 472 319 488 q 408 453 360 456 q 446 465 429 451 q 475 498 463 478 q 494 542 488 518 q 504 586 501 565 q 510 635 507 608 q 517 688 514 661 q 521 740 519 715 q 522 785 522 765 q 519 835 522 801 q 513 906 517 869 q 502 976 508 943 q 489 1022 496 1008 q 475 1047 483 1032 q 456 1076 467 1063 q 433 1097 446 1089 q 403 1101 419 1106 z "},"":{"ha":854,"x_min":72,"x_max":814,"o":"m 72 1425 q 115 1422 97 1424 q 151 1419 133 1419 q 187 1420 168 1418 q 231 1429 206 1422 l 382 1446 q 400 1451 396 1449 q 419 1456 404 1454 q 440 1457 431 1458 q 460 1457 449 1456 q 494 1463 479 1460 q 535 1467 510 1467 q 613 1445 581 1467 q 661 1390 644 1424 q 679 1314 678 1356 q 667 1233 681 1272 q 653 1201 660 1217 q 638 1168 646 1185 q 606 1101 621 1135 q 582 1031 590 1067 q 575 958 574 996 q 593 881 576 921 q 620 819 607 849 q 647 760 633 789 q 661 732 654 744 q 676 701 668 719 q 690 674 683 686 q 704 646 697 661 q 738 563 717 617 q 776 448 758 508 q 804 329 794 388 q 801 236 814 271 q 790 203 794 217 q 778 178 785 189 q 762 156 771 167 q 738 129 753 144 l 713 108 q 678 93 696 96 q 644 92 661 90 q 610 100 628 94 q 575 110 593 106 q 559 113 571 111 q 532 117 547 114 q 502 126 517 121 q 479 138 488 131 q 489 157 482 157 q 511 156 496 157 q 540 154 524 156 q 568 154 556 153 q 599 157 588 154 q 617 165 610 160 q 629 176 625 169 q 639 189 633 182 q 658 267 660 219 q 644 364 657 314 q 614 460 632 414 q 586 538 596 507 q 572 577 579 558 q 557 617 565 596 q 542 653 550 636 q 525 692 533 671 q 486 767 508 736 q 449 833 464 799 q 435 910 435 867 q 460 1019 435 953 q 488 1098 471 1049 q 517 1201 504 1147 q 535 1302 531 1254 q 526 1376 539 1350 q 503 1409 518 1393 q 460 1422 488 1425 q 438 1409 451 1422 q 412 1381 425 1396 q 389 1351 399 1365 q 378 1335 379 1338 q 371 1316 374 1325 q 365 1296 368 1307 q 358 1250 363 1271 q 350 1206 354 1229 q 347 1162 347 1193 q 347 1089 346 1131 q 348 1000 347 1047 q 351 910 349 953 q 354 835 353 868 q 357 786 356 801 q 362 687 361 742 q 363 576 363 632 q 363 466 363 519 q 367 372 363 413 q 367 318 368 344 q 368 266 364 290 q 369 225 372 242 q 367 203 368 214 q 367 178 365 193 q 394 125 371 150 q 442 88 417 100 q 463 79 457 81 q 472 67 468 78 q 473 62 472 65 q 471 56 474 58 q 460 54 468 54 q 435 60 453 54 q 370 72 406 69 q 300 71 335 74 q 233 60 265 68 q 179 39 201 51 q 176 36 176 36 q 151 26 168 32 q 117 36 133 21 q 138 48 129 44 q 153 55 146 51 q 169 63 161 58 q 190 79 178 68 q 203 93 199 86 q 206 119 208 100 q 203 150 201 138 q 207 172 204 163 q 212 191 210 182 q 213 214 214 200 q 210 243 210 233 q 210 260 210 253 q 210 275 210 267 q 208 300 210 283 q 210 326 207 319 q 213 351 213 332 l 214 442 q 215 445 214 443 q 217 449 217 447 q 222 456 221 457 q 222 454 222 456 q 222 453 222 453 q 224 463 222 454 q 223 467 224 467 q 222 469 222 468 q 216 503 217 490 q 216 526 215 517 q 219 544 217 536 q 221 558 221 551 l 219 693 q 223 799 225 749 q 221 904 221 850 q 219 952 221 925 q 215 1008 217 979 q 210 1066 213 1038 q 204 1115 207 1094 q 199 1175 199 1150 q 198 1221 199 1200 q 195 1261 197 1242 q 183 1304 193 1281 q 153 1360 167 1344 q 126 1383 139 1376 q 99 1397 113 1390 q 72 1425 86 1403 z "},"":{"ha":919,"x_min":22,"x_max":878,"o":"m 22 1418 q 47 1417 38 1419 q 65 1411 57 1414 q 83 1405 74 1408 q 110 1401 93 1401 l 493 1418 q 510 1420 501 1419 q 529 1424 518 1421 l 529 1432 q 547 1433 535 1433 q 575 1431 560 1432 q 660 1442 618 1438 q 731 1443 703 1447 q 765 1449 746 1446 q 801 1456 783 1453 q 842 1456 817 1458 q 878 1446 867 1454 q 875 1440 875 1442 q 873 1438 875 1439 q 866 1434 871 1436 q 851 1425 861 1432 q 835 1416 842 1418 q 825 1413 829 1414 q 817 1408 821 1411 q 808 1396 814 1404 q 801 1382 806 1389 q 781 1328 790 1358 q 775 1271 772 1299 q 778 1178 779 1224 q 781 1104 778 1133 q 784 1071 782 1083 q 785 1040 786 1058 q 783 955 783 999 q 788 874 782 911 q 796 796 793 829 q 792 724 799 763 l 797 533 q 797 487 797 513 q 797 435 796 461 q 801 385 797 408 q 814 346 804 361 q 827 331 821 335 q 840 324 833 326 q 851 317 846 321 q 861 306 857 314 q 851 294 851 294 q 836 294 850 294 q 766 299 803 296 q 710 297 729 301 q 674 285 692 293 q 641 269 657 278 q 610 255 625 261 q 583 249 596 249 q 602 275 589 265 q 630 294 615 285 q 656 314 644 303 q 671 343 668 325 l 658 681 q 660 723 657 699 q 664 763 663 747 q 664 815 665 779 q 660 890 663 850 q 657 966 658 929 q 656 1021 656 1003 q 662 1103 657 1064 q 668 1178 667 1142 q 664 1253 669 1215 q 639 1336 658 1292 q 622 1357 632 1349 q 563 1353 594 1357 q 504 1346 532 1350 q 453 1340 476 1342 q 418 1340 431 1338 q 408 1343 411 1342 q 401 1345 404 1344 q 392 1346 397 1346 q 375 1344 386 1346 q 320 1340 339 1340 q 292 1338 301 1339 q 281 1335 283 1338 q 278 1324 279 1332 q 277 1306 275 1315 q 279 1285 279 1296 q 280 1248 281 1258 q 278 1231 279 1238 q 276 1215 276 1224 q 278 1185 275 1207 q 278 1158 279 1172 q 278 1135 278 1144 q 282 1017 281 1072 q 279 896 283 963 l 356 903 q 376 933 368 915 q 388 969 383 950 q 395 1009 392 989 q 406 1046 399 1029 q 424 1053 407 1047 q 454 1058 442 1060 q 454 1035 457 1043 q 446 1015 451 1026 q 438 997 440 1001 q 436 978 436 993 q 440 926 439 947 q 438 874 440 906 q 438 779 433 828 q 446 685 443 731 q 416 686 424 683 q 407 697 408 689 q 405 717 406 704 q 396 746 404 729 q 379 784 385 769 q 356 815 374 799 l 264 788 l 286 176 q 308 137 292 150 q 342 114 324 124 q 376 94 360 104 q 400 61 393 83 q 379 58 386 56 q 361 64 372 61 q 319 78 332 74 q 296 83 306 82 q 274 82 286 83 q 239 78 263 81 q 202 75 215 75 q 177 74 189 75 q 150 68 165 72 q 107 53 135 64 q 86 46 93 47 q 76 46 79 44 q 72 49 72 47 q 72 51 72 51 q 77 63 75 60 q 82 67 79 65 q 89 71 85 68 q 100 82 93 74 q 116 103 107 90 q 133 132 125 117 q 146 163 140 147 q 151 190 151 178 q 146 313 151 250 q 136 435 140 376 q 131 457 133 453 q 126 476 128 461 q 125 526 122 500 q 128 575 128 551 q 127 597 128 583 q 126 624 126 610 q 124 650 125 638 q 124 669 124 663 q 124 742 122 704 q 129 816 126 779 q 134 888 132 853 q 135 956 136 924 q 134 993 135 969 q 134 1042 133 1017 q 136 1093 135 1068 q 140 1135 138 1118 q 145 1165 144 1154 q 146 1185 146 1176 q 144 1204 146 1194 q 142 1232 143 1214 q 139 1294 139 1274 q 135 1326 139 1315 q 117 1345 131 1338 q 75 1369 104 1353 q 38 1390 51 1382 q 22 1418 25 1399 z "},"":{"ha":922,"x_min":-76,"x_max":861,"o":"m 436 1463 q 474 1459 458 1461 q 515 1457 489 1457 q 556 1458 535 1457 q 597 1458 578 1458 q 678 1469 644 1460 q 732 1483 711 1478 q 764 1483 753 1488 q 779 1454 775 1479 q 783 1415 782 1433 q 786 1376 783 1397 q 790 1341 788 1357 q 794 1310 792 1325 q 799 1281 796 1296 q 806 1246 803 1265 l 790 1235 q 784 1227 785 1229 q 783 1224 783 1225 q 779 1222 782 1222 q 768 1221 776 1222 q 760 1234 761 1229 q 758 1247 760 1239 q 750 1267 756 1254 q 729 1306 744 1281 q 717 1327 722 1318 q 707 1344 713 1336 q 694 1360 701 1353 q 674 1374 686 1367 q 624 1390 653 1385 q 567 1390 594 1394 q 524 1372 535 1386 q 514 1324 514 1358 q 512 1270 514 1297 q 515 1221 510 1243 q 520 1163 524 1188 q 518 1106 517 1138 q 526 1008 521 1057 q 528 901 531 958 q 594 931 578 906 q 613 988 611 956 q 613 1051 615 1019 q 621 1099 610 1082 q 638 1090 633 1099 q 643 1070 643 1082 q 641 1045 643 1058 q 639 1024 639 1032 q 642 969 639 997 q 647 914 644 942 q 664 825 651 860 q 685 769 676 790 q 694 740 694 749 q 675 728 694 731 q 651 730 660 725 q 638 742 643 735 q 630 758 632 750 q 626 772 628 767 q 608 830 615 811 q 592 855 601 849 q 569 860 583 861 q 531 856 556 858 l 544 581 q 550 452 542 521 q 567 319 558 383 q 582 262 571 286 q 631 232 593 238 q 711 225 679 225 q 763 237 743 225 q 790 276 782 249 q 801 349 799 303 q 801 392 803 374 q 801 422 800 410 q 806 442 801 435 q 825 451 811 449 q 836 424 831 442 q 845 387 842 407 q 851 347 849 367 q 853 315 853 328 l 861 158 q 852 153 854 154 q 850 153 850 153 q 849 151 850 153 q 847 143 849 149 q 827 159 835 156 q 794 163 819 163 q 758 163 776 164 q 722 164 740 163 q 699 165 707 165 q 684 164 692 164 q 668 165 676 164 q 646 168 660 165 l 478 174 q 448 170 465 174 q 414 164 431 167 q 383 160 397 161 q 360 164 368 160 q 386 183 367 176 q 428 214 406 190 q 442 253 443 232 q 438 294 442 275 q 435 331 436 300 q 433 400 435 363 q 432 471 432 438 q 433 515 432 504 q 342 516 388 514 q 253 508 296 518 q 241 428 249 481 q 226 319 233 376 q 215 210 219 263 q 214 132 211 158 q 223 103 215 117 q 242 78 231 90 q 265 57 253 67 q 290 42 278 47 l 297 39 q 313 30 313 32 q 317 19 314 28 q 297 16 310 15 q 271 19 285 17 q 243 26 257 22 q 217 31 229 29 q 169 35 194 33 q 114 42 143 36 q 35 42 64 50 q -13 23 6 33 q -45 6 -32 13 q -75 11 -58 0 q -76 18 -75 17 q -75 21 -76 19 q -67 26 -74 22 q -46 39 -61 29 q -10 66 -28 49 q 22 103 7 83 q 47 142 36 122 q 61 179 57 163 q 65 208 65 197 q 72 244 64 219 l 75 253 q 76 263 75 258 q 78 271 76 267 q 82 292 81 279 q 86 319 83 306 q 97 373 93 351 q 106 415 101 394 q 115 460 110 436 q 132 522 121 485 q 158 620 144 568 q 178 725 171 672 q 186 768 181 743 q 199 821 192 793 q 214 876 207 849 q 226 925 221 903 q 240 976 231 946 q 262 1040 250 1007 q 285 1106 274 1074 q 303 1160 296 1138 q 309 1176 307 1172 q 313 1183 311 1181 q 317 1188 315 1185 q 324 1201 319 1190 q 331 1226 328 1214 q 338 1250 333 1238 q 355 1294 347 1272 q 372 1339 363 1317 l 436 1463 m 249 571 q 292 576 272 576 q 338 576 313 576 q 380 580 361 576 q 421 585 399 583 l 411 793 q 416 858 413 828 q 413 925 419 889 q 404 996 406 958 q 403 1027 404 1007 q 402 1068 403 1047 q 399 1106 401 1089 q 394 1131 397 1124 q 385 1107 392 1126 q 370 1060 378 1088 q 353 1001 363 1033 q 337 941 344 969 q 323 890 329 913 q 315 857 317 867 q 306 822 311 838 q 294 790 300 806 q 284 757 289 774 q 276 718 279 740 q 261 644 271 678 q 249 571 251 611 z "},"":{"ha":883,"x_min":3,"x_max":840,"o":"m 439 908 q 459 972 450 926 q 483 1072 468 1018 q 523 1179 499 1126 q 588 1267 547 1232 q 606 1282 597 1275 q 622 1294 614 1289 q 642 1303 631 1299 q 672 1311 654 1307 q 743 1308 717 1322 q 794 1269 769 1294 q 796 1267 796 1267 q 813 1243 807 1256 q 822 1215 818 1231 q 826 1192 824 1208 q 831 1160 829 1176 q 836 1129 833 1143 q 840 1113 839 1115 q 799 1099 825 1101 q 753 1086 772 1097 l 714 1057 q 713 1056 713 1057 q 711 1056 713 1056 q 701 1050 704 1051 q 683 1056 697 1049 q 688 1072 683 1069 q 699 1078 692 1074 q 715 1095 706 1082 q 736 1144 724 1108 q 744 1170 739 1153 q 753 1206 749 1188 q 760 1240 757 1224 q 764 1263 764 1256 q 755 1258 754 1258 q 750 1256 756 1258 q 747 1253 747 1253 l 668 1156 q 646 1117 653 1131 q 633 1090 639 1103 q 622 1060 628 1076 q 604 1017 615 1044 q 583 967 593 989 q 569 910 574 946 q 596 910 579 910 q 629 912 613 911 q 660 914 646 913 q 682 919 675 915 q 696 928 688 922 q 713 939 704 933 q 733 946 722 944 q 751 942 743 947 q 750 931 751 933 q 747 927 749 929 q 743 920 746 925 q 739 899 740 915 q 733 872 736 882 q 729 846 731 861 q 713 847 718 846 q 706 850 708 849 q 700 853 703 851 q 689 854 697 854 q 656 854 676 854 q 616 853 636 854 q 578 851 596 853 q 551 847 560 850 q 547 833 550 844 q 541 808 544 822 q 535 782 538 794 q 532 764 533 769 q 499 647 518 703 q 465 524 481 592 q 448 440 456 482 q 429 358 440 399 q 423 338 426 346 q 417 318 419 329 q 413 298 414 307 q 407 276 411 289 q 390 216 399 242 q 370 168 382 190 q 340 125 358 146 q 296 82 322 104 q 249 64 288 75 q 165 53 211 53 q 74 69 118 53 q 11 135 31 86 q 11 172 3 154 q 24 210 19 189 q 31 252 28 233 q 42 290 33 271 q 73 288 50 292 q 121 280 96 285 q 167 269 146 275 q 193 261 188 264 q 183 247 190 249 q 147 242 176 244 q 110 228 124 239 q 88 201 96 217 q 78 165 81 185 q 75 124 75 144 q 85 115 82 119 q 93 106 89 110 q 103 99 97 101 q 122 97 110 97 q 150 103 139 97 q 172 118 161 108 q 240 200 215 153 q 281 300 265 247 q 309 408 297 353 q 336 514 321 464 q 344 542 339 528 q 353 565 350 557 l 414 842 q 316 834 353 840 q 260 824 279 828 q 239 826 242 821 q 243 850 236 831 l 263 915 q 306 913 289 915 q 350 913 322 911 q 394 910 374 914 q 439 908 414 906 z "},"":{"ha":844,"x_min":58,"x_max":786,"o":"m 785 188 q 741 183 761 186 q 697 190 721 179 q 690 197 693 193 q 657 194 686 201 q 638 190 647 192 q 618 186 628 189 l 538 167 q 493 153 515 164 q 444 133 471 142 q 383 119 417 124 q 306 125 350 115 q 233 153 263 135 q 181 197 203 172 q 142 253 158 222 q 111 318 125 285 q 94 365 99 346 q 88 400 89 383 q 85 434 86 417 q 78 476 83 451 q 73 498 75 488 q 71 519 71 508 q 65 588 71 551 q 65 656 58 624 l 67 675 q 63 712 64 697 q 63 739 63 726 q 65 766 64 751 q 68 804 65 781 q 80 896 71 850 q 89 981 89 942 q 88 1006 89 999 q 88 1019 88 1014 q 91 1032 89 1025 q 99 1057 93 1039 q 104 1083 103 1072 q 108 1103 106 1093 q 112 1126 110 1114 q 121 1156 114 1138 q 124 1164 124 1158 l 139 1210 q 153 1244 146 1225 q 172 1275 161 1263 q 192 1297 179 1283 q 220 1324 206 1310 q 249 1349 235 1338 q 274 1364 263 1360 q 326 1372 297 1374 q 379 1364 354 1371 q 394 1358 393 1360 q 397 1353 396 1356 q 402 1347 397 1351 q 426 1338 407 1343 q 453 1330 446 1332 q 467 1328 461 1328 q 481 1329 472 1328 q 508 1332 489 1331 l 689 1343 q 725 1344 711 1343 q 746 1342 739 1344 q 756 1335 753 1340 q 763 1318 760 1329 q 774 1240 769 1285 q 782 1156 778 1196 q 766 1144 774 1150 q 746 1144 758 1138 q 733 1162 735 1151 q 721 1188 732 1172 q 708 1208 711 1200 q 704 1222 706 1215 q 702 1235 703 1228 q 697 1257 701 1243 q 693 1258 693 1257 l 681 1261 q 672 1264 678 1263 q 665 1265 667 1265 q 644 1267 658 1267 q 615 1265 631 1267 q 585 1260 599 1264 q 567 1247 572 1256 q 559 1213 560 1236 q 560 1164 558 1190 q 563 1113 561 1138 q 561 1071 564 1088 l 556 1050 l 556 1046 q 547 979 547 1014 q 547 913 546 944 q 548 857 547 882 q 544 821 549 832 q 563 822 550 821 q 590 824 576 822 q 616 830 604 826 q 629 838 628 833 l 629 839 q 630 840 629 840 q 631 842 631 840 l 638 867 q 640 886 639 876 q 643 903 640 896 q 646 920 644 913 q 650 938 647 928 q 653 952 653 951 q 661 963 653 953 l 679 957 q 683 926 682 947 q 683 881 683 906 q 683 831 683 856 q 682 793 682 807 q 685 741 683 756 q 688 716 686 726 q 688 688 689 706 q 683 628 688 671 l 658 629 q 653 647 654 639 q 650 665 653 656 q 644 694 644 685 q 642 710 643 703 q 637 729 640 718 q 622 765 633 740 l 557 735 q 554 708 554 731 q 555 655 554 685 q 556 595 556 625 q 556 549 556 565 q 557 534 556 539 q 560 525 558 529 q 562 516 561 521 q 563 501 563 511 q 562 381 560 439 q 569 260 564 322 l 722 258 q 736 300 729 276 q 744 349 743 324 q 744 374 746 364 q 747 394 743 383 q 751 404 749 399 q 760 413 754 410 q 775 414 771 418 q 776 408 776 411 q 784 375 782 401 q 786 317 786 349 q 785 257 786 286 q 783 218 785 228 l 785 188 m 450 204 q 444 284 449 244 q 436 362 440 324 q 431 437 432 400 q 433 511 429 474 q 443 646 442 586 q 442 760 444 706 q 435 872 439 815 q 432 996 432 928 q 433 1053 432 1018 q 435 1124 435 1088 q 436 1192 436 1160 q 433 1244 436 1225 q 415 1270 431 1260 q 383 1282 400 1281 q 322 1267 350 1283 q 274 1223 294 1250 q 240 1163 253 1196 q 222 1099 226 1129 q 205 974 213 1028 q 194 867 197 919 q 192 756 192 815 q 200 617 193 697 q 209 514 204 569 q 226 403 214 458 q 259 301 238 349 q 318 221 281 253 q 382 197 342 201 q 450 204 422 193 z "},"":{"ha":922,"x_min":-76,"x_max":861,"o":"m 436 1463 q 474 1459 458 1461 q 515 1457 489 1457 q 556 1458 535 1457 q 597 1458 578 1458 q 678 1469 644 1460 q 732 1483 711 1478 q 764 1483 753 1488 q 779 1454 775 1479 q 783 1415 782 1433 q 786 1376 783 1397 q 790 1341 788 1357 q 794 1310 792 1325 q 799 1281 796 1296 q 806 1246 803 1265 l 790 1235 q 784 1227 785 1229 q 783 1224 783 1225 q 779 1222 782 1222 q 768 1221 776 1222 q 760 1234 761 1229 q 758 1247 760 1239 q 750 1267 756 1254 q 729 1306 744 1281 q 717 1327 722 1318 q 707 1344 713 1336 q 694 1360 701 1353 q 674 1374 686 1367 q 624 1390 653 1385 q 567 1390 594 1394 q 524 1372 535 1386 q 514 1324 514 1358 q 512 1270 514 1297 q 515 1221 510 1243 q 520 1163 524 1188 q 518 1106 517 1138 q 526 1008 521 1057 q 528 901 531 958 q 594 931 578 906 q 613 988 611 956 q 613 1051 615 1019 q 621 1099 610 1082 q 638 1090 633 1099 q 643 1070 643 1082 q 641 1045 643 1058 q 639 1024 639 1032 q 642 969 639 997 q 647 914 644 942 q 664 825 651 860 q 685 769 676 790 q 694 740 694 749 q 675 728 694 731 q 651 730 660 725 q 638 742 643 735 q 630 758 632 750 q 626 772 628 767 q 608 830 615 811 q 592 855 601 849 q 569 860 583 861 q 531 856 556 858 l 544 581 q 550 452 542 521 q 567 319 558 383 q 582 262 571 286 q 631 232 593 238 q 711 225 679 225 q 763 237 743 225 q 790 276 782 249 q 801 349 799 303 q 801 392 803 374 q 801 422 800 410 q 806 442 801 435 q 825 451 811 449 q 836 424 831 442 q 845 387 842 407 q 851 347 849 367 q 853 315 853 328 l 861 158 q 852 153 854 154 q 850 153 850 153 q 849 151 850 153 q 847 143 849 149 q 827 159 835 156 q 794 163 819 163 q 758 163 776 164 q 722 164 740 163 q 699 165 707 165 q 684 164 692 164 q 668 165 676 164 q 646 168 660 165 l 478 174 q 448 170 465 174 q 414 164 431 167 q 383 160 397 161 q 360 164 368 160 q 386 183 367 176 q 428 214 406 190 q 442 253 443 232 q 438 294 442 275 q 435 331 436 300 q 433 400 435 363 q 432 471 432 438 q 433 515 432 504 q 342 516 388 514 q 253 508 296 518 q 241 428 249 481 q 226 319 233 376 q 215 210 219 263 q 214 132 211 158 q 223 103 215 117 q 242 78 231 90 q 265 57 253 67 q 290 42 278 47 l 297 39 q 313 30 313 32 q 317 19 314 28 q 297 16 310 15 q 271 19 285 17 q 243 26 257 22 q 217 31 229 29 q 169 35 194 33 q 114 42 143 36 q 35 42 64 50 q -13 23 6 33 q -45 6 -32 13 q -75 11 -58 0 q -76 18 -75 17 q -75 21 -76 19 q -67 26 -74 22 q -46 39 -61 29 q -10 66 -28 49 q 22 103 7 83 q 47 142 36 122 q 61 179 57 163 q 65 208 65 197 q 72 244 64 219 l 75 253 q 76 263 75 258 q 78 271 76 267 q 82 292 81 279 q 86 319 83 306 q 97 373 93 351 q 106 415 101 394 q 115 460 110 436 q 132 522 121 485 q 158 620 144 568 q 178 725 171 672 q 186 768 181 743 q 199 821 192 793 q 214 876 207 849 q 226 925 221 903 q 240 976 231 946 q 262 1040 250 1007 q 285 1106 274 1074 q 303 1160 296 1138 q 309 1176 307 1172 q 313 1183 311 1181 q 317 1188 315 1185 q 324 1201 319 1190 q 331 1226 328 1214 q 338 1250 333 1238 q 355 1294 347 1272 q 372 1339 363 1317 l 436 1463 m 249 571 q 292 576 272 576 q 338 576 313 576 q 380 580 361 576 q 421 585 399 583 l 411 793 q 416 858 413 828 q 413 925 419 889 q 404 996 406 958 q 403 1027 404 1007 q 402 1068 403 1047 q 399 1106 401 1089 q 394 1131 397 1124 q 385 1107 392 1126 q 370 1060 378 1088 q 353 1001 363 1033 q 337 941 344 969 q 323 890 329 913 q 315 857 317 867 q 306 822 311 838 q 294 790 300 806 q 284 757 289 774 q 276 718 279 740 q 261 644 271 678 q 249 571 251 611 z "},"":{"ha":621,"x_min":-3,"x_max":660,"o":"m 339 1401 q 328 1400 329 1401 q 327 1398 326 1399 q 326 1397 328 1397 q 313 1396 324 1396 q 275 1406 289 1393 q 254 1440 261 1419 q 232 1482 247 1460 q 201 1528 217 1504 q 189 1542 200 1529 q 163 1574 178 1556 q 134 1613 149 1593 q 111 1647 119 1632 q 99 1669 103 1664 q 92 1676 94 1675 q 88 1680 90 1678 q 85 1692 86 1682 q 118 1692 104 1692 q 144 1692 132 1692 q 171 1690 157 1692 q 206 1688 185 1689 q 214 1687 213 1686 q 222 1685 215 1688 q 234 1675 233 1679 q 235 1668 235 1671 q 237 1653 236 1653 q 242 1643 238 1653 q 247 1624 246 1633 q 253 1603 249 1614 q 272 1558 258 1585 q 298 1504 285 1531 q 322 1458 311 1478 q 335 1436 333 1439 q 336 1421 335 1433 q 339 1401 338 1408 m 1 171 q 8 201 -3 190 q 33 222 18 213 q 62 244 47 232 q 81 281 76 257 q 90 335 88 317 q 94 366 93 353 q 95 394 94 379 q 97 443 96 410 q 99 466 97 457 q 105 483 101 475 q 112 497 108 490 q 118 517 115 504 q 126 557 124 536 q 131 597 128 578 q 149 672 138 633 q 164 751 161 710 q 172 838 168 811 q 180 882 175 865 q 191 918 185 899 q 207 983 197 938 q 212 1019 211 1006 q 217 1056 213 1032 l 292 1349 l 308 1346 q 325 1322 321 1340 q 332 1293 329 1303 q 342 1243 340 1257 q 347 1219 344 1229 q 353 1195 349 1210 q 371 1146 358 1181 q 380 1110 376 1132 q 389 1071 383 1089 l 425 811 q 431 774 428 794 q 438 733 435 753 l 464 581 q 475 544 469 561 q 486 506 481 526 q 496 456 490 489 q 510 389 501 424 q 528 324 518 354 q 554 282 539 294 l 610 239 q 623 228 618 232 q 636 219 628 225 q 651 210 647 213 q 660 193 656 208 q 625 198 639 190 q 588 208 611 206 q 563 209 572 210 q 547 206 554 208 q 533 201 540 204 q 513 196 525 199 q 488 193 499 193 q 469 193 478 193 q 453 192 461 193 q 438 182 446 190 q 426 167 431 175 q 414 153 421 160 q 397 144 404 146 q 383 142 386 142 q 382 142 381 142 q 385 143 383 142 q 382 146 386 144 q 385 158 382 150 q 392 174 388 165 q 401 190 396 182 q 408 201 406 197 q 423 243 421 221 q 422 288 425 265 q 415 333 419 311 q 406 376 410 356 q 391 440 399 408 q 381 500 383 472 q 369 590 374 564 q 357 624 365 617 q 334 628 349 632 q 292 626 319 624 q 258 631 276 628 q 224 635 239 633 q 209 597 213 615 q 205 558 206 578 q 204 516 204 538 q 200 469 204 494 q 196 421 197 447 q 192 375 194 394 q 183 334 188 354 q 176 290 178 314 q 199 274 188 283 q 225 253 210 265 q 242 242 233 246 q 256 233 250 238 q 262 224 261 229 q 256 211 263 218 q 234 206 253 207 q 192 206 215 206 q 148 207 169 206 q 118 208 126 208 q 79 203 94 210 q 52 188 64 196 q 29 173 40 179 q 1 171 18 167 m 231 696 q 257 692 247 694 q 285 689 267 690 q 317 690 300 689 q 349 690 333 692 q 345 734 349 703 q 338 806 342 765 q 327 891 333 847 q 315 973 321 935 q 304 1038 310 1011 q 296 1069 299 1064 q 282 953 289 997 q 267 874 275 910 q 249 798 258 838 q 231 696 240 758 z "},"":{"ha":565,"x_min":63,"x_max":556,"o":"m 339 1154 q 328 1153 329 1154 q 327 1151 326 1151 q 326 1149 328 1150 q 313 1149 324 1149 q 275 1159 289 1146 q 254 1193 261 1172 q 232 1235 247 1213 q 201 1281 217 1257 q 189 1295 200 1282 q 163 1327 178 1308 q 134 1365 149 1346 q 111 1400 119 1385 q 99 1422 103 1417 q 92 1429 94 1428 q 88 1433 90 1431 q 85 1444 86 1435 q 118 1444 104 1444 q 144 1444 132 1444 q 171 1443 157 1444 q 206 1440 185 1442 q 214 1440 213 1439 q 222 1438 215 1440 q 234 1428 233 1432 q 235 1421 235 1424 q 237 1406 236 1406 q 242 1396 238 1406 q 247 1376 246 1386 q 253 1356 249 1367 q 272 1310 258 1338 q 298 1257 285 1283 q 322 1211 311 1231 q 335 1189 333 1192 q 336 1174 335 1186 q 339 1154 338 1161 m 63 1056 q 99 1049 82 1056 q 134 1037 117 1042 q 171 1033 151 1032 q 215 1047 190 1033 q 282 1066 239 1060 q 371 1073 325 1072 q 457 1068 417 1074 q 517 1050 497 1063 q 533 1018 532 1039 q 531 974 533 997 q 527 931 528 940 q 513 914 526 921 q 499 927 504 919 q 489 943 493 935 q 475 972 481 957 q 463 999 469 988 q 448 1019 457 1011 q 424 1028 439 1028 q 388 1026 411 1028 q 339 1021 364 1025 q 293 1008 314 1017 q 265 986 272 1000 q 256 935 258 969 q 255 862 254 901 q 257 783 256 822 q 258 715 258 743 l 353 735 q 376 751 376 742 q 378 782 376 760 q 383 816 378 811 q 397 816 389 821 q 415 801 406 811 q 432 790 424 792 q 424 778 419 782 q 431 760 428 774 q 433 745 432 754 q 435 728 433 736 q 435 651 439 679 q 433 611 432 622 q 436 574 436 589 q 419 544 436 560 q 409 549 411 547 q 406 552 407 550 q 403 558 404 554 q 397 569 403 563 l 383 586 q 385 590 383 592 q 389 592 388 588 q 390 613 390 596 q 383 674 389 629 l 264 643 q 264 571 264 622 q 266 463 264 519 q 271 360 268 407 q 281 300 274 313 q 329 292 299 290 q 383 294 360 293 q 436 290 415 294 q 488 288 457 286 l 519 371 q 526 382 525 381 q 544 383 528 383 q 546 372 544 382 q 548 350 547 363 q 549 326 549 338 q 550 308 550 314 q 553 269 550 290 q 544 236 556 249 q 513 225 535 222 q 474 229 492 228 q 437 228 453 231 q 404 222 421 225 q 367 215 388 218 q 315 214 346 213 q 277 222 290 215 q 244 231 264 228 q 189 228 210 233 q 153 218 168 224 q 128 209 139 213 q 104 213 118 206 q 121 233 113 226 q 136 247 129 240 q 150 263 143 253 q 164 290 157 272 q 183 394 181 340 q 182 499 185 447 q 174 598 179 551 q 172 678 169 644 q 172 747 175 714 q 164 811 169 779 q 160 835 161 828 q 160 847 160 842 q 160 860 160 853 q 160 885 161 868 q 149 940 158 915 q 125 985 139 965 q 105 1006 115 997 q 85 1021 94 1014 q 70 1036 76 1028 q 63 1056 64 1044 z "},"":{"ha":300,"x_min":-46,"x_max":289,"o":"m 208 1350 q 197 1349 199 1350 q 197 1347 196 1347 q 195 1345 197 1346 q 182 1344 193 1344 q 144 1355 158 1342 q 124 1389 131 1368 q 101 1431 117 1408 q 71 1476 86 1453 q 58 1491 69 1478 q 33 1523 47 1504 q 3 1561 18 1542 q -19 1596 -11 1581 q -32 1618 -28 1613 q -38 1625 -36 1624 q -42 1628 -40 1626 q -46 1640 -44 1631 q -12 1640 -26 1640 q 14 1640 1 1640 q 40 1639 26 1640 q 75 1636 54 1638 q 83 1635 82 1635 q 92 1633 85 1636 q 103 1624 103 1628 q 104 1617 104 1619 q 106 1601 106 1601 q 111 1592 107 1601 q 117 1572 115 1582 q 122 1551 118 1563 q 141 1506 128 1533 q 167 1453 154 1479 q 192 1407 181 1426 q 204 1385 203 1388 q 206 1369 204 1382 q 208 1350 207 1357 m 33 1272 q 56 1276 38 1275 q 98 1278 75 1278 q 142 1278 121 1278 q 175 1279 164 1278 q 238 1286 214 1282 q 289 1278 261 1290 q 272 1260 283 1267 q 250 1235 261 1253 l 222 1183 q 208 1124 211 1163 q 203 1043 204 1086 q 204 960 203 1000 q 207 894 206 919 q 207 821 210 856 q 207 749 204 786 q 211 699 208 713 q 216 676 214 685 q 218 653 218 667 q 215 603 218 639 q 208 481 208 517 q 215 433 208 444 q 233 422 221 422 q 264 407 244 422 q 273 399 274 400 q 269 385 272 399 q 235 381 251 379 q 202 386 218 383 q 170 391 186 389 q 139 388 154 393 q 111 378 122 382 q 86 364 100 375 q 81 359 81 360 q 74 354 81 358 q 54 350 58 346 q 47 361 50 354 q 61 384 53 376 q 79 407 69 392 q 105 460 101 442 q 105 494 108 479 q 98 530 101 510 q 104 589 94 550 q 107 613 106 596 q 108 650 108 631 q 108 688 108 669 q 106 715 107 707 q 106 758 103 746 q 112 776 108 769 q 118 796 115 783 q 119 842 121 808 q 115 883 117 875 q 111 894 113 890 q 111 911 110 899 q 118 968 113 924 q 118 1001 121 986 q 115 1033 115 1015 q 118 1076 117 1047 q 119 1135 119 1104 q 117 1192 119 1167 q 110 1226 115 1218 q 94 1235 106 1231 q 69 1246 82 1240 q 45 1258 56 1251 q 33 1272 35 1264 z "},"":{"ha":531,"x_min":19,"x_max":469,"o":"m 274 1268 q 263 1267 264 1268 q 262 1265 261 1265 q 260 1263 263 1264 q 247 1263 258 1263 q 210 1273 224 1260 q 189 1307 196 1286 q 167 1349 182 1326 q 136 1394 151 1371 q 124 1409 135 1396 q 98 1441 113 1422 q 69 1479 83 1460 q 46 1514 54 1499 q 33 1536 38 1531 q 27 1543 29 1542 q 23 1547 25 1544 q 19 1558 21 1549 q 53 1558 39 1558 q 79 1558 67 1558 q 106 1557 92 1558 q 140 1554 119 1556 q 149 1553 147 1553 q 157 1551 150 1554 q 169 1542 168 1546 q 169 1535 169 1538 q 172 1519 171 1519 q 176 1510 172 1519 q 182 1490 181 1500 q 188 1469 183 1481 q 206 1424 193 1451 q 233 1371 219 1397 q 257 1325 246 1344 q 269 1303 268 1306 q 271 1288 269 1300 q 274 1268 272 1275 m 211 1204 q 252 1209 232 1211 q 294 1199 272 1207 q 378 1134 354 1176 q 415 1040 401 1092 q 426 1004 421 1018 q 435 967 431 990 l 465 721 q 469 647 468 694 q 467 549 469 600 q 461 451 465 497 q 450 379 457 404 q 424 311 440 343 q 396 246 408 279 q 391 226 393 238 q 386 208 389 215 l 367 182 q 322 154 346 158 q 277 155 297 150 q 243 167 257 160 q 229 175 229 175 q 213 176 215 179 q 197 181 211 174 q 159 227 176 190 q 128 304 142 264 q 106 378 114 344 q 99 418 99 413 q 97 447 100 436 q 92 474 94 458 q 78 548 85 521 q 69 597 72 575 q 65 644 65 619 q 71 711 65 669 q 72 751 74 735 q 71 794 71 767 q 74 884 71 840 q 81 965 78 928 q 83 984 81 972 q 85 1003 85 996 q 91 1057 88 1029 q 113 1115 94 1085 l 176 1192 q 192 1199 188 1199 q 211 1204 197 1200 m 293 192 l 339 304 q 350 373 346 335 q 358 444 354 411 l 364 642 q 361 678 361 668 q 363 691 361 688 q 365 694 364 694 q 369 703 367 694 q 370 731 372 714 q 363 767 368 749 q 353 802 358 785 q 346 831 349 819 q 339 873 339 857 q 339 903 339 889 q 335 930 339 917 q 318 963 331 943 q 315 972 315 968 q 314 981 314 975 q 312 997 314 988 q 303 1026 310 1007 q 295 1058 299 1036 q 284 1104 292 1081 q 265 1147 276 1128 q 232 1168 253 1165 q 207 1123 217 1153 q 191 1059 197 1093 q 180 991 185 1025 q 171 932 175 957 q 165 900 168 915 q 158 867 161 885 l 219 344 q 218 331 219 335 q 217 324 217 328 q 222 313 218 319 q 236 292 226 306 q 247 265 246 276 q 251 242 249 253 q 262 219 254 231 q 293 192 269 207 z "},"":{"ha":735,"x_min":36,"x_max":707,"o":"m 361 1238 q 350 1236 351 1238 q 349 1234 349 1235 q 348 1233 350 1233 q 335 1232 346 1232 q 297 1242 311 1229 q 276 1276 283 1256 q 254 1318 269 1296 q 224 1364 239 1340 q 211 1378 222 1365 q 185 1410 200 1392 q 156 1449 171 1429 q 133 1483 142 1468 q 121 1506 125 1500 q 115 1513 117 1511 q 110 1516 113 1514 q 107 1528 108 1518 q 140 1528 126 1528 q 167 1528 154 1528 q 193 1526 179 1528 q 228 1524 207 1525 q 236 1523 235 1522 q 244 1521 238 1524 q 256 1511 256 1515 q 257 1504 257 1507 q 259 1489 258 1489 q 264 1479 260 1489 q 269 1460 268 1469 q 275 1439 271 1450 q 294 1394 281 1421 q 320 1340 307 1367 q 344 1294 333 1314 q 357 1272 356 1275 q 358 1257 357 1269 q 361 1238 360 1244 m 454 1185 q 475 1198 458 1200 q 508 1193 492 1196 q 563 1192 532 1189 q 622 1197 593 1194 q 674 1201 651 1200 q 707 1196 697 1203 q 701 1182 704 1185 q 691 1178 697 1179 q 676 1175 685 1176 q 656 1164 668 1174 q 626 1126 635 1149 q 614 1076 617 1103 q 613 1022 611 1049 q 614 972 614 994 q 615 894 615 935 q 618 824 615 854 q 616 790 618 808 q 611 753 614 772 q 611 685 608 724 q 617 603 614 646 q 622 517 621 560 q 619 435 624 474 q 600 367 614 397 q 558 319 586 336 q 494 294 528 300 q 427 289 461 288 q 360 299 393 290 q 297 318 326 307 q 201 385 235 340 q 153 496 167 429 l 133 786 q 131 864 135 828 q 126 942 128 900 q 127 983 126 968 q 125 1011 128 999 q 112 1038 122 1024 q 79 1078 101 1053 q 65 1089 71 1086 q 54 1093 60 1092 q 44 1097 49 1094 q 36 1108 40 1100 q 81 1117 46 1113 q 156 1125 115 1122 q 231 1126 196 1128 q 276 1119 265 1125 q 274 1110 275 1113 q 263 1099 274 1108 q 242 1083 251 1092 q 224 1051 226 1069 q 221 1014 222 1033 q 220 1009 219 1010 q 221 1006 221 1008 q 223 960 222 996 q 224 882 224 924 q 226 803 225 840 q 231 754 228 767 q 241 694 238 731 q 246 631 244 657 q 249 564 247 590 q 254 515 250 538 q 269 469 258 492 q 300 415 279 446 q 310 401 307 406 q 316 394 313 397 q 324 387 319 390 q 340 376 329 383 l 357 367 q 390 356 374 357 q 424 358 407 354 q 456 371 440 363 q 483 389 471 379 q 511 449 504 406 q 519 544 518 492 q 521 653 521 597 q 528 749 521 708 q 536 840 536 804 q 533 899 536 875 q 526 944 529 924 q 524 992 522 964 q 524 1110 528 1075 q 510 1158 519 1146 q 485 1172 500 1171 q 454 1185 471 1172 z "},"":{"ha":565,"x_min":63,"x_max":556,"o":"m 339 1154 q 328 1153 329 1154 q 327 1151 326 1151 q 326 1149 328 1150 q 313 1149 324 1149 q 275 1159 289 1146 q 254 1193 261 1172 q 232 1235 247 1213 q 201 1281 217 1257 q 189 1295 200 1282 q 163 1327 178 1308 q 134 1365 149 1346 q 111 1400 119 1385 q 99 1422 103 1417 q 92 1429 94 1428 q 88 1433 90 1431 q 85 1444 86 1435 q 118 1444 104 1444 q 144 1444 132 1444 q 171 1443 157 1444 q 206 1440 185 1442 q 214 1440 213 1439 q 222 1438 215 1440 q 234 1428 233 1432 q 235 1421 235 1424 q 237 1406 236 1406 q 242 1396 238 1406 q 247 1376 246 1386 q 253 1356 249 1367 q 272 1310 258 1338 q 298 1257 285 1283 q 322 1211 311 1231 q 335 1189 333 1192 q 336 1174 335 1186 q 339 1154 338 1161 m 63 1056 q 99 1049 82 1056 q 134 1037 117 1042 q 171 1033 151 1032 q 215 1047 190 1033 q 282 1066 239 1060 q 371 1073 325 1072 q 457 1068 417 1074 q 517 1050 497 1063 q 533 1018 532 1039 q 531 974 533 997 q 527 931 528 940 q 513 914 526 921 q 499 927 504 919 q 489 943 493 935 q 475 972 481 957 q 463 999 469 988 q 448 1019 457 1011 q 424 1028 439 1028 q 388 1026 411 1028 q 339 1021 364 1025 q 293 1008 314 1017 q 265 986 272 1000 q 256 935 258 969 q 255 862 254 901 q 257 783 256 822 q 258 715 258 743 l 353 735 q 376 751 376 742 q 378 782 376 760 q 383 816 378 811 q 397 816 389 821 q 415 801 406 811 q 432 790 424 792 q 424 778 419 782 q 431 760 428 774 q 433 745 432 754 q 435 728 433 736 q 435 651 439 679 q 433 611 432 622 q 436 574 436 589 q 419 544 436 560 q 409 549 411 547 q 406 552 407 550 q 403 558 404 554 q 397 569 403 563 l 383 586 q 385 590 383 592 q 389 592 388 588 q 390 613 390 596 q 383 674 389 629 l 264 643 q 264 571 264 622 q 266 463 264 519 q 271 360 268 407 q 281 300 274 313 q 329 292 299 290 q 383 294 360 293 q 436 290 415 294 q 488 288 457 286 l 519 371 q 526 382 525 381 q 544 383 528 383 q 546 372 544 382 q 548 350 547 363 q 549 326 549 338 q 550 308 550 314 q 553 269 550 290 q 544 236 556 249 q 513 225 535 222 q 474 229 492 228 q 437 228 453 231 q 404 222 421 225 q 367 215 388 218 q 315 214 346 213 q 277 222 290 215 q 244 231 264 228 q 189 228 210 233 q 153 218 168 224 q 128 209 139 213 q 104 213 118 206 q 121 233 113 226 q 136 247 129 240 q 150 263 143 253 q 164 290 157 272 q 183 394 181 340 q 182 499 185 447 q 174 598 179 551 q 172 678 169 644 q 172 747 175 714 q 164 811 169 779 q 160 835 161 828 q 160 847 160 842 q 160 860 160 853 q 160 885 161 868 q 149 940 158 915 q 125 985 139 965 q 105 1006 115 997 q 85 1021 94 1014 q 70 1036 76 1028 q 63 1056 64 1044 z "},"":{"ha":300,"x_min":-46,"x_max":289,"o":"m 208 1350 q 197 1349 199 1350 q 197 1347 196 1347 q 195 1345 197 1346 q 182 1344 193 1344 q 144 1355 158 1342 q 124 1389 131 1368 q 101 1431 117 1408 q 71 1476 86 1453 q 58 1491 69 1478 q 33 1523 47 1504 q 3 1561 18 1542 q -19 1596 -11 1581 q -32 1618 -28 1613 q -38 1625 -36 1624 q -42 1628 -40 1626 q -46 1640 -44 1631 q -12 1640 -26 1640 q 14 1640 1 1640 q 40 1639 26 1640 q 75 1636 54 1638 q 83 1635 82 1635 q 92 1633 85 1636 q 103 1624 103 1628 q 104 1617 104 1619 q 106 1601 106 1601 q 111 1592 107 1601 q 117 1572 115 1582 q 122 1551 118 1563 q 141 1506 128 1533 q 167 1453 154 1479 q 192 1407 181 1426 q 204 1385 203 1388 q 206 1369 204 1382 q 208 1350 207 1357 m 33 1272 q 56 1276 38 1275 q 98 1278 75 1278 q 142 1278 121 1278 q 175 1279 164 1278 q 238 1286 214 1282 q 289 1278 261 1290 q 272 1260 283 1267 q 250 1235 261 1253 l 222 1183 q 208 1124 211 1163 q 203 1043 204 1086 q 204 960 203 1000 q 207 894 206 919 q 207 821 210 856 q 207 749 204 786 q 211 699 208 713 q 216 676 214 685 q 218 653 218 667 q 215 603 218 639 q 208 481 208 517 q 215 433 208 444 q 233 422 221 422 q 264 407 244 422 q 273 399 274 400 q 269 385 272 399 q 235 381 251 379 q 202 386 218 383 q 170 391 186 389 q 139 388 154 393 q 111 378 122 382 q 86 364 100 375 q 81 359 81 360 q 74 354 81 358 q 54 350 58 346 q 47 361 50 354 q 61 384 53 376 q 79 407 69 392 q 105 460 101 442 q 105 494 108 479 q 98 530 101 510 q 104 589 94 550 q 107 613 106 596 q 108 650 108 631 q 108 688 108 669 q 106 715 107 707 q 106 758 103 746 q 112 776 108 769 q 118 796 115 783 q 119 842 121 808 q 115 883 117 875 q 111 894 113 890 q 111 911 110 899 q 118 968 113 924 q 118 1001 121 986 q 115 1033 115 1015 q 118 1076 117 1047 q 119 1135 119 1104 q 117 1192 119 1167 q 110 1226 115 1218 q 94 1235 106 1231 q 69 1246 82 1240 q 45 1258 56 1251 q 33 1272 35 1264 z "},"":{"ha":531,"x_min":19,"x_max":469,"o":"m 274 1268 q 263 1267 264 1268 q 262 1265 261 1265 q 260 1263 263 1264 q 247 1263 258 1263 q 210 1273 224 1260 q 189 1307 196 1286 q 167 1349 182 1326 q 136 1394 151 1371 q 124 1409 135 1396 q 98 1441 113 1422 q 69 1479 83 1460 q 46 1514 54 1499 q 33 1536 38 1531 q 27 1543 29 1542 q 23 1547 25 1544 q 19 1558 21 1549 q 53 1558 39 1558 q 79 1558 67 1558 q 106 1557 92 1558 q 140 1554 119 1556 q 149 1553 147 1553 q 157 1551 150 1554 q 169 1542 168 1546 q 169 1535 169 1538 q 172 1519 171 1519 q 176 1510 172 1519 q 182 1490 181 1500 q 188 1469 183 1481 q 206 1424 193 1451 q 233 1371 219 1397 q 257 1325 246 1344 q 269 1303 268 1306 q 271 1288 269 1300 q 274 1268 272 1275 m 211 1204 q 252 1209 232 1211 q 294 1199 272 1207 q 378 1134 354 1176 q 415 1040 401 1092 q 426 1004 421 1018 q 435 967 431 990 l 465 721 q 469 647 468 694 q 467 549 469 600 q 461 451 465 497 q 450 379 457 404 q 424 311 440 343 q 396 246 408 279 q 391 226 393 238 q 386 208 389 215 l 367 182 q 322 154 346 158 q 277 155 297 150 q 243 167 257 160 q 229 175 229 175 q 213 176 215 179 q 197 181 211 174 q 159 227 176 190 q 128 304 142 264 q 106 378 114 344 q 99 418 99 413 q 97 447 100 436 q 92 474 94 458 q 78 548 85 521 q 69 597 72 575 q 65 644 65 619 q 71 711 65 669 q 72 751 74 735 q 71 794 71 767 q 74 884 71 840 q 81 965 78 928 q 83 984 81 972 q 85 1003 85 996 q 91 1057 88 1029 q 113 1115 94 1085 l 176 1192 q 192 1199 188 1199 q 211 1204 197 1200 m 293 192 l 339 304 q 350 373 346 335 q 358 444 354 411 l 364 642 q 361 678 361 668 q 363 691 361 688 q 365 694 364 694 q 369 703 367 694 q 370 731 372 714 q 363 767 368 749 q 353 802 358 785 q 346 831 349 819 q 339 873 339 857 q 339 903 339 889 q 335 930 339 917 q 318 963 331 943 q 315 972 315 968 q 314 981 314 975 q 312 997 314 988 q 303 1026 310 1007 q 295 1058 299 1036 q 284 1104 292 1081 q 265 1147 276 1128 q 232 1168 253 1165 q 207 1123 217 1153 q 191 1059 197 1093 q 180 991 185 1025 q 171 932 175 957 q 165 900 168 915 q 158 867 161 885 l 219 344 q 218 331 219 335 q 217 324 217 328 q 222 313 218 319 q 236 292 226 306 q 247 265 246 276 q 251 242 249 253 q 262 219 254 231 q 293 192 269 207 z "},"":{"ha":735,"x_min":36,"x_max":707,"o":"m 361 1238 q 350 1236 351 1238 q 349 1234 349 1235 q 348 1233 350 1233 q 335 1232 346 1232 q 297 1242 311 1229 q 276 1276 283 1256 q 254 1318 269 1296 q 224 1364 239 1340 q 211 1378 222 1365 q 185 1410 200 1392 q 156 1449 171 1429 q 133 1483 142 1468 q 121 1506 125 1500 q 115 1513 117 1511 q 110 1516 113 1514 q 107 1528 108 1518 q 140 1528 126 1528 q 167 1528 154 1528 q 193 1526 179 1528 q 228 1524 207 1525 q 236 1523 235 1522 q 244 1521 238 1524 q 256 1511 256 1515 q 257 1504 257 1507 q 259 1489 258 1489 q 264 1479 260 1489 q 269 1460 268 1469 q 275 1439 271 1450 q 294 1394 281 1421 q 320 1340 307 1367 q 344 1294 333 1314 q 357 1272 356 1275 q 358 1257 357 1269 q 361 1238 360 1244 m 454 1185 q 475 1198 458 1200 q 508 1193 492 1196 q 563 1192 532 1189 q 622 1197 593 1194 q 674 1201 651 1200 q 707 1196 697 1203 q 701 1182 704 1185 q 691 1178 697 1179 q 676 1175 685 1176 q 656 1164 668 1174 q 626 1126 635 1149 q 614 1076 617 1103 q 613 1022 611 1049 q 614 972 614 994 q 615 894 615 935 q 618 824 615 854 q 616 790 618 808 q 611 753 614 772 q 611 685 608 724 q 617 603 614 646 q 622 517 621 560 q 619 435 624 474 q 600 367 614 397 q 558 319 586 336 q 494 294 528 300 q 427 289 461 288 q 360 299 393 290 q 297 318 326 307 q 201 385 235 340 q 153 496 167 429 l 133 786 q 131 864 135 828 q 126 942 128 900 q 127 983 126 968 q 125 1011 128 999 q 112 1038 122 1024 q 79 1078 101 1053 q 65 1089 71 1086 q 54 1093 60 1092 q 44 1097 49 1094 q 36 1108 40 1100 q 81 1117 46 1113 q 156 1125 115 1122 q 231 1126 196 1128 q 276 1119 265 1125 q 274 1110 275 1113 q 263 1099 274 1108 q 242 1083 251 1092 q 224 1051 226 1069 q 221 1014 222 1033 q 220 1009 219 1010 q 221 1006 221 1008 q 223 960 222 996 q 224 882 224 924 q 226 803 225 840 q 231 754 228 767 q 241 694 238 731 q 246 631 244 657 q 249 564 247 590 q 254 515 250 538 q 269 469 258 492 q 300 415 279 446 q 310 401 307 406 q 316 394 313 397 q 324 387 319 390 q 340 376 329 383 l 357 367 q 390 356 374 357 q 424 358 407 354 q 456 371 440 363 q 483 389 471 379 q 511 449 504 406 q 519 544 518 492 q 521 653 521 597 q 528 749 521 708 q 536 840 536 804 q 533 899 536 875 q 526 944 529 924 q 524 992 522 964 q 524 1110 528 1075 q 510 1158 519 1146 q 485 1172 500 1171 q 454 1185 471 1172 z "},"":{"ha":621,"x_min":-3,"x_max":660,"o":"m 268 1403 q 275 1413 272 1411 q 285 1422 278 1415 q 293 1433 292 1429 q 299 1443 294 1436 q 313 1465 306 1454 q 328 1488 321 1476 l 438 1658 q 440 1662 440 1663 q 442 1665 439 1661 q 446 1676 449 1678 q 451 1679 443 1675 q 470 1683 457 1682 q 498 1682 483 1683 q 526 1678 513 1681 q 544 1674 539 1675 q 535 1647 544 1663 q 518 1625 525 1632 q 501 1603 504 1608 q 500 1596 499 1597 q 502 1594 501 1594 q 496 1585 503 1593 l 467 1557 q 445 1535 454 1544 q 428 1517 436 1526 q 410 1498 419 1508 q 389 1474 401 1488 q 357 1431 371 1450 q 329 1402 343 1413 q 301 1391 315 1392 q 268 1403 286 1390 m 1 171 q 8 201 -3 190 q 33 222 18 213 q 62 244 47 232 q 81 281 76 257 q 90 335 88 317 q 94 366 93 353 q 95 394 94 379 q 97 443 96 410 q 99 466 97 457 q 105 483 101 475 q 112 497 108 490 q 118 517 115 504 q 126 557 124 536 q 131 597 128 578 q 149 672 138 633 q 164 751 161 710 q 172 838 168 811 q 180 882 175 865 q 191 918 185 899 q 207 983 197 938 q 212 1019 211 1006 q 217 1056 213 1032 l 292 1349 l 308 1346 q 325 1322 321 1340 q 332 1293 329 1303 q 342 1243 340 1257 q 347 1219 344 1229 q 353 1195 349 1210 q 371 1146 358 1181 q 380 1110 376 1132 q 389 1071 383 1089 l 425 811 q 431 774 428 794 q 438 733 435 753 l 464 581 q 475 544 469 561 q 486 506 481 526 q 496 456 490 489 q 510 389 501 424 q 528 324 518 354 q 554 282 539 294 l 610 239 q 623 228 618 232 q 636 219 628 225 q 651 210 647 213 q 660 193 656 208 q 625 198 639 190 q 588 208 611 206 q 563 209 572 210 q 547 206 554 208 q 533 201 540 204 q 513 196 525 199 q 488 193 499 193 q 469 193 478 193 q 453 192 461 193 q 438 182 446 190 q 426 167 431 175 q 414 153 421 160 q 397 144 404 146 q 383 142 386 142 q 382 142 381 142 q 385 143 383 142 q 382 146 386 144 q 385 158 382 150 q 392 174 388 165 q 401 190 396 182 q 408 201 406 197 q 423 243 421 221 q 422 288 425 265 q 415 333 419 311 q 406 376 410 356 q 391 440 399 408 q 381 500 383 472 q 369 590 374 564 q 357 624 365 617 q 334 628 349 632 q 292 626 319 624 q 258 631 276 628 q 224 635 239 633 q 209 597 213 615 q 205 558 206 578 q 204 516 204 538 q 200 469 204 494 q 196 421 197 447 q 192 375 194 394 q 183 334 188 354 q 176 290 178 314 q 199 274 188 283 q 225 253 210 265 q 242 242 233 246 q 256 233 250 238 q 262 224 261 229 q 256 211 263 218 q 234 206 253 207 q 192 206 215 206 q 148 207 169 206 q 118 208 126 208 q 79 203 94 210 q 52 188 64 196 q 29 173 40 179 q 1 171 18 167 m 231 696 q 257 692 247 694 q 285 689 267 690 q 317 690 300 689 q 349 690 333 692 q 345 734 349 703 q 338 806 342 765 q 327 891 333 847 q 315 973 321 935 q 304 1038 310 1011 q 296 1069 299 1064 q 282 953 289 997 q 267 874 275 910 q 249 798 258 838 q 231 696 240 758 z "}}}
